<svg width="291" height="100" viewBox="0 0 291 100" fill="none" xmlns="http://www.w3.org/2000/svg">
<path d="M28.6665 71.5449C27.9471 72.1536 27.6012 73.1636 27.6289 74.5747C27.6842 75.9858 27.6842 77.3693 27.6289 78.7251C27.5736 80.0809 27.0479 81.0078 26.0518 81.5059C25.194 81.8379 23.8659 82.1699 22.0674 82.502C20.2965 82.834 18.4704 83 16.5889 83C15.3438 83 14.1678 82.8893 13.061 82.668C11.9819 82.4466 11.1104 82.0731 10.4463 81.5474C9.78223 81.0216 9.4502 80.2884 9.4502 79.3477C9.4502 76.4424 10.4463 71.5449 12.4385 64.6553C14.4583 57.738 16.741 50.9313 19.2866 44.2354C21.8599 37.5117 24.1149 32.6143 26.0518 29.543C26.8542 28.3809 28.0163 27.5231 29.5381 26.9697C31.0599 26.3887 32.6647 26.0981 34.3525 26.0981C36.0404 26.0981 37.6452 26.3887 39.167 26.9697C40.6888 27.5231 41.8509 28.3809 42.6533 29.543C44.5902 32.6143 46.8314 37.5117 49.377 44.2354C51.9502 50.9313 54.2329 57.738 56.2251 64.6553C58.245 71.5449 59.2549 76.4424 59.2549 79.3477C59.2549 80.2884 58.9229 81.0216 58.2588 81.5474C57.5947 82.0731 56.7093 82.4466 55.6025 82.668C54.5234 82.8893 53.3613 83 52.1162 83C50.2347 83 48.3947 82.834 46.5962 82.502C44.8254 82.1699 43.5111 81.8379 42.6533 81.5059C41.6572 81.0078 41.1315 80.0809 41.0762 78.7251C41.0208 77.3693 41.007 75.9858 41.0347 74.5747C41.09 73.1636 40.758 72.1536 40.0386 71.5449C39.2085 70.9915 38.0464 70.6318 36.5522 70.4658C35.0858 70.2721 33.6055 70.2721 32.1113 70.4658C30.6449 70.6318 29.4966 70.9915 28.6665 71.5449ZM34.3525 54.4453C34.0205 54.4453 33.5916 55.2477 33.0659 56.8525C32.5402 58.4574 32.3188 59.5918 32.4019 60.2559C32.5679 60.5602 32.9276 60.7677 33.481 60.8784C34.062 60.9891 34.6292 60.9891 35.1826 60.8784C35.7637 60.7677 36.1372 60.5602 36.3032 60.2559C36.3586 59.9792 36.3171 59.5365 36.1787 58.9277C36.068 58.319 35.902 57.6688 35.6807 56.9771C35.4593 56.2853 35.2241 55.6904 34.9751 55.1924C34.7261 54.6943 34.5186 54.4453 34.3525 54.4453ZM90.0508 82.7095C88.5843 82.9032 86.855 83 84.8628 83C82.0682 83 79.2321 82.9032 76.3545 82.7095C73.5046 82.4881 71.5262 82.3636 70.4194 82.3359C68.7593 82.3083 67.2513 81.9762 65.8955 81.3398C64.5397 80.6758 63.6405 79.6935 63.1978 78.3931C62.7827 77.0096 62.4368 75.0866 62.1602 72.624C61.8835 70.1338 61.6759 67.2977 61.5376 64.1157C61.3993 60.9338 61.3301 57.6688 61.3301 54.3208C61.3301 51.0005 61.3993 47.7493 61.5376 44.5674C61.6759 41.3854 61.8835 38.5493 62.1602 36.0591C62.4368 33.5688 62.7827 31.632 63.1978 30.2485C63.6405 28.9481 64.5812 27.9797 66.02 27.3433C67.4588 26.6792 69.0083 26.3472 70.6685 26.3472H71.125C71.8444 26.3748 73.1172 26.3748 74.9434 26.3472C76.7972 26.2918 78.8171 26.2642 81.0029 26.2642C82.7461 26.2642 84.4754 26.2918 86.1909 26.3472C89.2899 26.3472 92.1675 26.7069 94.8237 27.4263C97.5076 28.1457 99.8042 29.0173 101.713 30.041C103.65 31.0648 105.034 32.047 105.864 32.9878C107.358 34.7033 108.437 36.4326 109.101 38.1758C109.793 39.8913 110.139 41.6206 110.139 43.3638C110.139 45.2176 109.793 47.0715 109.101 48.9253C108.437 50.7515 107.524 52.5361 106.362 54.2793C107.69 55.8841 108.645 57.5166 109.226 59.1768C109.834 60.8092 110.139 62.4417 110.139 64.0742C110.139 66.1494 109.724 68.1969 108.894 70.2168C108.091 72.2367 106.984 74.2012 105.573 76.1104C104.217 77.9365 102.156 79.4168 99.3892 80.5513C96.6222 81.658 93.5094 82.3774 90.0508 82.7095ZM90.0508 66.5229C91.6279 65.8035 92.4027 64.7244 92.375 63.2856C92.3473 61.8192 91.5726 60.7954 90.0508 60.2144C88.9163 59.91 87.3807 59.7163 85.4438 59.6333C83.507 59.5226 82.0129 59.7163 80.9614 60.2144C80.3804 60.6017 79.9792 61.2243 79.7578 62.082C79.5641 62.9398 79.5641 63.7975 79.7578 64.6553C79.9792 65.513 80.3804 66.1356 80.9614 66.5229C82.0129 67.0487 83.507 67.2839 85.4438 67.2285C87.4084 67.1732 88.944 66.938 90.0508 66.5229ZM88.8887 48.7593C90.7148 48.1229 91.6279 47.0853 91.6279 45.6465C91.6279 44.18 90.7148 43.1147 88.8887 42.4507C87.8096 42.1463 86.4676 41.9526 84.8628 41.8696C83.258 41.759 81.9575 41.9526 80.9614 42.4507C80.3804 42.8381 79.9792 43.4606 79.7578 44.3184C79.5641 45.1761 79.5641 46.0339 79.7578 46.8916C79.9792 47.7493 80.3804 48.3719 80.9614 48.7593C81.9575 49.2573 83.258 49.4648 84.8628 49.3818C86.4676 49.2988 87.8096 49.0913 88.8887 48.7593ZM120.764 35.395C124.001 32.1854 127.307 29.9165 130.683 28.5884C134.086 27.2326 137.393 26.5547 140.603 26.5547C144.061 26.5547 147.299 27.1219 150.314 28.2563C153.33 29.3908 155.904 30.7604 158.034 32.3652C160.192 33.9701 161.742 35.5195 162.683 37.0137C164.343 39.6976 165.56 42.4092 166.335 45.1484C167.11 47.8877 167.497 50.627 167.497 53.3662C167.497 56.6312 167.027 59.8547 166.086 63.0366C165.173 66.2186 163.942 69.3175 162.392 72.3335C160.538 75.7091 157.591 78.3377 153.552 80.2192C149.512 82.0731 145.154 83 140.478 83C137.407 83 134.377 82.5711 131.389 81.7134C128.428 80.828 125.73 79.4583 123.295 77.6045C119.975 75.0036 117.471 71.7109 115.783 67.7266C114.123 63.7145 113.293 59.5503 113.293 55.2339C113.293 51.5262 113.902 47.943 115.119 44.4844C116.364 41.0257 118.246 37.9959 120.764 35.395ZM133.671 48.8423C131.818 50.8068 130.974 53.1864 131.14 55.981C131.306 58.7479 132.426 60.9753 134.501 62.6631C136.743 64.1572 139.219 64.7106 141.931 64.3232C144.67 63.9359 146.607 62.8014 147.741 60.9199C148.737 59.0938 149.305 57.1984 149.443 55.2339C149.581 53.2417 149.042 51.291 147.824 49.3818C147.299 48.5241 146.275 47.7217 144.753 46.9746C143.259 46.1999 141.516 45.8678 139.523 45.9785C137.559 46.0892 135.608 47.0438 133.671 48.8423ZM195.554 66.3569C196.66 66.3569 197.587 66.0941 198.334 65.5684C199.109 65.015 199.746 64.2541 200.244 63.2856C200.742 62.2896 201.129 61.1413 201.406 59.8408C201.682 58.5127 201.876 57.0877 201.987 55.5659C202.097 54.0441 202.167 52.467 202.194 50.8345C202.222 49.1743 202.222 47.5142 202.194 45.854C202.167 44.1938 202.153 42.589 202.153 41.0396C202.153 39.4901 202.194 38.0513 202.277 36.7231C202.36 35.3674 202.499 34.1776 202.692 33.1538C202.914 32.13 203.232 31.3138 203.647 30.7051C204.532 29.5153 205.888 28.5884 207.714 27.9243C209.568 27.2603 211.436 26.9282 213.317 26.9282C215.061 26.9282 216.582 27.2326 217.883 27.8413C219.211 28.45 220 29.4046 220.249 30.7051C220.47 32.0885 220.719 34.1776 220.996 36.9722C221.3 39.7668 221.452 42.9349 221.452 46.4766C221.452 49.6032 221.245 52.8682 220.83 56.2715C220.442 59.6748 219.709 62.9674 218.63 66.1494C217.578 69.3037 216.084 72.1536 214.147 74.6992C212.211 77.2171 209.734 79.237 206.718 80.7588C203.702 82.2529 200.022 83 195.678 83H195.512C190.006 82.8893 185.537 81.6027 182.106 79.1401C178.675 76.6499 176.047 73.4541 174.221 69.5527C172.422 65.6237 171.191 61.418 170.527 56.9355C169.89 52.4531 169.572 48.2336 169.572 44.2769C169.572 41.2056 169.669 38.4801 169.863 36.1006C170.084 33.721 170.278 31.9225 170.444 30.7051C170.665 29.4046 171.426 28.45 172.727 27.8413C174.055 27.2326 175.59 26.9282 177.333 26.9282C179.215 26.9282 181.083 27.2603 182.937 27.9243C184.79 28.5884 186.16 29.5153 187.045 30.7051C187.848 31.9502 188.318 33.9424 188.457 36.6816C188.623 39.3932 188.692 42.423 188.664 45.771C188.636 49.119 188.747 52.3563 188.996 55.4829C189.245 58.5819 189.854 61.1551 190.822 63.2026C191.818 65.2225 193.396 66.2739 195.554 66.3569ZM243.2 44.5674C242.564 43.3776 241.499 42.8104 240.004 42.8657C238.51 42.8934 236.864 43.1839 235.065 43.7373C233.267 44.263 231.593 44.6919 230.043 45.0239C228.494 45.356 227.346 45.2038 226.599 44.5674C226.073 44.014 225.575 43.1978 225.104 42.1187C224.634 41.0119 224.247 39.7806 223.942 38.4248C223.666 37.0413 223.527 35.6855 223.527 34.3574C223.527 32.8633 223.763 31.5352 224.233 30.373C224.703 29.1833 225.492 28.3809 226.599 27.9658C228.812 27.2741 232.215 26.7622 236.809 26.4302C241.402 26.0705 246.299 25.8906 251.501 25.8906C256.675 25.8906 261.559 26.0705 266.152 26.4302C270.773 26.7622 274.19 27.2741 276.403 27.9658C277.51 28.3809 278.299 29.1694 278.769 30.3315C279.239 31.4937 279.475 32.8218 279.475 34.3159C279.475 35.1183 279.419 35.9346 279.309 36.7646C279.198 37.5947 279.046 38.411 278.852 39.2134C278.658 39.9881 278.423 40.7214 278.146 41.4131C277.897 42.1048 277.621 42.7274 277.316 43.2808C277.04 43.8065 276.735 44.2354 276.403 44.5674C275.656 45.2038 274.508 45.356 272.958 45.0239C271.437 44.6919 269.777 44.263 267.978 43.7373C266.18 43.1839 264.519 42.8934 262.998 42.8657C261.503 42.8104 260.438 43.3776 259.802 44.5674C259.138 46.0892 258.875 48.4411 259.013 51.623C259.152 54.7773 259.414 58.2083 259.802 61.916C260.189 65.596 260.452 69.027 260.59 72.209C260.729 75.3633 260.466 77.7152 259.802 79.2646C259.165 80.5098 258.072 81.4505 256.523 82.0869C254.973 82.6956 253.299 83 251.501 83C249.73 83 248.07 82.6956 246.521 82.0869C244.971 81.4505 243.864 80.5098 243.2 79.2646C242.536 77.7152 242.273 75.3633 242.412 72.209C242.55 69.027 242.813 65.596 243.2 61.916C243.588 58.2083 243.85 54.7773 243.989 51.623C244.127 48.4411 243.864 46.0892 243.2 44.5674Z" fill="black"/>
</svg>
