<svg width="135" height="273" viewBox="0 0 135 273" fill="none" xmlns="http://www.w3.org/2000/svg">
<rect x="-105" y="2" width="238" height="269" rx="78" fill="white" stroke="black" stroke-width="4"/>
<path d="M34.311 81.9912C34.1037 80.4212 34 78.5698 34 76.437C34 73.4451 34.1037 70.4089 34.311 67.3281C34.548 64.277 34.6813 62.159 34.7109 60.9741C34.7406 59.1968 35.096 57.5824 35.7773 56.1309C36.4883 54.6794 37.5399 53.7166 38.9321 53.2427C40.4132 52.7983 42.472 52.4281 45.1084 52.1318C47.7744 51.8356 50.8107 51.6134 54.2173 51.4653C57.6239 51.3172 61.1193 51.2432 64.7036 51.2432C68.2583 51.2432 71.7389 51.3172 75.1455 51.4653C78.5521 51.6134 81.5884 51.8356 84.2544 52.1318C86.9204 52.4281 88.994 52.7983 90.4751 53.2427C91.8674 53.7166 92.9041 54.7238 93.5854 56.2642C94.2964 57.8045 94.6519 59.4634 94.6519 61.2407L94.6519 61.7295C94.6222 62.4997 94.6222 63.8623 94.6519 65.8174C94.7111 67.8021 94.7407 69.9645 94.7407 72.3047C94.7407 74.1709 94.7111 76.0223 94.6519 77.8589C94.6519 81.1766 94.2668 84.2573 93.4966 87.1011C92.7264 89.9744 91.7933 92.4331 90.6973 94.477C89.6012 96.5506 88.5496 98.0317 87.5425 98.9204C85.7059 100.52 83.8545 101.675 81.9883 102.386C80.1517 103.127 78.3003 103.497 76.4341 103.497C74.4494 103.497 72.4647 103.127 70.48 102.386C68.5249 101.675 66.6143 100.698 64.748 99.4536C63.0299 100.875 61.2822 101.897 59.5049 102.52C57.7572 103.171 56.0094 103.497 54.2617 103.497C52.04 103.497 49.848 103.053 47.6855 102.164C45.5231 101.305 43.4199 100.12 41.376 98.6094C39.4209 97.1579 37.8361 94.951 36.6216 91.9888C35.4367 89.0265 34.6665 85.694 34.311 81.9912ZM51.6401 81.9912C52.4103 83.6797 53.5656 84.5091 55.106 84.4795C56.6759 84.4499 57.772 83.6204 58.394 81.9912C58.7199 80.7767 58.9272 79.1326 59.0161 77.0591C59.1346 74.9855 58.9272 73.3859 58.394 72.2603C57.9793 71.6382 57.3128 71.2087 56.3945 70.9717C55.4762 70.7643 54.5579 70.7643 53.6396 70.9717C52.7214 71.2087 52.0548 71.6382 51.6401 72.2603C51.0773 73.3859 50.8255 74.9855 50.8848 77.0591C50.944 79.1623 51.1958 80.8063 51.6401 81.9912ZM70.6577 80.7471C71.339 82.7021 72.4499 83.6797 73.9902 83.6797C75.5602 83.6797 76.7007 82.7021 77.4116 80.7471C77.7375 79.5918 77.9448 78.1551 78.0337 76.437C78.1522 74.7189 77.9448 73.3267 77.4116 72.2603C76.9969 71.6382 76.3304 71.2087 75.4121 70.9717C74.4938 70.7643 73.5755 70.7643 72.6572 70.9717C71.7389 71.2087 71.0724 71.6382 70.6577 72.2603C70.1245 73.3267 69.9023 74.7189 69.9912 76.437C70.0801 78.1551 70.3022 79.5918 70.6577 80.7471ZM51.8179 134.778C51.8179 135.963 52.0993 136.956 52.6621 137.755C53.2546 138.585 54.0692 139.266 55.106 139.799C56.1724 140.333 57.4017 140.747 58.7939 141.043C60.2158 141.34 61.7414 141.547 63.3706 141.666C64.9998 141.784 66.6883 141.858 68.436 141.888C70.2134 141.917 71.9907 141.917 73.7681 141.888C75.5454 141.858 77.2635 141.843 78.9224 141.843C80.5812 141.843 82.1216 141.888 83.5435 141.977C84.995 142.065 86.2687 142.214 87.3647 142.421C88.4608 142.658 89.3346 142.999 89.9863 143.443C91.2601 144.391 92.2524 145.842 92.9634 147.797C93.6743 149.782 94.0298 151.782 94.0298 153.796C94.0298 155.662 93.7039 157.291 93.0522 158.684C92.4005 160.105 91.3786 160.95 89.9863 161.216C88.5052 161.453 86.2687 161.72 83.2769 162.016C80.285 162.342 76.8932 162.505 73.1016 162.505C69.7542 162.505 66.2588 162.283 62.6152 161.838C58.9717 161.424 55.4466 160.639 52.04 159.483C48.6631 158.358 45.612 156.758 42.8867 154.685C40.1911 152.611 38.0286 149.96 36.3994 146.731C34.7998 143.502 34 139.562 34 134.912L34 134.734C34.1185 128.839 35.4959 124.055 38.1323 120.382C40.7983 116.709 44.2197 113.895 48.3965 111.939C52.6029 110.014 57.1055 108.696 61.9043 107.985C66.7031 107.304 71.2205 106.963 75.4565 106.963C78.7446 106.963 81.6624 107.067 84.21 107.274C86.7575 107.511 88.6829 107.718 89.9863 107.896C91.3786 108.133 92.4006 108.948 93.0522 110.34C93.7039 111.762 94.0298 113.406 94.0298 115.272C94.0298 117.286 93.6743 119.286 92.9634 121.271C92.2524 123.255 91.2601 124.722 89.9863 125.669C88.6533 126.528 86.5205 127.032 83.5879 127.18C80.6849 127.358 77.4412 127.432 73.8569 127.402C70.2726 127.373 66.8068 127.491 63.4595 127.758C60.1418 128.024 57.3869 128.676 55.1948 129.713C53.0324 130.779 51.9067 132.468 51.8179 134.778ZM53.9951 202.762C52.0697 202.229 49.922 202.214 47.5522 202.717C45.1824 203.221 42.9608 203.621 40.8872 203.917C38.8433 204.243 37.2881 203.858 36.2217 202.762C35.4811 201.814 34.9183 200.347 34.5332 198.363C34.1777 196.408 34 194.319 34 192.098C34 189.876 34.1777 187.773 34.5332 185.788C34.9183 183.833 35.4811 182.382 36.2217 181.434C37.2881 180.338 38.8433 179.938 40.8872 180.234C42.9608 180.56 45.1824 180.974 47.5522 181.478C49.922 181.982 52.0697 181.967 53.9951 181.434C55.8021 180.812 57.9497 179.819 60.438 178.457C62.9559 177.094 65.6219 175.568 68.436 173.88C71.2798 172.221 74.0643 170.607 76.7895 169.037C79.5148 167.496 81.9735 166.208 84.1655 165.171C86.3872 164.164 88.1201 163.66 89.3643 163.66L89.542 163.66C90.7861 163.779 91.66 164.416 92.1636 165.571C92.6968 166.726 92.9634 168.163 92.9634 169.881C92.9634 171.036 92.8597 172.251 92.6523 173.524C92.4746 174.798 92.2228 176.042 91.897 177.257C91.5711 178.471 91.2008 179.597 90.7861 180.634C90.401 181.671 89.9863 182.53 89.542 183.211C88.9199 184.159 87.9276 184.973 86.5649 185.655C85.2023 186.366 83.6768 186.988 81.9883 187.521C80.3294 188.084 78.715 188.587 77.145 189.032C75.6046 189.506 74.3161 189.98 73.2793 190.454C72.2721 190.957 71.7685 191.505 71.7685 192.098C71.7685 192.838 72.5387 193.49 74.0791 194.053C75.6195 194.645 77.4412 195.252 79.5444 195.875C81.6476 196.497 83.6323 197.208 85.4985 198.007C87.3944 198.807 88.7422 199.799 89.542 200.984C90.1344 201.932 90.6824 203.147 91.186 204.628C91.7192 206.139 92.1488 207.738 92.4746 209.427C92.8004 211.145 92.9634 212.789 92.9634 214.359C92.9634 216.047 92.6968 217.469 92.1636 218.625C91.66 219.809 90.7861 220.446 89.542 220.535L89.3643 220.535C87.8239 220.535 85.543 219.765 82.5215 218.225C79.5 216.684 76.2119 214.862 72.6572 212.759C69.1025 210.656 65.6663 208.657 62.3486 206.761C59.0605 204.895 56.276 203.562 53.9951 202.762Z" fill="black"/>
</svg>
