<svg width="304" height="121" viewBox="0 0 304 121" fill="none" xmlns="http://www.w3.org/2000/svg">
<rect x="2" y="119" width="238" height="300" rx="78" transform="rotate(-90 2 119)" fill="white" stroke="black" stroke-width="4"/>
<path d="M96.9912 94.189C95.4212 94.3963 93.5698 94.5 91.437 94.5C88.4451 94.5 85.4089 94.3963 82.3281 94.189C79.277 93.952 77.159 93.8187 75.9741 93.7891C74.1968 93.7594 72.5824 93.404 71.1309 92.7227C69.6794 92.0117 68.7166 90.9601 68.2427 89.5679C67.7983 88.0868 67.4281 86.028 67.1318 83.3916C66.8356 80.7256 66.6134 77.6893 66.4653 74.2827C66.3172 70.8761 66.2432 67.3807 66.2432 63.7964C66.2432 60.2417 66.3172 56.7611 66.4653 53.3545C66.6134 49.9479 66.8356 46.9116 67.1318 44.2456C67.4281 41.5796 67.7983 39.506 68.2427 38.0249C68.7166 36.6326 69.7238 35.5959 71.2642 34.9146C72.8045 34.2036 74.4634 33.8481 76.2407 33.8481H76.7295C77.4997 33.8778 78.8623 33.8778 80.8174 33.8481C82.8021 33.7889 84.9645 33.7593 87.3047 33.7593C89.1709 33.7593 91.0223 33.7889 92.8589 33.8481C96.1766 33.8481 99.2573 34.2332 102.101 35.0034C104.974 35.7736 107.433 36.7067 109.477 37.8027C111.551 38.8988 113.032 39.9504 113.92 40.9575C115.52 42.7941 116.675 44.6455 117.386 46.5117C118.127 48.3483 118.497 50.1997 118.497 52.0659C118.497 54.0506 118.127 56.0353 117.386 58.02C116.675 59.9751 115.698 61.8857 114.454 63.752C115.875 65.4701 116.897 67.2178 117.52 68.9951C118.171 70.7428 118.497 72.4906 118.497 74.2383C118.497 76.46 118.053 78.652 117.164 80.8145C116.305 82.9769 115.12 85.0801 113.609 87.124C112.158 89.0791 109.951 90.6639 106.989 91.8784C104.027 93.0633 100.694 93.8335 96.9912 94.189ZM96.9912 76.8599C98.6797 76.0897 99.5091 74.9344 99.4795 73.394C99.4499 71.8241 98.6204 70.728 96.9912 70.106C95.7767 69.7801 94.1326 69.5728 92.0591 69.4839C89.9855 69.3654 88.3859 69.5728 87.2603 70.106C86.6382 70.5207 86.2087 71.1872 85.9717 72.1055C85.7643 73.0238 85.7643 73.9421 85.9717 74.8604C86.2087 75.7786 86.6382 76.4451 87.2603 76.8599C88.3859 77.4227 89.9855 77.6745 92.0591 77.6152C94.1623 77.556 95.8063 77.3042 96.9912 76.8599ZM95.7471 57.8423C97.7021 57.161 98.6797 56.0501 98.6797 54.5098C98.6797 52.9398 97.7021 51.7993 95.7471 51.0884C94.5918 50.7625 93.1551 50.5552 91.437 50.4663C89.7189 50.3478 88.3267 50.5552 87.2603 51.0884C86.6382 51.5031 86.2087 52.1696 85.9717 53.0879C85.7643 54.0062 85.7643 54.9245 85.9717 55.8428C86.2087 56.7611 86.6382 57.4276 87.2603 57.8423C88.3267 58.3755 89.7189 58.5977 91.437 58.5088C93.1551 58.4199 94.5918 58.1978 95.7471 57.8423ZM149.778 76.6821C150.963 76.6821 151.956 76.4007 152.755 75.8379C153.585 75.2454 154.266 74.4308 154.799 73.394C155.333 72.3276 155.747 71.0983 156.043 69.7061C156.34 68.2842 156.547 66.7586 156.666 65.1294C156.784 63.5002 156.858 61.8117 156.888 60.064C156.917 58.2866 156.917 56.5093 156.888 54.7319C156.858 52.9546 156.843 51.2365 156.843 49.5776C156.843 47.9188 156.888 46.3784 156.977 44.9565C157.065 43.505 157.214 42.2313 157.421 41.1353C157.658 40.0392 157.999 39.1654 158.443 38.5137C159.391 37.2399 160.842 36.2476 162.797 35.5366C164.782 34.8257 166.782 34.4702 168.796 34.4702C170.662 34.4702 172.291 34.7961 173.684 35.4478C175.105 36.0994 175.95 37.1214 176.216 38.5137C176.453 39.9948 176.72 42.2313 177.016 45.2231C177.342 48.215 177.505 51.6068 177.505 55.3984C177.505 58.7458 177.283 62.2412 176.838 65.8848C176.424 69.5283 175.639 73.0534 174.483 76.46C173.358 79.8369 171.758 82.888 169.685 85.6133C167.611 88.3089 164.96 90.4714 161.731 92.1006C158.502 93.7002 154.562 94.5 149.912 94.5H149.734C143.839 94.3815 139.055 93.0041 135.382 90.3677C131.709 87.7017 128.895 84.2803 126.939 80.1035C125.014 75.8971 123.696 71.3945 122.985 66.5957C122.304 61.7969 121.963 57.2795 121.963 53.0435C121.963 49.7554 122.067 46.8376 122.274 44.29C122.511 41.7425 122.718 39.8171 122.896 38.5137C123.133 37.1214 123.948 36.0994 125.34 35.4478C126.762 34.7961 128.406 34.4702 130.272 34.4702C132.286 34.4702 134.286 34.8257 136.271 35.5366C138.255 36.2476 139.722 37.2399 140.669 38.5137C141.528 39.8467 142.032 41.9795 142.18 44.9121C142.358 47.8151 142.432 51.0588 142.402 54.6431C142.373 58.2274 142.491 61.6932 142.758 65.0405C143.024 68.3582 143.676 71.1131 144.713 73.3052C145.779 75.4676 147.468 76.5933 149.778 76.6821ZM217.762 74.5049C217.229 76.4303 217.214 78.578 217.717 80.9478C218.221 83.3175 218.621 85.5392 218.917 87.6128C219.243 89.6567 218.858 91.2119 217.762 92.2783C216.814 93.0189 215.347 93.5817 213.363 93.9668C211.408 94.3223 209.319 94.5 207.098 94.5C204.876 94.5 202.773 94.3223 200.788 93.9668C198.833 93.5817 197.382 93.0189 196.434 92.2783C195.338 91.2119 194.938 89.6567 195.234 87.6128C195.56 85.5392 195.974 83.3175 196.478 80.9478C196.982 78.578 196.967 76.4303 196.434 74.5049C195.812 72.6979 194.819 70.5503 193.457 68.062C192.094 65.5441 190.568 62.8781 188.88 60.064C187.221 57.2202 185.607 54.4357 184.037 51.7104C182.496 48.9852 181.208 46.5265 180.171 44.3345C179.164 42.1128 178.66 40.3799 178.66 39.1357V38.958C178.779 37.7139 179.416 36.84 180.571 36.3364C181.726 35.8032 183.163 35.5366 184.881 35.5366C186.036 35.5366 187.251 35.6403 188.524 35.8477C189.798 36.0254 191.042 36.2772 192.257 36.603C193.471 36.9289 194.597 37.2992 195.634 37.7139C196.671 38.099 197.53 38.5137 198.211 38.958C199.159 39.5801 199.973 40.5724 200.655 41.9351C201.366 43.2977 201.988 44.8232 202.521 46.5117C203.084 48.1706 203.587 49.785 204.032 51.355C204.506 52.8953 204.98 54.1839 205.454 55.2207C205.957 56.2279 206.505 56.7314 207.098 56.7314C207.838 56.7314 208.49 55.9613 209.053 54.4209C209.645 52.8805 210.252 51.0588 210.875 48.9556C211.497 46.8524 212.208 44.8677 213.007 43.0015C213.807 41.1056 214.799 39.7578 215.984 38.958C216.932 38.3656 218.147 37.8175 219.628 37.314C221.139 36.7808 222.738 36.3512 224.427 36.0254C226.145 35.6995 227.789 35.5366 229.359 35.5366C231.047 35.5366 232.469 35.8032 233.625 36.3364C234.809 36.84 235.446 37.7139 235.535 38.958V39.1357C235.535 40.6761 234.765 42.957 233.225 45.9785C231.684 49 229.862 52.2881 227.759 55.8428C225.656 59.3975 223.657 62.8337 221.761 66.1514C219.895 69.4395 218.562 72.224 217.762 74.5049Z" fill="black"/>
</svg>
