<svg width="60" height="62" viewBox="0 0 60 62" fill="none" xmlns="http://www.w3.org/2000/svg">
<circle cx="30" cy="32" r="30" fill="black"/>
<circle cx="30" cy="30" r="29" fill="white" stroke="black" stroke-width="2"/>
<path d="M30.3232 9.00021C18.1264 9.05746 8.28886 18.985 8.34201 31.1777C8.39925 43.3703 18.3268 53.212 30.5194 53.1588C42.7121 53.1016 52.5538 43.1741 52.5006 30.9814C52.4434 18.7846 42.5159 8.94706 30.3232 9.00021ZM27.5265 29.996C25.3472 29.996 23.5767 28.2297 23.5767 26.0503C23.5767 23.871 25.3431 22.1047 27.5265 22.1047C29.7058 22.1047 31.4721 23.871 31.4721 26.0503C31.4721 28.2297 29.7058 29.996 27.5265 29.996ZM30.6748 34.2647L30.6953 34.2401L30.7157 34.2156C31.8442 34.9434 33.1281 35.1969 34.4119 35.2378C35.6999 35.2705 37.0083 35.1765 38.3004 34.9148C39.5883 34.649 40.8558 34.2524 42.0784 33.7454C42.7653 33.4633 43.4481 33.1525 44.0982 32.7886C44.1023 32.7845 44.1064 32.7845 44.1105 32.7804C44.5153 32.5351 44.9119 32.2816 45.3003 32.0158C45.3862 31.9545 45.468 31.8932 45.5456 31.8278L45.5538 31.84L45.5865 31.8809C44.593 32.7845 43.4113 33.4551 42.2092 34.048C40.9949 34.6204 39.7273 35.0906 38.4189 35.43C37.1146 35.7652 35.7531 36.0228 34.3752 35.8961C33.0177 35.7693 31.5866 35.295 30.6748 34.2647ZM40.8068 29.996C40.8068 29.5217 41.187 29.1414 41.6572 29.1374C42.1315 29.1374 42.5118 29.5176 42.5159 29.9878C42.5159 30.458 42.1356 30.8465 41.6654 30.8465C41.1952 30.8505 40.8068 30.4703 40.8068 29.996ZM34.044 51.1758C33.1894 45.198 38.4067 39.347 41.3506 36.354C42.017 35.6753 43.0515 34.739 44.0124 33.7454C47.8313 30.1759 48.5918 25.9072 40.7741 23.7729C39.2939 23.3436 37.7566 22.7344 36.2028 22.121C36.1538 21.9779 36.0965 21.843 36.0352 21.7163C35.8553 21.4096 35.5445 21.0539 35.0702 20.6532C34.0521 19.77 32.1468 19.7945 30.499 20.183C28.6754 19.7537 26.8805 19.6024 25.1509 20.0153C17.5908 22.0965 16.3764 25.7846 16.082 30.2291C15.6813 35.0293 15.4483 38.6069 13.6288 42.6957C11.3595 39.4206 10.0225 35.4545 10.0061 31.1695C9.95707 19.8968 19.0546 10.7134 30.3314 10.6643C41.6082 10.6153 50.7874 19.7128 50.8406 30.9896C50.8815 41.0602 43.628 49.4626 34.044 51.1758Z" fill="black"/>
<path d="M30.3045 26.0868C30.3045 27.6201 29.0615 28.8631 27.5282 28.8631C25.9949 28.8631 24.752 27.6201 24.752 26.0868C24.752 24.5535 25.9949 23.3105 27.5282 23.3105C29.0615 23.3105 30.3045 24.5535 30.3045 26.0868Z" fill="black"/>
</svg>
