<svg width="286" height="237" viewBox="0 0 286 237" fill="none" xmlns="http://www.w3.org/2000/svg">
<rect x="9" y="15" width="275" height="220" rx="38" fill="black" stroke="black" stroke-width="4"/>
<rect x="2" y="2" width="275" height="220" rx="38" fill="#C3FCF1" stroke="black" stroke-width="4"/>
<path d="M181.544 108.801C179.742 109.903 177.638 110.103 176.035 109.201C174.032 108 172.83 105.295 172.83 101.589V90.2706C172.83 84.8618 170.727 80.9554 167.121 79.9538C161.011 78.1508 156.403 85.6631 154.701 88.4676L143.883 105.796V84.4611C143.783 79.5531 142.18 76.6484 139.175 75.7469C137.172 75.1459 134.167 75.4464 131.262 79.8536L107.123 118.517C103.918 112.407 102.215 105.596 102.215 98.6843C102.215 75.3463 120.946 56.4154 143.883 56.4154C166.82 56.4154 185.551 75.3463 185.551 98.6843V98.7845V98.8847C185.751 103.392 184.349 106.998 181.544 108.801ZM194.766 98.6843V98.5842V98.484C194.666 70.1377 171.829 47 143.883 47C115.837 47 93 70.1378 93 98.6843C93 127.131 115.837 150.369 143.883 150.369C156.804 150.369 169.024 145.461 178.439 136.546C180.343 134.743 180.443 131.838 178.64 129.935C176.937 128.032 174.032 127.932 172.129 129.635C172.129 129.635 172.129 129.635 172.029 129.735C164.417 136.947 154.2 141.053 143.683 141.053C131.363 141.053 120.345 135.645 112.732 127.031L134.468 92.1737V108.3C134.468 116.013 137.473 118.517 139.977 119.218C142.481 119.919 146.287 119.418 150.394 112.908L162.313 93.576C162.714 92.975 163.014 92.374 163.415 91.9734V101.789C163.415 109.001 166.32 114.811 171.328 117.615C175.835 120.219 181.544 119.919 186.252 117.014C192.062 113.208 195.167 106.597 194.766 98.6843Z" fill="#17181B"/>
<path d="M47.0664 193.773C47.0664 192.477 47.3125 191.211 47.8047 189.977C48.3047 188.742 49.0859 187.727 50.1484 186.93C51.2109 186.133 52.582 185.703 54.2617 185.641H54.3438C55.0938 185.641 55.8477 185.809 56.6055 186.145C57.3633 186.473 58.0547 186.891 58.6797 187.398C59.3125 187.898 59.8203 188.426 60.2031 188.98C60.5938 189.535 60.7891 190.039 60.7891 190.492C60.7891 190.578 60.7812 190.664 60.7656 190.75C60.6172 191.375 60.3086 191.855 59.8398 192.191C59.3789 192.52 58.8555 192.699 58.2695 192.73C57.6836 192.762 57.1367 192.637 56.6289 192.355C56.3477 192.184 56.0859 191.945 55.8438 191.641C55.6016 191.328 55.3516 191.047 55.0938 190.797C54.8438 190.539 54.5625 190.402 54.25 190.387C53.6094 190.418 53.1367 190.777 52.832 191.465C52.5352 192.145 52.3984 192.93 52.4219 193.82C52.4375 194.375 52.5078 194.914 52.6328 195.438C52.7578 195.953 52.9531 196.383 53.2188 196.727C53.4844 197.07 53.8281 197.246 54.25 197.254C54.5625 197.238 54.8438 197.105 55.0938 196.855C55.3516 196.598 55.6016 196.316 55.8438 196.012C56.0859 195.707 56.3477 195.465 56.6289 195.285C57.1367 195.004 57.6836 194.879 58.2695 194.91C58.8555 194.941 59.3789 195.125 59.8398 195.461C60.3086 195.789 60.6172 196.266 60.7656 196.891C60.7812 196.977 60.7891 197.062 60.7891 197.148C60.7891 197.602 60.5938 198.105 60.2031 198.66C59.8203 199.215 59.3125 199.746 58.6797 200.254C58.0547 200.754 57.3633 201.172 56.6055 201.508C55.8477 201.836 55.0938 202 54.3438 202H54.2617C52.5742 201.953 51.1992 201.555 50.1367 200.805C49.082 200.055 48.3047 199.07 47.8047 197.852C47.3125 196.625 47.0664 195.277 47.0664 193.809V193.773ZM63.8008 188.559C64.7148 187.652 65.6484 187.012 66.6016 186.637C67.5625 186.254 68.4961 186.062 69.4023 186.062C70.3789 186.062 71.293 186.223 72.1445 186.543C72.9961 186.863 73.7227 187.25 74.3242 187.703C74.9336 188.156 75.3711 188.594 75.6367 189.016C76.1055 189.773 76.4492 190.539 76.668 191.312C76.8867 192.086 76.9961 192.859 76.9961 193.633C76.9961 194.555 76.8633 195.465 76.5977 196.363C76.3398 197.262 75.9922 198.137 75.5547 198.988C75.0312 199.941 74.1992 200.684 73.0586 201.215C71.918 201.738 70.6875 202 69.3672 202C68.5 202 67.6445 201.879 66.8008 201.637C65.9648 201.387 65.2031 201 64.5156 200.477C63.5781 199.742 62.8711 198.812 62.3945 197.688C61.9258 196.555 61.6914 195.379 61.6914 194.16C61.6914 193.113 61.8633 192.102 62.207 191.125C62.5586 190.148 63.0898 189.293 63.8008 188.559ZM67.4453 192.355C66.9219 192.91 66.6836 193.582 66.7305 194.371C66.7773 195.152 67.0938 195.781 67.6797 196.258C68.3125 196.68 69.0117 196.836 69.7773 196.727C70.5508 196.617 71.0977 196.297 71.418 195.766C71.6992 195.25 71.8594 194.715 71.8984 194.16C71.9375 193.598 71.7852 193.047 71.4414 192.508C71.293 192.266 71.0039 192.039 70.5742 191.828C70.1523 191.609 69.6602 191.516 69.0977 191.547C68.543 191.578 67.9922 191.848 67.4453 192.355ZM83.2305 187.293C83.4258 187.895 83.5742 188.824 83.6758 190.082C83.7773 191.34 83.8281 192.676 83.8281 194.09C83.8281 195.512 83.7773 196.852 83.6758 198.109C83.5742 199.359 83.4258 200.285 83.2305 200.887C83.0898 201.262 82.793 201.543 82.3398 201.73C81.8945 201.91 81.4102 202 80.8867 202C80.3633 202 79.875 201.91 79.4219 201.73C78.9766 201.543 78.6836 201.262 78.543 200.887C78.418 200.496 78.3086 199.953 78.2148 199.258C78.1289 198.555 78.0625 197.754 78.0156 196.855C77.9766 195.957 77.957 195.035 77.957 194.09C77.957 193.152 77.9766 192.234 78.0156 191.336C78.0625 190.438 78.1289 189.637 78.2148 188.934C78.3086 188.23 78.418 187.684 78.543 187.293C78.6836 186.926 78.9766 186.648 79.4219 186.461C79.875 186.273 80.3633 186.18 80.8867 186.18C81.4102 186.18 81.8945 186.273 82.3398 186.461C82.793 186.648 83.0898 186.926 83.2305 187.293ZM90.3906 194.688C90.2891 194.688 90.2344 194.816 90.2266 195.074C90.2266 195.332 90.25 195.668 90.2969 196.082C90.3438 196.496 90.3945 196.945 90.4492 197.43C90.5117 197.914 90.5625 198.391 90.6016 198.859C90.6406 199.328 90.6484 199.75 90.625 200.125C90.6016 200.492 90.5234 200.766 90.3906 200.945C90.1641 201.234 89.793 201.465 89.2773 201.637C88.7617 201.809 88.2305 201.895 87.6836 201.895C87.2227 201.895 86.8086 201.82 86.4414 201.672C86.0742 201.523 85.8281 201.281 85.7031 200.945C85.5 200.289 85.3398 199.273 85.2227 197.898C85.1133 196.516 85.0586 195.059 85.0586 193.527C85.0586 192.598 85.082 191.695 85.1289 190.82C85.1758 189.945 85.2461 189.168 85.3398 188.488C85.4336 187.801 85.5547 187.266 85.7031 186.883C85.8672 186.5 86.1367 186.227 86.5117 186.062C86.8867 185.898 87.3164 185.816 87.8008 185.816C88.4102 185.816 89.0352 185.922 89.6758 186.133C90.3242 186.336 90.875 186.586 91.3281 186.883C91.5234 187.016 91.7188 187.207 91.9141 187.457C92.1094 187.699 92.3008 187.98 92.4883 188.301C92.6758 188.621 92.8594 188.961 93.0391 189.32C93.2188 189.68 93.3906 190.039 93.5547 190.398C93.7266 190.758 93.8867 191.102 94.0352 191.43C94.1836 191.758 94.3203 192.051 94.4453 192.309C94.5781 192.559 94.6953 192.758 94.7969 192.906C94.9062 193.055 95 193.129 95.0781 193.129C95.2344 193.129 95.2891 192.859 95.2422 192.32C95.1953 191.781 95.1211 191.141 95.0195 190.398C94.918 189.656 94.8555 188.957 94.832 188.301C94.8164 187.637 94.8984 187.164 95.0781 186.883C95.3125 186.594 95.6875 186.363 96.2031 186.191C96.7188 186.012 97.25 185.922 97.7969 185.922C98.25 185.922 98.6602 186 99.0273 186.156C99.3945 186.305 99.6406 186.547 99.7656 186.883C99.9766 187.539 100.137 188.559 100.246 189.941C100.355 191.316 100.41 192.77 100.41 194.301C100.41 195.23 100.387 196.133 100.34 197.008C100.301 197.883 100.23 198.664 100.129 199.352C100.035 200.031 99.9141 200.562 99.7656 200.945C99.6094 201.32 99.3438 201.59 98.9688 201.754C98.5938 201.918 98.1641 202 97.6797 202C97.0703 202 96.4414 201.898 95.793 201.695C95.1445 201.492 94.5938 201.242 94.1406 200.945C93.75 200.656 93.3633 200.184 92.9805 199.527C92.6055 198.871 92.25 198.172 91.9141 197.43C91.5781 196.688 91.2773 196.047 91.0117 195.508C90.7539 194.961 90.5469 194.688 90.3906 194.688ZM113.934 187.023C114.34 186.789 114.824 186.586 115.387 186.414C115.949 186.242 116.488 186.156 117.004 186.156C117.387 186.156 117.723 186.223 118.012 186.355C118.309 186.488 118.512 186.711 118.621 187.023C118.816 187.648 118.965 188.609 119.066 189.906C119.168 191.203 119.219 192.586 119.219 194.055C119.219 195.516 119.168 196.898 119.066 198.203C118.965 199.5 118.816 200.461 118.621 201.086C118.504 201.414 118.266 201.648 117.906 201.789C117.555 201.93 117.156 202 116.711 202C116.164 202 115.625 201.914 115.094 201.742C114.562 201.57 114.176 201.352 113.934 201.086C113.809 200.922 113.73 200.68 113.699 200.359C113.676 200.031 113.68 199.66 113.711 199.246C113.75 198.832 113.801 198.41 113.863 197.98C113.926 197.551 113.98 197.152 114.027 196.785C114.074 196.41 114.094 196.105 114.086 195.871C114.078 195.629 114.027 195.492 113.934 195.461C113.863 195.445 113.773 195.5 113.664 195.625C113.555 195.742 113.434 195.91 113.301 196.129C113.168 196.348 113.023 196.598 112.867 196.879C112.719 197.152 112.562 197.441 112.398 197.746C112.234 198.043 112.066 198.336 111.895 198.625C111.723 198.906 111.551 199.164 111.379 199.398C111.215 199.625 111.051 199.809 110.887 199.949C110.723 200.082 110.566 200.148 110.418 200.148C110.184 200.148 109.93 199.984 109.656 199.656C109.391 199.328 109.121 198.93 108.848 198.461C108.574 197.984 108.312 197.512 108.062 197.043C107.812 196.574 107.586 196.188 107.383 195.883C107.188 195.578 107.027 195.438 106.902 195.461C106.77 195.523 106.723 195.797 106.762 196.281C106.809 196.758 106.879 197.324 106.973 197.98C107.074 198.637 107.133 199.254 107.148 199.832C107.172 200.41 107.09 200.828 106.902 201.086C106.668 201.352 106.285 201.57 105.754 201.742C105.223 201.914 104.68 202 104.125 202C103.68 202 103.281 201.93 102.93 201.789C102.578 201.648 102.34 201.414 102.215 201.086C102.02 200.461 101.871 199.5 101.77 198.203C101.676 196.898 101.629 195.516 101.629 194.055C101.629 192.586 101.676 191.203 101.77 189.906C101.871 188.609 102.02 187.648 102.215 187.023C102.332 186.711 102.535 186.488 102.824 186.355C103.113 186.223 103.449 186.156 103.832 186.156C104.348 186.156 104.887 186.242 105.449 186.414C106.02 186.586 106.504 186.789 106.902 187.023C107.371 187.312 107.836 187.777 108.297 188.418C108.758 189.051 109.176 189.688 109.551 190.328C109.926 190.961 110.215 191.422 110.418 191.711C110.621 191.422 110.91 190.961 111.285 190.328C111.66 189.688 112.078 189.051 112.539 188.418C113.008 187.777 113.473 187.312 113.934 187.023ZM124.867 198.766C124.664 198.938 124.566 199.223 124.574 199.621C124.59 200.02 124.59 200.41 124.574 200.793C124.559 201.176 124.41 201.438 124.129 201.578C123.887 201.672 123.512 201.766 123.004 201.859C122.504 201.953 121.988 202 121.457 202C121.105 202 120.773 201.969 120.461 201.906C120.156 201.844 119.91 201.738 119.723 201.59C119.535 201.441 119.441 201.234 119.441 200.969C119.441 200.148 119.723 198.766 120.285 196.82C120.855 194.867 121.5 192.945 122.219 191.055C122.945 189.156 123.582 187.773 124.129 186.906C124.355 186.578 124.684 186.336 125.113 186.18C125.543 186.016 125.996 185.934 126.473 185.934C126.949 185.934 127.402 186.016 127.832 186.18C128.262 186.336 128.59 186.578 128.816 186.906C129.363 187.773 129.996 189.156 130.715 191.055C131.441 192.945 132.086 194.867 132.648 196.82C133.219 198.766 133.504 200.148 133.504 200.969C133.504 201.234 133.41 201.441 133.223 201.59C133.035 201.738 132.785 201.844 132.473 201.906C132.168 201.969 131.84 202 131.488 202C130.957 202 130.438 201.953 129.93 201.859C129.43 201.766 129.059 201.672 128.816 201.578C128.535 201.438 128.387 201.176 128.371 200.793C128.355 200.41 128.352 200.02 128.359 199.621C128.375 199.223 128.281 198.938 128.078 198.766C127.844 198.609 127.516 198.508 127.094 198.461C126.68 198.406 126.262 198.406 125.84 198.461C125.426 198.508 125.102 198.609 124.867 198.766ZM126.473 193.938C126.379 193.938 126.258 194.164 126.109 194.617C125.961 195.07 125.898 195.391 125.922 195.578C125.969 195.664 126.07 195.723 126.227 195.754C126.391 195.785 126.551 195.785 126.707 195.754C126.871 195.723 126.977 195.664 127.023 195.578C127.039 195.5 127.027 195.375 126.988 195.203C126.957 195.031 126.91 194.848 126.848 194.652C126.785 194.457 126.719 194.289 126.648 194.148C126.578 194.008 126.52 193.938 126.473 193.938ZM141.648 196.445C141.156 196.461 140.762 196.465 140.465 196.457C140.168 196.449 140.02 196.445 140.02 196.445C140.02 196.445 140.043 196.582 140.09 196.855C140.137 197.121 140.184 197.461 140.23 197.875C140.285 198.281 140.324 198.707 140.348 199.152C140.371 199.59 140.359 199.988 140.312 200.348C140.266 200.707 140.168 200.969 140.02 201.133C139.863 201.281 139.629 201.422 139.316 201.555C139.012 201.688 138.664 201.797 138.273 201.883C137.891 201.961 137.512 202 137.137 202C136.707 202 136.324 201.934 135.988 201.801C135.66 201.668 135.441 201.445 135.332 201.133C135.168 200.633 134.988 199.883 134.793 198.883C134.605 197.883 134.441 196.762 134.301 195.52C134.16 194.27 134.09 193.059 134.09 191.887C134.09 190.754 134.184 189.75 134.371 188.875C134.559 188 134.879 187.398 135.332 187.07C135.785 186.773 136.488 186.527 137.441 186.332C138.402 186.137 139.465 186.039 140.629 186.039C141.629 186.039 142.637 186.133 143.652 186.32C144.676 186.508 145.613 186.82 146.465 187.258C147.316 187.695 148.004 188.285 148.527 189.027C149.059 189.762 149.348 190.672 149.395 191.758V191.863C149.395 192.598 149.223 193.227 148.879 193.75C148.535 194.266 148.086 194.695 147.531 195.039C148.031 195.906 148.453 196.738 148.797 197.535C149.148 198.332 149.348 198.961 149.395 199.422V199.492C149.395 199.906 149.223 200.305 148.879 200.687C148.543 201.07 148.125 201.387 147.625 201.637C147.133 201.879 146.66 202 146.207 202C145.879 202 145.586 201.922 145.328 201.766C145 201.539 144.617 201.148 144.18 200.594C143.75 200.031 143.309 199.383 142.855 198.648C142.41 197.914 142.008 197.18 141.648 196.445ZM140.57 189.988C140.445 190.043 140.379 190.211 140.371 190.492C140.363 190.773 140.398 191.066 140.477 191.371C140.562 191.668 140.676 191.863 140.816 191.957C140.934 192.012 141.109 192.051 141.344 192.074C141.578 192.098 141.824 192.094 142.082 192.062C142.348 192.031 142.578 191.957 142.773 191.84C142.969 191.723 143.078 191.555 143.102 191.336C143.117 191.172 143.074 191.023 142.973 190.891C142.871 190.75 142.734 190.629 142.562 190.527C142.398 190.418 142.215 190.328 142.012 190.258C141.809 190.18 141.609 190.117 141.414 190.07C141.219 190.023 141.043 189.996 140.887 189.988C140.738 189.973 140.633 189.973 140.57 189.988ZM155.887 191.266C156.043 191.266 156.25 191.086 156.508 190.727C156.773 190.359 157.074 189.93 157.41 189.437C157.746 188.945 158.102 188.48 158.477 188.043C158.859 187.598 159.246 187.281 159.637 187.094C160.879 186.617 162.141 186.379 163.422 186.379C163.922 186.379 164.344 186.434 164.688 186.543C165.039 186.652 165.23 186.836 165.262 187.094V187.141C165.262 187.383 165.094 187.703 164.758 188.102C164.43 188.5 164.02 188.949 163.527 189.449C163.043 189.949 162.559 190.473 162.074 191.02C161.59 191.559 161.18 192.098 160.844 192.637C160.508 193.168 160.34 193.664 160.34 194.125C160.34 194.453 160.43 194.805 160.609 195.18C160.789 195.547 161.023 195.926 161.312 196.316C161.609 196.699 161.93 197.082 162.273 197.465C162.625 197.848 162.977 198.223 163.328 198.59C163.68 198.949 164 199.289 164.289 199.609C164.578 199.922 164.812 200.207 164.992 200.465C165.172 200.723 165.262 200.937 165.262 201.109V201.156C165.23 201.414 165.039 201.598 164.688 201.707C164.344 201.816 163.922 201.871 163.422 201.871C162.141 201.871 160.879 201.633 159.637 201.156C159.246 200.969 158.859 200.656 158.477 200.219C158.102 199.773 157.746 199.305 157.41 198.812C157.074 198.32 156.773 197.895 156.508 197.535C156.25 197.176 156.043 196.996 155.887 196.996C155.73 196.996 155.676 197.176 155.723 197.535C155.777 197.895 155.852 198.32 155.945 198.812C156.047 199.305 156.109 199.773 156.133 200.219C156.156 200.656 156.074 200.969 155.887 201.156C155.637 201.367 155.223 201.562 154.645 201.742C154.074 201.914 153.504 202 152.934 202C152.527 202 152.164 201.937 151.844 201.812C151.523 201.68 151.309 201.461 151.199 201.156C151.004 200.531 150.855 199.57 150.754 198.273C150.66 196.969 150.613 195.586 150.613 194.125C150.613 192.656 150.66 191.273 150.754 189.977C150.855 188.68 151.004 187.719 151.199 187.094C151.309 186.789 151.523 186.574 151.844 186.449C152.164 186.316 152.527 186.25 152.934 186.25C153.316 186.25 153.707 186.293 154.105 186.379C154.504 186.465 154.859 186.57 155.172 186.695C155.492 186.82 155.73 186.953 155.887 187.094C156.074 187.281 156.156 187.598 156.133 188.043C156.109 188.48 156.047 188.945 155.945 189.437C155.852 189.93 155.777 190.359 155.723 190.727C155.676 191.086 155.73 191.266 155.887 191.266ZM170.992 196.105C171.43 196.129 172.129 196.09 173.09 195.988C174.059 195.879 175.023 195.812 175.984 195.789C176.945 195.758 177.641 195.863 178.07 196.105C178.383 196.324 178.625 196.676 178.797 197.16C178.977 197.645 179.066 198.148 179.066 198.672C179.066 199.148 178.984 199.586 178.82 199.984C178.664 200.375 178.414 200.645 178.07 200.793C177.664 200.957 177.062 201.133 176.266 201.32C175.469 201.5 174.574 201.66 173.582 201.801C172.59 201.934 171.609 202 170.641 202C169.703 202 168.848 201.91 168.074 201.73C167.301 201.551 166.711 201.238 166.305 200.793C165.82 200.184 165.453 199.246 165.203 197.98C164.961 196.715 164.84 195.371 164.84 193.949C164.84 192.52 164.961 191.172 165.203 189.906C165.453 188.641 165.82 187.707 166.305 187.105C166.711 186.66 167.301 186.348 168.074 186.168C168.855 185.98 169.715 185.887 170.652 185.887C171.613 185.887 172.59 185.957 173.582 186.098C174.574 186.23 175.469 186.391 176.266 186.578C177.062 186.766 177.664 186.941 178.07 187.105C178.414 187.254 178.664 187.527 178.82 187.926C178.984 188.316 179.066 188.746 179.066 189.215C179.066 189.738 178.977 190.246 178.797 190.738C178.625 191.223 178.383 191.574 178.07 191.793C177.641 192.035 176.945 192.141 175.984 192.109C175.023 192.078 174.059 192.012 173.09 191.91C172.129 191.809 171.43 191.77 170.992 191.793C170.914 191.809 170.859 191.875 170.828 191.992C170.805 192.102 170.805 192.215 170.828 192.332C170.859 192.449 170.914 192.52 170.992 192.543C171.281 192.574 171.746 192.559 172.387 192.496C173.027 192.426 173.664 192.379 174.297 192.355C174.938 192.332 175.398 192.395 175.68 192.543C175.945 192.715 176.121 192.992 176.207 193.375C176.293 193.758 176.293 194.141 176.207 194.523C176.121 194.906 175.945 195.184 175.68 195.355C175.398 195.504 174.938 195.566 174.297 195.543C173.664 195.512 173.027 195.465 172.387 195.402C171.746 195.34 171.281 195.324 170.992 195.355C170.914 195.379 170.859 195.449 170.828 195.566C170.805 195.676 170.805 195.789 170.828 195.906C170.859 196.016 170.914 196.082 170.992 196.105ZM185.207 191.148C185.027 190.812 184.727 190.652 184.305 190.668C183.883 190.676 183.418 190.758 182.91 190.914C182.402 191.062 181.93 191.184 181.492 191.277C181.055 191.371 180.73 191.328 180.52 191.148C180.371 190.992 180.23 190.762 180.098 190.457C179.965 190.145 179.855 189.797 179.77 189.414C179.691 189.023 179.652 188.641 179.652 188.266C179.652 187.844 179.719 187.469 179.852 187.141C179.984 186.805 180.207 186.578 180.52 186.461C181.145 186.266 182.105 186.121 183.402 186.027C184.699 185.926 186.082 185.875 187.551 185.875C189.012 185.875 190.391 185.926 191.688 186.027C192.992 186.121 193.957 186.266 194.582 186.461C194.895 186.578 195.117 186.801 195.25 187.129C195.383 187.457 195.449 187.832 195.449 188.254C195.449 188.48 195.434 188.711 195.402 188.945C195.371 189.18 195.328 189.41 195.273 189.637C195.219 189.855 195.152 190.062 195.074 190.258C195.004 190.453 194.926 190.629 194.84 190.785C194.762 190.934 194.676 191.055 194.582 191.148C194.371 191.328 194.047 191.371 193.609 191.277C193.18 191.184 192.711 191.062 192.203 190.914C191.695 190.758 191.227 190.676 190.797 190.668C190.375 190.652 190.074 190.812 189.895 191.148C189.707 191.578 189.633 192.242 189.672 193.141C189.711 194.031 189.785 195 189.895 196.047C190.004 197.086 190.078 198.055 190.117 198.953C190.156 199.844 190.082 200.508 189.895 200.945C189.715 201.297 189.406 201.562 188.969 201.742C188.531 201.914 188.059 202 187.551 202C187.051 202 186.582 201.914 186.145 201.742C185.707 201.562 185.395 201.297 185.207 200.945C185.02 200.508 184.945 199.844 184.984 198.953C185.023 198.055 185.098 197.086 185.207 196.047C185.316 195 185.391 194.031 185.43 193.141C185.469 192.242 185.395 191.578 185.207 191.148ZM195.449 193.773C195.449 192.477 195.695 191.211 196.188 189.977C196.688 188.742 197.469 187.727 198.531 186.93C199.594 186.133 200.965 185.703 202.645 185.641H202.727C203.477 185.641 204.23 185.809 204.988 186.145C205.746 186.473 206.438 186.891 207.062 187.398C207.695 187.898 208.203 188.426 208.586 188.98C208.977 189.535 209.172 190.039 209.172 190.492C209.172 190.578 209.164 190.664 209.148 190.75C209 191.375 208.691 191.855 208.223 192.191C207.762 192.52 207.238 192.699 206.652 192.73C206.066 192.762 205.52 192.637 205.012 192.355C204.73 192.184 204.469 191.945 204.227 191.641C203.984 191.328 203.734 191.047 203.477 190.797C203.227 190.539 202.945 190.402 202.633 190.387C201.992 190.418 201.52 190.777 201.215 191.465C200.918 192.145 200.781 192.93 200.805 193.82C200.82 194.375 200.891 194.914 201.016 195.437C201.141 195.953 201.336 196.383 201.602 196.727C201.867 197.07 202.211 197.246 202.633 197.254C202.945 197.238 203.227 197.105 203.477 196.855C203.734 196.598 203.984 196.316 204.227 196.012C204.469 195.707 204.73 195.465 205.012 195.285C205.52 195.004 206.066 194.879 206.652 194.91C207.238 194.941 207.762 195.125 208.223 195.461C208.691 195.789 209 196.266 209.148 196.891C209.164 196.977 209.172 197.062 209.172 197.148C209.172 197.602 208.977 198.105 208.586 198.66C208.203 199.215 207.695 199.746 207.062 200.254C206.438 200.754 205.746 201.172 204.988 201.508C204.23 201.836 203.477 202 202.727 202H202.645C200.957 201.953 199.582 201.555 198.52 200.805C197.465 200.055 196.688 199.07 196.188 197.852C195.695 196.625 195.449 195.277 195.449 193.809V193.773ZM214.82 198.766C214.617 198.937 214.52 199.223 214.527 199.621C214.543 200.02 214.543 200.41 214.527 200.793C214.512 201.176 214.363 201.437 214.082 201.578C213.84 201.672 213.465 201.766 212.957 201.859C212.457 201.953 211.941 202 211.41 202C211.059 202 210.727 201.969 210.414 201.906C210.109 201.844 209.863 201.738 209.676 201.59C209.488 201.441 209.395 201.234 209.395 200.969C209.395 200.148 209.676 198.766 210.238 196.82C210.809 194.867 211.453 192.945 212.172 191.055C212.898 189.156 213.535 187.773 214.082 186.906C214.309 186.578 214.637 186.336 215.066 186.18C215.496 186.016 215.949 185.934 216.426 185.934C216.902 185.934 217.355 186.016 217.785 186.18C218.215 186.336 218.543 186.578 218.77 186.906C219.316 187.773 219.949 189.156 220.668 191.055C221.395 192.945 222.039 194.867 222.602 196.82C223.172 198.766 223.457 200.148 223.457 200.969C223.457 201.234 223.363 201.441 223.176 201.59C222.988 201.738 222.738 201.844 222.426 201.906C222.121 201.969 221.793 202 221.441 202C220.91 202 220.391 201.953 219.883 201.859C219.383 201.766 219.012 201.672 218.77 201.578C218.488 201.437 218.34 201.176 218.324 200.793C218.309 200.41 218.305 200.02 218.312 199.621C218.328 199.223 218.234 198.937 218.031 198.766C217.797 198.609 217.469 198.508 217.047 198.461C216.633 198.406 216.215 198.406 215.793 198.461C215.379 198.508 215.055 198.609 214.82 198.766ZM216.426 193.937C216.332 193.937 216.211 194.164 216.062 194.617C215.914 195.07 215.852 195.391 215.875 195.578C215.922 195.664 216.023 195.723 216.18 195.754C216.344 195.785 216.504 195.785 216.66 195.754C216.824 195.723 216.93 195.664 216.977 195.578C216.992 195.5 216.98 195.375 216.941 195.203C216.91 195.031 216.863 194.848 216.801 194.652C216.738 194.457 216.672 194.289 216.602 194.148C216.531 194.008 216.473 193.937 216.426 193.937ZM225.285 201.133C225.121 200.633 224.941 199.883 224.746 198.883C224.559 197.883 224.395 196.762 224.254 195.52C224.113 194.27 224.043 193.059 224.043 191.887C224.043 190.754 224.137 189.75 224.324 188.875C224.512 188 224.832 187.398 225.285 187.07C225.738 186.773 226.441 186.527 227.395 186.332C228.355 186.137 229.418 186.039 230.582 186.039C231.582 186.039 232.59 186.133 233.605 186.32C234.629 186.508 235.566 186.82 236.418 187.258C237.27 187.695 237.957 188.285 238.48 189.027C239.012 189.762 239.301 190.672 239.348 191.758V191.863C239.348 192.605 239.176 193.234 238.832 193.75C238.488 194.266 238.039 194.695 237.484 195.039C236.93 195.375 236.32 195.641 235.656 195.836C234.992 196.031 234.324 196.176 233.652 196.27C232.988 196.363 232.379 196.422 231.824 196.445C231.27 196.469 230.82 196.477 230.477 196.469C230.141 196.453 229.973 196.445 229.973 196.445C229.973 196.445 229.996 196.582 230.043 196.855C230.09 197.121 230.137 197.461 230.184 197.875C230.238 198.281 230.277 198.707 230.301 199.152C230.324 199.59 230.312 199.988 230.266 200.348C230.219 200.707 230.121 200.969 229.973 201.133C229.816 201.281 229.582 201.422 229.27 201.555C228.965 201.687 228.617 201.797 228.227 201.883C227.844 201.961 227.465 202 227.09 202C226.66 202 226.277 201.934 225.941 201.801C225.613 201.668 225.395 201.445 225.285 201.133ZM230.523 189.988C230.398 190.043 230.332 190.211 230.324 190.492C230.316 190.773 230.352 191.066 230.43 191.371C230.516 191.668 230.629 191.863 230.77 191.957C230.887 192.012 231.062 192.051 231.297 192.074C231.531 192.098 231.777 192.094 232.035 192.062C232.301 192.031 232.531 191.957 232.727 191.84C232.922 191.723 233.031 191.555 233.055 191.336C233.07 191.172 233.027 191.023 232.926 190.891C232.824 190.75 232.688 190.629 232.516 190.527C232.352 190.418 232.168 190.328 231.965 190.258C231.762 190.18 231.562 190.117 231.367 190.07C231.172 190.023 230.996 189.996 230.84 189.988C230.691 189.973 230.586 189.973 230.523 189.988Z" fill="black"/>
</svg>
