<svg width="286" height="237" viewBox="0 0 286 237" fill="none" xmlns="http://www.w3.org/2000/svg">
<rect x="9" y="15" width="275" height="220" rx="38" fill="black" stroke="black" stroke-width="4"/>
<rect x="2" y="2" width="275" height="220" rx="38" fill="#C3FCF1" stroke="black" stroke-width="4"/>
<path d="M142.619 31.0007C105.099 31.1767 74.8371 61.7155 75.0007 99.2223C75.1767 136.729 105.716 167.004 143.222 166.84C180.729 166.664 211.004 136.125 210.84 98.6186C210.664 61.0992 180.125 30.8371 142.619 31.0007ZM134.015 95.5874C127.311 95.5874 121.865 90.1538 121.865 83.4499C121.865 76.7459 127.299 71.3123 134.015 71.3123C140.719 71.3123 146.153 76.7459 146.153 83.4499C146.153 90.1538 140.719 95.5874 134.015 95.5874ZM143.7 108.719L143.763 108.643L143.826 108.568C147.298 110.806 151.247 111.586 155.196 111.712C159.158 111.813 163.183 111.523 167.158 110.718C171.12 109.901 175.019 108.681 178.78 107.121C180.893 106.253 182.993 105.297 184.993 104.178C185.006 104.165 185.018 104.165 185.031 104.153C186.276 103.398 187.496 102.618 188.691 101.801C188.955 101.612 189.207 101.423 189.446 101.222L189.471 101.26L189.571 101.386C186.515 104.165 182.88 106.228 179.182 108.052C175.447 109.813 171.547 111.259 167.523 112.303C163.51 113.335 159.322 114.127 155.083 113.737C150.907 113.347 146.505 111.888 143.7 108.719ZM174.868 95.5874C174.868 94.1284 176.038 92.9586 177.484 92.946C178.943 92.946 180.113 94.1158 180.125 95.5622C180.125 97.0087 178.956 98.2035 177.509 98.2035C176.063 98.2161 174.868 97.0464 174.868 95.5874ZM154.064 160.74C151.436 142.351 167.485 124.353 176.541 115.146C178.591 113.058 181.773 110.178 184.729 107.121C196.477 96.1408 198.816 83.0096 174.767 76.444C170.214 75.1234 165.485 73.2493 160.705 71.3626C160.554 70.9224 160.378 70.5074 160.19 70.1174C159.636 69.1741 158.68 68.0798 157.221 66.8472C154.09 64.1304 148.228 64.2059 143.159 65.4008C137.55 64.0801 132.028 63.6147 126.708 64.8851C103.452 71.2872 99.7159 82.6323 98.8103 96.3043C97.5777 111.071 96.8608 122.076 91.2637 134.654C84.283 124.579 80.1701 112.379 80.1198 99.1972C79.9689 64.5203 107.954 36.2707 142.644 36.1198C177.333 35.9689 205.57 63.9543 205.734 98.6438C205.86 129.623 183.547 155.47 154.064 160.74Z" fill="black"/>
<path d="M142.557 83.5618C142.557 88.2784 138.734 92.1021 134.017 92.1021C129.3 92.1021 125.477 88.2784 125.477 83.5618C125.477 78.8451 129.3 75.0215 134.017 75.0215C138.734 75.0215 142.557 78.8451 142.557 83.5618Z" fill="black"/>
<path d="M79.375 193.773C79.375 192.477 79.6211 191.211 80.1133 189.977C80.6133 188.742 81.3945 187.727 82.457 186.93C83.5195 186.133 84.8906 185.703 86.5703 185.641H86.6523C87.4023 185.641 88.1562 185.809 88.9141 186.145C89.6719 186.473 90.3633 186.891 90.9883 187.398C91.6211 187.898 92.1289 188.426 92.5117 188.98C92.9023 189.535 93.0977 190.039 93.0977 190.492C93.0977 190.578 93.0898 190.664 93.0742 190.75C92.9258 191.375 92.6172 191.855 92.1484 192.191C91.6875 192.52 91.1641 192.699 90.5781 192.73C89.9922 192.762 89.4453 192.637 88.9375 192.355C88.6562 192.184 88.3945 191.945 88.1523 191.641C87.9102 191.328 87.6602 191.047 87.4023 190.797C87.1523 190.539 86.8711 190.402 86.5586 190.387C85.918 190.418 85.4453 190.777 85.1406 191.465C84.8438 192.145 84.707 192.93 84.7305 193.82C84.7461 194.375 84.8164 194.914 84.9414 195.438C85.0664 195.953 85.2617 196.383 85.5273 196.727C85.793 197.07 86.1367 197.246 86.5586 197.254C86.8711 197.238 87.1523 197.105 87.4023 196.855C87.6602 196.598 87.9102 196.316 88.1523 196.012C88.3945 195.707 88.6562 195.465 88.9375 195.285C89.4453 195.004 89.9922 194.879 90.5781 194.91C91.1641 194.941 91.6875 195.125 92.1484 195.461C92.6172 195.789 92.9258 196.266 93.0742 196.891C93.0898 196.977 93.0977 197.062 93.0977 197.148C93.0977 197.602 92.9023 198.105 92.5117 198.66C92.1289 199.215 91.6211 199.746 90.9883 200.254C90.3633 200.754 89.6719 201.172 88.9141 201.508C88.1562 201.836 87.4023 202 86.6523 202H86.5703C84.8828 201.953 83.5078 201.555 82.4453 200.805C81.3906 200.055 80.6133 199.07 80.1133 197.852C79.6211 196.625 79.375 195.277 79.375 193.809V193.773ZM96.1094 188.559C97.0234 187.652 97.957 187.012 98.9102 186.637C99.8711 186.254 100.805 186.062 101.711 186.062C102.688 186.062 103.602 186.223 104.453 186.543C105.305 186.863 106.031 187.25 106.633 187.703C107.242 188.156 107.68 188.594 107.945 189.016C108.414 189.773 108.758 190.539 108.977 191.312C109.195 192.086 109.305 192.859 109.305 193.633C109.305 194.555 109.172 195.465 108.906 196.363C108.648 197.262 108.301 198.137 107.863 198.988C107.34 199.941 106.508 200.684 105.367 201.215C104.227 201.738 102.996 202 101.676 202C100.809 202 99.9531 201.879 99.1094 201.637C98.2734 201.387 97.5117 201 96.8242 200.477C95.8867 199.742 95.1797 198.812 94.7031 197.688C94.2344 196.555 94 195.379 94 194.16C94 193.113 94.1719 192.102 94.5156 191.125C94.8672 190.148 95.3984 189.293 96.1094 188.559ZM99.7539 192.355C99.2305 192.91 98.9922 193.582 99.0391 194.371C99.0859 195.152 99.4023 195.781 99.9883 196.258C100.621 196.68 101.32 196.836 102.086 196.727C102.859 196.617 103.406 196.297 103.727 195.766C104.008 195.25 104.168 194.715 104.207 194.16C104.246 193.598 104.094 193.047 103.75 192.508C103.602 192.266 103.312 192.039 102.883 191.828C102.461 191.609 101.969 191.516 101.406 191.547C100.852 191.578 100.301 191.848 99.7539 192.355ZM115.539 187.293C115.734 187.895 115.883 188.824 115.984 190.082C116.086 191.34 116.137 192.676 116.137 194.09C116.137 195.512 116.086 196.852 115.984 198.109C115.883 199.359 115.734 200.285 115.539 200.887C115.398 201.262 115.102 201.543 114.648 201.73C114.203 201.91 113.719 202 113.195 202C112.672 202 112.184 201.91 111.73 201.73C111.285 201.543 110.992 201.262 110.852 200.887C110.727 200.496 110.617 199.953 110.523 199.258C110.438 198.555 110.371 197.754 110.324 196.855C110.285 195.957 110.266 195.035 110.266 194.09C110.266 193.152 110.285 192.234 110.324 191.336C110.371 190.438 110.438 189.637 110.523 188.934C110.617 188.23 110.727 187.684 110.852 187.293C110.992 186.926 111.285 186.648 111.73 186.461C112.184 186.273 112.672 186.18 113.195 186.18C113.719 186.18 114.203 186.273 114.648 186.461C115.102 186.648 115.398 186.926 115.539 187.293ZM122.699 194.688C122.598 194.688 122.543 194.816 122.535 195.074C122.535 195.332 122.559 195.668 122.605 196.082C122.652 196.496 122.703 196.945 122.758 197.43C122.82 197.914 122.871 198.391 122.91 198.859C122.949 199.328 122.957 199.75 122.934 200.125C122.91 200.492 122.832 200.766 122.699 200.945C122.473 201.234 122.102 201.465 121.586 201.637C121.07 201.809 120.539 201.895 119.992 201.895C119.531 201.895 119.117 201.82 118.75 201.672C118.383 201.523 118.137 201.281 118.012 200.945C117.809 200.289 117.648 199.273 117.531 197.898C117.422 196.516 117.367 195.059 117.367 193.527C117.367 192.598 117.391 191.695 117.438 190.82C117.484 189.945 117.555 189.168 117.648 188.488C117.742 187.801 117.863 187.266 118.012 186.883C118.176 186.5 118.445 186.227 118.82 186.062C119.195 185.898 119.625 185.816 120.109 185.816C120.719 185.816 121.344 185.922 121.984 186.133C122.633 186.336 123.184 186.586 123.637 186.883C123.832 187.016 124.027 187.207 124.223 187.457C124.418 187.699 124.609 187.98 124.797 188.301C124.984 188.621 125.168 188.961 125.348 189.32C125.527 189.68 125.699 190.039 125.863 190.398C126.035 190.758 126.195 191.102 126.344 191.43C126.492 191.758 126.629 192.051 126.754 192.309C126.887 192.559 127.004 192.758 127.105 192.906C127.215 193.055 127.309 193.129 127.387 193.129C127.543 193.129 127.598 192.859 127.551 192.32C127.504 191.781 127.43 191.141 127.328 190.398C127.227 189.656 127.164 188.957 127.141 188.301C127.125 187.637 127.207 187.164 127.387 186.883C127.621 186.594 127.996 186.363 128.512 186.191C129.027 186.012 129.559 185.922 130.105 185.922C130.559 185.922 130.969 186 131.336 186.156C131.703 186.305 131.949 186.547 132.074 186.883C132.285 187.539 132.445 188.559 132.555 189.941C132.664 191.316 132.719 192.77 132.719 194.301C132.719 195.23 132.695 196.133 132.648 197.008C132.609 197.883 132.539 198.664 132.438 199.352C132.344 200.031 132.223 200.562 132.074 200.945C131.918 201.32 131.652 201.59 131.277 201.754C130.902 201.918 130.473 202 129.988 202C129.379 202 128.75 201.898 128.102 201.695C127.453 201.492 126.902 201.242 126.449 200.945C126.059 200.656 125.672 200.184 125.289 199.527C124.914 198.871 124.559 198.172 124.223 197.43C123.887 196.688 123.586 196.047 123.32 195.508C123.062 194.961 122.855 194.688 122.699 194.688ZM147.684 195.168C147.645 195.832 147.438 196.621 147.062 197.535C146.695 198.449 146.16 199.301 145.457 200.09C144.762 200.879 143.906 201.414 142.891 201.695C142.047 201.898 141.25 202 140.5 202C138.688 202 137.195 201.453 136.023 200.359C134.852 199.258 134.109 197.727 133.797 195.766C133.672 195 133.609 194.223 133.609 193.434C133.609 192.363 133.762 191.324 134.066 190.316C134.371 189.301 134.895 188.406 135.637 187.633C136.379 186.852 137.395 186.27 138.684 185.887C139.145 185.762 139.621 185.699 140.113 185.699C141.066 185.699 142.012 185.883 142.949 186.25C143.895 186.609 144.676 187.051 145.293 187.574C145.918 188.098 146.254 188.621 146.301 189.145C146.316 189.785 146.141 190.328 145.773 190.773C145.414 191.211 144.953 191.523 144.391 191.711C143.828 191.891 143.266 191.91 142.703 191.77C142.391 191.668 142.078 191.5 141.766 191.266C141.453 191.031 141.141 190.828 140.828 190.656C140.516 190.477 140.207 190.418 139.902 190.48C139.309 190.668 138.949 191.105 138.824 191.793C138.699 192.48 138.652 193.238 138.684 194.066C138.691 194.902 138.855 195.609 139.176 196.188C139.504 196.766 140.027 197.074 140.746 197.113C140.816 197.113 140.906 197.102 141.016 197.078C141.125 197.055 141.242 197.02 141.367 196.973C141.492 196.926 141.617 196.871 141.742 196.809C141.867 196.746 141.984 196.68 142.094 196.609C142.211 196.531 142.312 196.457 142.398 196.387C142.484 196.309 142.547 196.23 142.586 196.152C142 196.09 141.57 195.996 141.297 195.871C141.008 195.715 140.816 195.438 140.723 195.039C140.629 194.641 140.629 194.242 140.723 193.844C140.816 193.445 141.008 193.168 141.297 193.012C141.664 192.855 142.18 192.773 142.844 192.766C143.508 192.758 144.176 192.793 144.848 192.871C145.52 192.941 146.051 193.023 146.441 193.117C146.809 193.219 147.078 193.41 147.25 193.691C147.43 193.973 147.547 194.258 147.602 194.547C147.656 194.836 147.684 195.031 147.684 195.133V195.168ZM154.762 196.105C155.199 196.129 155.898 196.09 156.859 195.988C157.828 195.879 158.793 195.812 159.754 195.789C160.715 195.758 161.41 195.863 161.84 196.105C162.152 196.324 162.395 196.676 162.566 197.16C162.746 197.645 162.836 198.148 162.836 198.672C162.836 199.148 162.754 199.586 162.59 199.984C162.434 200.375 162.184 200.645 161.84 200.793C161.434 200.957 160.832 201.133 160.035 201.32C159.238 201.5 158.344 201.66 157.352 201.801C156.359 201.934 155.379 202 154.41 202C153.473 202 152.617 201.91 151.844 201.73C151.07 201.551 150.48 201.238 150.074 200.793C149.59 200.184 149.223 199.246 148.973 197.98C148.73 196.715 148.609 195.371 148.609 193.949C148.609 192.52 148.73 191.172 148.973 189.906C149.223 188.641 149.59 187.707 150.074 187.105C150.48 186.66 151.07 186.348 151.844 186.168C152.625 185.98 153.484 185.887 154.422 185.887C155.383 185.887 156.359 185.957 157.352 186.098C158.344 186.23 159.238 186.391 160.035 186.578C160.832 186.766 161.434 186.941 161.84 187.105C162.184 187.254 162.434 187.527 162.59 187.926C162.754 188.316 162.836 188.746 162.836 189.215C162.836 189.738 162.746 190.246 162.566 190.738C162.395 191.223 162.152 191.574 161.84 191.793C161.41 192.035 160.715 192.141 159.754 192.109C158.793 192.078 157.828 192.012 156.859 191.91C155.898 191.809 155.199 191.77 154.762 191.793C154.684 191.809 154.629 191.875 154.598 191.992C154.574 192.102 154.574 192.215 154.598 192.332C154.629 192.449 154.684 192.52 154.762 192.543C155.051 192.574 155.516 192.559 156.156 192.496C156.797 192.426 157.434 192.379 158.066 192.355C158.707 192.332 159.168 192.395 159.449 192.543C159.715 192.715 159.891 192.992 159.977 193.375C160.062 193.758 160.062 194.141 159.977 194.523C159.891 194.906 159.715 195.184 159.449 195.355C159.168 195.504 158.707 195.566 158.066 195.543C157.434 195.512 156.797 195.465 156.156 195.402C155.516 195.34 155.051 195.324 154.762 195.355C154.684 195.379 154.629 195.449 154.598 195.566C154.574 195.676 154.574 195.789 154.598 195.906C154.629 196.016 154.684 196.082 154.762 196.105ZM163.422 193.773C163.422 192.477 163.668 191.211 164.16 189.977C164.66 188.742 165.441 187.727 166.504 186.93C167.566 186.133 168.938 185.703 170.617 185.641H170.699C171.449 185.641 172.203 185.809 172.961 186.145C173.719 186.473 174.41 186.891 175.035 187.398C175.668 187.898 176.176 188.426 176.559 188.98C176.949 189.535 177.145 190.039 177.145 190.492C177.145 190.578 177.137 190.664 177.121 190.75C176.973 191.375 176.664 191.855 176.195 192.191C175.734 192.52 175.211 192.699 174.625 192.73C174.039 192.762 173.492 192.637 172.984 192.355C172.703 192.184 172.441 191.945 172.199 191.641C171.957 191.328 171.707 191.047 171.449 190.797C171.199 190.539 170.918 190.402 170.605 190.387C169.965 190.418 169.492 190.777 169.188 191.465C168.891 192.145 168.754 192.93 168.777 193.82C168.793 194.375 168.863 194.914 168.988 195.438C169.113 195.953 169.309 196.383 169.574 196.727C169.84 197.07 170.184 197.246 170.605 197.254C170.918 197.238 171.199 197.105 171.449 196.855C171.707 196.598 171.957 196.316 172.199 196.012C172.441 195.707 172.703 195.465 172.984 195.285C173.492 195.004 174.039 194.879 174.625 194.91C175.211 194.941 175.734 195.125 176.195 195.461C176.664 195.789 176.973 196.266 177.121 196.891C177.137 196.977 177.145 197.062 177.145 197.148C177.145 197.602 176.949 198.105 176.559 198.66C176.176 199.215 175.668 199.746 175.035 200.254C174.41 200.754 173.719 201.172 172.961 201.508C172.203 201.836 171.449 202 170.699 202H170.617C168.93 201.953 167.555 201.555 166.492 200.805C165.438 200.055 164.66 199.07 164.16 197.852C163.668 196.625 163.422 195.277 163.422 193.809V193.773ZM183.648 191.266C183.805 191.266 184.012 191.086 184.27 190.727C184.535 190.359 184.836 189.93 185.172 189.437C185.508 188.945 185.863 188.48 186.238 188.043C186.621 187.598 187.008 187.281 187.398 187.094C188.641 186.617 189.902 186.379 191.184 186.379C191.684 186.379 192.105 186.434 192.449 186.543C192.801 186.652 192.992 186.836 193.023 187.094V187.141C193.023 187.383 192.855 187.703 192.52 188.102C192.191 188.5 191.781 188.949 191.289 189.449C190.805 189.949 190.32 190.473 189.836 191.02C189.352 191.559 188.941 192.098 188.605 192.637C188.27 193.168 188.102 193.664 188.102 194.125C188.102 194.453 188.191 194.805 188.371 195.18C188.551 195.547 188.785 195.926 189.074 196.316C189.371 196.699 189.691 197.082 190.035 197.465C190.387 197.848 190.738 198.223 191.09 198.59C191.441 198.949 191.762 199.289 192.051 199.609C192.34 199.922 192.574 200.207 192.754 200.465C192.934 200.723 193.023 200.937 193.023 201.109V201.156C192.992 201.414 192.801 201.598 192.449 201.707C192.105 201.816 191.684 201.871 191.184 201.871C189.902 201.871 188.641 201.633 187.398 201.156C187.008 200.969 186.621 200.656 186.238 200.219C185.863 199.773 185.508 199.305 185.172 198.812C184.836 198.32 184.535 197.895 184.27 197.535C184.012 197.176 183.805 196.996 183.648 196.996C183.492 196.996 183.438 197.176 183.484 197.535C183.539 197.895 183.613 198.32 183.707 198.812C183.809 199.305 183.871 199.773 183.895 200.219C183.918 200.656 183.836 200.969 183.648 201.156C183.398 201.367 182.984 201.562 182.406 201.742C181.836 201.914 181.266 202 180.695 202C180.289 202 179.926 201.937 179.605 201.812C179.285 201.68 179.07 201.461 178.961 201.156C178.766 200.531 178.617 199.57 178.516 198.273C178.422 196.969 178.375 195.586 178.375 194.125C178.375 192.656 178.422 191.273 178.516 189.977C178.617 188.68 178.766 187.719 178.961 187.094C179.07 186.789 179.285 186.574 179.605 186.449C179.926 186.316 180.289 186.25 180.695 186.25C181.078 186.25 181.469 186.293 181.867 186.379C182.266 186.465 182.621 186.57 182.934 186.695C183.254 186.82 183.492 186.953 183.648 187.094C183.836 187.281 183.918 187.598 183.895 188.043C183.871 188.48 183.809 188.945 183.707 189.437C183.613 189.93 183.539 190.359 183.484 190.727C183.438 191.086 183.492 191.266 183.648 191.266ZM193.844 188.559C194.758 187.652 195.691 187.012 196.645 186.637C197.605 186.254 198.539 186.062 199.445 186.062C200.422 186.062 201.336 186.223 202.188 186.543C203.039 186.863 203.766 187.25 204.367 187.703C204.977 188.156 205.414 188.594 205.68 189.016C206.148 189.773 206.492 190.539 206.711 191.312C206.93 192.086 207.039 192.859 207.039 193.633C207.039 194.555 206.906 195.465 206.641 196.363C206.383 197.262 206.035 198.137 205.598 198.988C205.074 199.941 204.242 200.684 203.102 201.215C201.961 201.738 200.73 202 199.41 202C198.543 202 197.688 201.879 196.844 201.637C196.008 201.387 195.246 201 194.559 200.477C193.621 199.742 192.914 198.812 192.438 197.687C191.969 196.555 191.734 195.379 191.734 194.16C191.734 193.113 191.906 192.102 192.25 191.125C192.602 190.148 193.133 189.293 193.844 188.559ZM197.488 192.355C196.965 192.91 196.727 193.582 196.773 194.371C196.82 195.152 197.137 195.781 197.723 196.258C198.355 196.68 199.055 196.836 199.82 196.727C200.594 196.617 201.141 196.297 201.461 195.766C201.742 195.25 201.902 194.715 201.941 194.16C201.98 193.598 201.828 193.047 201.484 192.508C201.336 192.266 201.047 192.039 200.617 191.828C200.195 191.609 199.703 191.516 199.141 191.547C198.586 191.578 198.035 191.848 197.488 192.355Z" fill="black"/>
</svg>
