<svg width="286" height="237" viewBox="0 0 286 237" fill="none" xmlns="http://www.w3.org/2000/svg">
<rect x="9" y="15" width="275" height="220" rx="38" fill="black" stroke="black" stroke-width="4"/>
<rect x="2" y="2" width="275" height="220" rx="38" fill="#C3FCF1" stroke="black" stroke-width="4"/>
<path d="M64.3906 193.773C64.3906 192.477 64.6367 191.211 65.1289 189.977C65.6289 188.742 66.4102 187.727 67.4727 186.93C68.5352 186.133 69.9062 185.703 71.5859 185.641H71.668C72.418 185.641 73.1719 185.809 73.9297 186.145C74.6875 186.473 75.3789 186.891 76.0039 187.398C76.6367 187.898 77.1445 188.426 77.5273 188.98C77.918 189.535 78.1133 190.039 78.1133 190.492C78.1133 190.578 78.1055 190.664 78.0898 190.75C77.9414 191.375 77.6328 191.855 77.1641 192.191C76.7031 192.52 76.1797 192.699 75.5938 192.73C75.0078 192.762 74.4609 192.637 73.9531 192.355C73.6719 192.184 73.4102 191.945 73.168 191.641C72.9258 191.328 72.6758 191.047 72.418 190.797C72.168 190.539 71.8867 190.402 71.5742 190.387C70.9336 190.418 70.4609 190.777 70.1562 191.465C69.8594 192.145 69.7227 192.93 69.7461 193.82C69.7617 194.375 69.832 194.914 69.957 195.438C70.082 195.953 70.2773 196.383 70.543 196.727C70.8086 197.07 71.1523 197.246 71.5742 197.254C71.8867 197.238 72.168 197.105 72.418 196.855C72.6758 196.598 72.9258 196.316 73.168 196.012C73.4102 195.707 73.6719 195.465 73.9531 195.285C74.4609 195.004 75.0078 194.879 75.5938 194.91C76.1797 194.941 76.7031 195.125 77.1641 195.461C77.6328 195.789 77.9414 196.266 78.0898 196.891C78.1055 196.977 78.1133 197.062 78.1133 197.148C78.1133 197.602 77.918 198.105 77.5273 198.66C77.1445 199.215 76.6367 199.746 76.0039 200.254C75.3789 200.754 74.6875 201.172 73.9297 201.508C73.1719 201.836 72.418 202 71.668 202H71.5859C69.8984 201.953 68.5234 201.555 67.4609 200.805C66.4062 200.055 65.6289 199.07 65.1289 197.852C64.6367 196.625 64.3906 195.277 64.3906 193.809V193.773ZM81.125 188.559C82.0391 187.652 82.9727 187.012 83.9258 186.637C84.8867 186.254 85.8203 186.062 86.7266 186.062C87.7031 186.062 88.6172 186.223 89.4688 186.543C90.3203 186.863 91.0469 187.25 91.6484 187.703C92.2578 188.156 92.6953 188.594 92.9609 189.016C93.4297 189.773 93.7734 190.539 93.9922 191.312C94.2109 192.086 94.3203 192.859 94.3203 193.633C94.3203 194.555 94.1875 195.465 93.9219 196.363C93.6641 197.262 93.3164 198.137 92.8789 198.988C92.3555 199.941 91.5234 200.684 90.3828 201.215C89.2422 201.738 88.0117 202 86.6914 202C85.8242 202 84.9688 201.879 84.125 201.637C83.2891 201.387 82.5273 201 81.8398 200.477C80.9023 199.742 80.1953 198.812 79.7188 197.688C79.25 196.555 79.0156 195.379 79.0156 194.16C79.0156 193.113 79.1875 192.102 79.5312 191.125C79.8828 190.148 80.4141 189.293 81.125 188.559ZM84.7695 192.355C84.2461 192.91 84.0078 193.582 84.0547 194.371C84.1016 195.152 84.418 195.781 85.0039 196.258C85.6367 196.68 86.3359 196.836 87.1016 196.727C87.875 196.617 88.4219 196.297 88.7422 195.766C89.0234 195.25 89.1836 194.715 89.2227 194.16C89.2617 193.598 89.1094 193.047 88.7656 192.508C88.6172 192.266 88.3281 192.039 87.8984 191.828C87.4766 191.609 86.9844 191.516 86.4219 191.547C85.8672 191.578 85.3164 191.848 84.7695 192.355ZM107.586 187.023C107.992 186.789 108.477 186.586 109.039 186.414C109.602 186.242 110.141 186.156 110.656 186.156C111.039 186.156 111.375 186.223 111.664 186.355C111.961 186.488 112.164 186.711 112.273 187.023C112.469 187.648 112.617 188.609 112.719 189.906C112.82 191.203 112.871 192.586 112.871 194.055C112.871 195.516 112.82 196.898 112.719 198.203C112.617 199.5 112.469 200.461 112.273 201.086C112.156 201.414 111.918 201.648 111.559 201.789C111.207 201.93 110.809 202 110.363 202C109.816 202 109.277 201.914 108.746 201.742C108.215 201.57 107.828 201.352 107.586 201.086C107.461 200.922 107.383 200.68 107.352 200.359C107.328 200.031 107.332 199.66 107.363 199.246C107.402 198.832 107.453 198.41 107.516 197.98C107.578 197.551 107.633 197.152 107.68 196.785C107.727 196.41 107.746 196.105 107.738 195.871C107.73 195.629 107.68 195.492 107.586 195.461C107.516 195.445 107.426 195.5 107.316 195.625C107.207 195.742 107.086 195.91 106.953 196.129C106.82 196.348 106.676 196.598 106.52 196.879C106.371 197.152 106.215 197.441 106.051 197.746C105.887 198.043 105.719 198.336 105.547 198.625C105.375 198.906 105.203 199.164 105.031 199.398C104.867 199.625 104.703 199.809 104.539 199.949C104.375 200.082 104.219 200.148 104.07 200.148C103.836 200.148 103.582 199.984 103.309 199.656C103.043 199.328 102.773 198.93 102.5 198.461C102.227 197.984 101.965 197.512 101.715 197.043C101.465 196.574 101.238 196.188 101.035 195.883C100.84 195.578 100.68 195.438 100.555 195.461C100.422 195.523 100.375 195.797 100.414 196.281C100.461 196.758 100.531 197.324 100.625 197.98C100.727 198.637 100.785 199.254 100.801 199.832C100.824 200.41 100.742 200.828 100.555 201.086C100.32 201.352 99.9375 201.57 99.4062 201.742C98.875 201.914 98.332 202 97.7773 202C97.332 202 96.9336 201.93 96.582 201.789C96.2305 201.648 95.9922 201.414 95.8672 201.086C95.6719 200.461 95.5234 199.5 95.4219 198.203C95.3281 196.898 95.2812 195.516 95.2812 194.055C95.2812 192.586 95.3281 191.203 95.4219 189.906C95.5234 188.609 95.6719 187.648 95.8672 187.023C95.9844 186.711 96.1875 186.488 96.4766 186.355C96.7656 186.223 97.1016 186.156 97.4844 186.156C98 186.156 98.5391 186.242 99.1016 186.414C99.6719 186.586 100.156 186.789 100.555 187.023C101.023 187.312 101.488 187.777 101.949 188.418C102.41 189.051 102.828 189.688 103.203 190.328C103.578 190.961 103.867 191.422 104.07 191.711C104.273 191.422 104.562 190.961 104.938 190.328C105.312 189.688 105.73 189.051 106.191 188.418C106.66 187.777 107.125 187.312 107.586 187.023ZM119.375 187.293C119.57 187.895 119.719 188.824 119.82 190.082C119.922 191.34 119.973 192.676 119.973 194.09C119.973 195.512 119.922 196.852 119.82 198.109C119.719 199.359 119.57 200.285 119.375 200.887C119.234 201.262 118.938 201.543 118.484 201.73C118.039 201.91 117.555 202 117.031 202C116.508 202 116.02 201.91 115.566 201.73C115.121 201.543 114.828 201.262 114.688 200.887C114.562 200.496 114.453 199.953 114.359 199.258C114.273 198.555 114.207 197.754 114.16 196.855C114.121 195.957 114.102 195.035 114.102 194.09C114.102 193.152 114.121 192.234 114.16 191.336C114.207 190.438 114.273 189.637 114.359 188.934C114.453 188.23 114.562 187.684 114.688 187.293C114.828 186.926 115.121 186.648 115.566 186.461C116.02 186.273 116.508 186.18 117.031 186.18C117.555 186.18 118.039 186.273 118.484 186.461C118.938 186.648 119.234 186.926 119.375 187.293ZM126.535 194.688C126.434 194.688 126.379 194.816 126.371 195.074C126.371 195.332 126.395 195.668 126.441 196.082C126.488 196.496 126.539 196.945 126.594 197.43C126.656 197.914 126.707 198.391 126.746 198.859C126.785 199.328 126.793 199.75 126.77 200.125C126.746 200.492 126.668 200.766 126.535 200.945C126.309 201.234 125.938 201.465 125.422 201.637C124.906 201.809 124.375 201.895 123.828 201.895C123.367 201.895 122.953 201.82 122.586 201.672C122.219 201.523 121.973 201.281 121.848 200.945C121.645 200.289 121.484 199.273 121.367 197.898C121.258 196.516 121.203 195.059 121.203 193.527C121.203 192.598 121.227 191.695 121.273 190.82C121.32 189.945 121.391 189.168 121.484 188.488C121.578 187.801 121.699 187.266 121.848 186.883C122.012 186.5 122.281 186.227 122.656 186.062C123.031 185.898 123.461 185.816 123.945 185.816C124.555 185.816 125.18 185.922 125.82 186.133C126.469 186.336 127.02 186.586 127.473 186.883C127.668 187.016 127.863 187.207 128.059 187.457C128.254 187.699 128.445 187.98 128.633 188.301C128.82 188.621 129.004 188.961 129.184 189.32C129.363 189.68 129.535 190.039 129.699 190.398C129.871 190.758 130.031 191.102 130.18 191.43C130.328 191.758 130.465 192.051 130.59 192.309C130.723 192.559 130.84 192.758 130.941 192.906C131.051 193.055 131.145 193.129 131.223 193.129C131.379 193.129 131.434 192.859 131.387 192.32C131.34 191.781 131.266 191.141 131.164 190.398C131.062 189.656 131 188.957 130.977 188.301C130.961 187.637 131.043 187.164 131.223 186.883C131.457 186.594 131.832 186.363 132.348 186.191C132.863 186.012 133.395 185.922 133.941 185.922C134.395 185.922 134.805 186 135.172 186.156C135.539 186.305 135.785 186.547 135.91 186.883C136.121 187.539 136.281 188.559 136.391 189.941C136.5 191.316 136.555 192.77 136.555 194.301C136.555 195.23 136.531 196.133 136.484 197.008C136.445 197.883 136.375 198.664 136.273 199.352C136.18 200.031 136.059 200.562 135.91 200.945C135.754 201.32 135.488 201.59 135.113 201.754C134.738 201.918 134.309 202 133.824 202C133.215 202 132.586 201.898 131.938 201.695C131.289 201.492 130.738 201.242 130.285 200.945C129.895 200.656 129.508 200.184 129.125 199.527C128.75 198.871 128.395 198.172 128.059 197.43C127.723 196.688 127.422 196.047 127.156 195.508C126.898 194.961 126.691 194.688 126.535 194.688ZM151.52 195.168C151.48 195.832 151.273 196.621 150.898 197.535C150.531 198.449 149.996 199.301 149.293 200.09C148.598 200.879 147.742 201.414 146.727 201.695C145.883 201.898 145.086 202 144.336 202C142.523 202 141.031 201.453 139.859 200.359C138.688 199.258 137.945 197.727 137.633 195.766C137.508 195 137.445 194.223 137.445 193.434C137.445 192.363 137.598 191.324 137.902 190.316C138.207 189.301 138.73 188.406 139.473 187.633C140.215 186.852 141.23 186.27 142.52 185.887C142.98 185.762 143.457 185.699 143.949 185.699C144.902 185.699 145.848 185.883 146.785 186.25C147.73 186.609 148.512 187.051 149.129 187.574C149.754 188.098 150.09 188.621 150.137 189.145C150.152 189.785 149.977 190.328 149.609 190.773C149.25 191.211 148.789 191.523 148.227 191.711C147.664 191.891 147.102 191.91 146.539 191.77C146.227 191.668 145.914 191.5 145.602 191.266C145.289 191.031 144.977 190.828 144.664 190.656C144.352 190.477 144.043 190.418 143.738 190.48C143.145 190.668 142.785 191.105 142.66 191.793C142.535 192.48 142.488 193.238 142.52 194.066C142.527 194.902 142.691 195.609 143.012 196.188C143.34 196.766 143.863 197.074 144.582 197.113C144.652 197.113 144.742 197.102 144.852 197.078C144.961 197.055 145.078 197.02 145.203 196.973C145.328 196.926 145.453 196.871 145.578 196.809C145.703 196.746 145.82 196.68 145.93 196.609C146.047 196.531 146.148 196.457 146.234 196.387C146.32 196.309 146.383 196.23 146.422 196.152C145.836 196.09 145.406 195.996 145.133 195.871C144.844 195.715 144.652 195.438 144.559 195.039C144.465 194.641 144.465 194.242 144.559 193.844C144.652 193.445 144.844 193.168 145.133 193.012C145.5 192.855 146.016 192.773 146.68 192.766C147.344 192.758 148.012 192.793 148.684 192.871C149.355 192.941 149.887 193.023 150.277 193.117C150.645 193.219 150.914 193.41 151.086 193.691C151.266 193.973 151.383 194.258 151.438 194.547C151.492 194.836 151.52 195.031 151.52 195.133V195.168ZM171.629 191.383C171.348 191.57 170.891 191.66 170.258 191.652C169.633 191.645 168.965 191.598 168.254 191.512C167.543 191.418 166.926 191.348 166.402 191.301C165.879 191.254 165.59 191.281 165.535 191.383C165.52 191.43 165.539 191.484 165.594 191.547C165.656 191.602 165.746 191.664 165.863 191.734C165.988 191.805 166.133 191.883 166.297 191.969C166.469 192.047 166.656 192.129 166.859 192.215C167.07 192.301 167.289 192.395 167.516 192.496C167.742 192.59 167.973 192.691 168.207 192.801C168.449 192.902 168.688 193.008 168.922 193.117C169.156 193.227 169.383 193.34 169.602 193.457C169.82 193.566 170.023 193.68 170.211 193.797C170.406 193.914 170.582 194.031 170.738 194.148C171.301 194.586 171.758 195.09 172.109 195.66C172.461 196.223 172.637 196.871 172.637 197.605C172.637 198.027 172.562 198.488 172.414 198.988C172.273 199.48 172.043 200.008 171.723 200.57C171.379 201.102 170.688 201.473 169.648 201.684C168.617 201.895 167.469 202 166.203 202C164.828 202 163.5 201.918 162.219 201.754C160.945 201.59 160.02 201.414 159.441 201.227C159.105 201.109 158.863 200.867 158.715 200.5C158.566 200.133 158.492 199.723 158.492 199.27C158.492 198.723 158.578 198.191 158.75 197.676C158.93 197.152 159.16 196.773 159.441 196.539C159.535 196.469 159.656 196.414 159.805 196.375C159.961 196.336 160.137 196.312 160.332 196.305C160.527 196.289 160.738 196.285 160.965 196.293C161.199 196.301 161.441 196.316 161.691 196.34C161.941 196.355 162.191 196.379 162.441 196.41C162.699 196.434 162.953 196.461 163.203 196.492C163.453 196.523 163.691 196.555 163.918 196.586C164.145 196.609 164.352 196.629 164.539 196.645C164.734 196.66 164.902 196.672 165.043 196.68C165.191 196.68 165.309 196.668 165.395 196.645C165.48 196.621 165.527 196.586 165.535 196.539C165.52 196.359 165.145 196.105 164.41 195.777C163.684 195.449 162.883 195.074 162.008 194.652C161.133 194.23 160.465 193.789 160.004 193.328C159.629 192.914 159.328 192.398 159.102 191.781C158.883 191.156 158.773 190.512 158.773 189.848C158.773 189.324 158.855 188.82 159.02 188.336C159.184 187.852 159.449 187.43 159.816 187.07C160.254 186.695 160.996 186.43 162.043 186.273C163.098 186.117 164.238 186.039 165.465 186.039C166.738 186.039 167.949 186.102 169.098 186.227C170.246 186.352 171.09 186.508 171.629 186.695C171.957 186.828 172.195 187.078 172.344 187.445C172.492 187.812 172.566 188.223 172.566 188.676C172.566 189.223 172.48 189.754 172.309 190.27C172.137 190.785 171.91 191.156 171.629 191.383ZM175.344 188.559C176.258 187.652 177.191 187.012 178.145 186.637C179.105 186.254 180.039 186.062 180.945 186.062C181.922 186.062 182.836 186.223 183.688 186.543C184.539 186.863 185.266 187.25 185.867 187.703C186.477 188.156 186.914 188.594 187.18 189.016C187.648 189.773 187.992 190.539 188.211 191.312C188.43 192.086 188.539 192.859 188.539 193.633C188.539 194.555 188.406 195.465 188.141 196.363C187.883 197.262 187.535 198.137 187.098 198.988C186.574 199.941 185.742 200.684 184.602 201.215C183.461 201.738 182.23 202 180.91 202C180.043 202 179.188 201.879 178.344 201.637C177.508 201.387 176.746 201 176.059 200.477C175.121 199.742 174.414 198.812 173.938 197.687C173.469 196.555 173.234 195.379 173.234 194.16C173.234 193.113 173.406 192.102 173.75 191.125C174.102 190.148 174.633 189.293 175.344 188.559ZM178.988 192.355C178.465 192.91 178.227 193.582 178.273 194.371C178.32 195.152 178.637 195.781 179.223 196.258C179.855 196.68 180.555 196.836 181.32 196.727C182.094 196.617 182.641 196.297 182.961 195.766C183.242 195.25 183.402 194.715 183.441 194.16C183.48 193.598 183.328 193.047 182.984 192.508C182.836 192.266 182.547 192.039 182.117 191.828C181.695 191.609 181.203 191.516 180.641 191.547C180.086 191.578 179.535 191.848 178.988 192.355ZM191.516 188.559C192.43 187.652 193.363 187.012 194.316 186.637C195.277 186.254 196.211 186.062 197.117 186.062C198.094 186.062 199.008 186.223 199.859 186.543C200.711 186.863 201.438 187.25 202.039 187.703C202.648 188.156 203.086 188.594 203.352 189.016C203.82 189.773 204.164 190.539 204.383 191.312C204.602 192.086 204.711 192.859 204.711 193.633C204.711 194.555 204.578 195.465 204.312 196.363C204.055 197.262 203.707 198.137 203.27 198.988C202.746 199.941 201.914 200.684 200.773 201.215C199.633 201.738 198.402 202 197.082 202C196.215 202 195.359 201.879 194.516 201.637C193.68 201.387 192.918 201 192.23 200.477C191.293 199.742 190.586 198.812 190.109 197.687C189.641 196.555 189.406 195.379 189.406 194.16C189.406 193.113 189.578 192.102 189.922 191.125C190.273 190.148 190.805 189.293 191.516 188.559ZM195.16 192.355C194.637 192.91 194.398 193.582 194.445 194.371C194.492 195.152 194.809 195.781 195.395 196.258C196.027 196.68 196.727 196.836 197.492 196.727C198.266 196.617 198.812 196.297 199.133 195.766C199.414 195.25 199.574 194.715 199.613 194.16C199.652 193.598 199.5 193.047 199.156 192.508C199.008 192.266 198.719 192.039 198.289 191.828C197.867 191.609 197.375 191.516 196.812 191.547C196.258 191.578 195.707 191.848 195.16 192.355ZM211.004 194.687C210.902 194.687 210.848 194.816 210.84 195.074C210.84 195.332 210.863 195.668 210.91 196.082C210.957 196.496 211.008 196.945 211.062 197.43C211.125 197.914 211.176 198.391 211.215 198.859C211.254 199.328 211.262 199.75 211.238 200.125C211.215 200.492 211.137 200.766 211.004 200.945C210.777 201.234 210.406 201.465 209.891 201.637C209.375 201.809 208.844 201.895 208.297 201.895C207.836 201.895 207.422 201.82 207.055 201.672C206.688 201.523 206.441 201.281 206.316 200.945C206.113 200.289 205.953 199.273 205.836 197.898C205.727 196.516 205.672 195.059 205.672 193.527C205.672 192.598 205.695 191.695 205.742 190.82C205.789 189.945 205.859 189.168 205.953 188.488C206.047 187.801 206.168 187.266 206.316 186.883C206.48 186.5 206.75 186.227 207.125 186.062C207.5 185.898 207.93 185.816 208.414 185.816C209.023 185.816 209.648 185.922 210.289 186.133C210.938 186.336 211.488 186.586 211.941 186.883C212.137 187.016 212.332 187.207 212.527 187.457C212.723 187.699 212.914 187.98 213.102 188.301C213.289 188.621 213.473 188.961 213.652 189.32C213.832 189.68 214.004 190.039 214.168 190.398C214.34 190.758 214.5 191.102 214.648 191.43C214.797 191.758 214.934 192.051 215.059 192.309C215.191 192.559 215.309 192.758 215.41 192.906C215.52 193.055 215.613 193.129 215.691 193.129C215.848 193.129 215.902 192.859 215.855 192.32C215.809 191.781 215.734 191.141 215.633 190.398C215.531 189.656 215.469 188.957 215.445 188.301C215.43 187.637 215.512 187.164 215.691 186.883C215.926 186.594 216.301 186.363 216.816 186.191C217.332 186.012 217.863 185.922 218.41 185.922C218.863 185.922 219.273 186 219.641 186.156C220.008 186.305 220.254 186.547 220.379 186.883C220.59 187.539 220.75 188.559 220.859 189.941C220.969 191.316 221.023 192.77 221.023 194.301C221.023 195.23 221 196.133 220.953 197.008C220.914 197.883 220.844 198.664 220.742 199.352C220.648 200.031 220.527 200.562 220.379 200.945C220.223 201.32 219.957 201.59 219.582 201.754C219.207 201.918 218.777 202 218.293 202C217.684 202 217.055 201.898 216.406 201.695C215.758 201.492 215.207 201.242 214.754 200.945C214.363 200.656 213.977 200.184 213.594 199.527C213.219 198.871 212.863 198.172 212.527 197.43C212.191 196.687 211.891 196.047 211.625 195.508C211.367 194.961 211.16 194.687 211.004 194.687Z" fill="black"/>
<path d="M151.817 121.12C153.429 122.731 154.503 125.148 155.04 128.371C155.577 131.545 155.577 134.719 155.04 137.893C154.503 141.066 153.429 143.386 151.817 144.851C151.183 145.339 150.328 145.778 149.254 146.169C148.229 146.56 147.032 146.901 145.665 147.194C144.298 147.438 142.833 147.634 141.271 147.78C139.757 147.927 138.219 148 136.656 148C133.678 148 130.895 147.756 128.307 147.268C125.719 146.73 123.79 145.925 122.521 144.851C120.909 143.19 119.811 140.554 119.225 136.94C118.688 133.278 118.688 129.665 119.225 126.101C119.811 122.487 120.909 119.948 122.521 118.483C123.546 117.702 125.011 117.165 126.915 116.872C128.868 116.53 131.065 116.408 133.507 116.506C135.948 116.555 138.365 116.774 140.758 117.165C143.199 117.556 145.396 118.093 147.35 118.776C149.303 119.46 150.792 120.241 151.817 121.12ZM125.304 107.058C124.815 106.569 124.62 105.959 124.718 105.227C124.815 104.445 125.108 103.615 125.597 102.736C126.134 101.809 126.769 100.832 127.501 99.8066C128.282 98.7324 129.063 97.6826 129.845 96.6572C130.675 95.583 131.456 94.5332 132.188 93.5078C132.921 92.4824 133.507 91.5059 133.946 90.5781C134.386 89.6504 134.605 88.8203 134.605 88.0879C134.654 87.3555 134.386 86.7451 133.8 86.2568C132.774 85.5244 131.041 85.207 128.6 85.3047C126.158 85.3535 123.351 85.5977 120.177 86.0371C117.003 86.4766 113.805 86.8916 110.582 87.2822C107.408 87.6729 104.503 87.8438 101.866 87.7949C99.2783 87.6973 97.3252 87.1846 96.0068 86.2568C94.2979 84.8408 92.9307 82.5947 91.9053 79.5186C90.8799 76.4424 90.3672 73.2441 90.3672 69.9238C90.3672 67.0918 90.8066 64.5039 91.6855 62.1602C92.5645 59.7676 94.0049 58.0342 96.0068 56.96C97.5693 56.2275 99.6201 55.6416 102.159 55.2021C104.698 54.7139 107.579 54.3721 110.802 54.1768C114.024 53.9326 117.418 53.8105 120.982 53.8105C133.238 53.8105 144.444 54.8604 154.601 56.96C163.146 59.0107 170.079 61.9648 175.401 65.8223C180.724 69.6797 183.556 74.5381 183.897 80.3975V80.6904C183.897 83.6201 182.359 87.0625 179.283 91.0176C176.256 94.9238 172.716 98.6104 168.663 102.077C164.61 105.495 160.899 108.034 157.53 109.694C155.089 110.866 152.257 111.599 149.034 111.892C145.812 112.136 142.564 112.062 139.293 111.672C136.07 111.232 133.189 110.622 130.65 109.841C128.16 109.011 126.378 108.083 125.304 107.058Z" fill="black"/>
</svg>
