<svg width="286" height="237" viewBox="0 0 286 237" fill="none" xmlns="http://www.w3.org/2000/svg">
<rect x="9" y="15" width="275" height="220" rx="38" fill="black" stroke="black" stroke-width="4"/>
<rect x="2" y="2" width="275" height="220" rx="38" fill="#C3FCF1" stroke="black" stroke-width="4"/>
<path d="M115.28 53.7077C114.388 54.5007 113.694 56.5823 113.694 58.1683C113.694 61.4395 113.793 61.4395 106.656 60.0517C99.1225 58.5648 83.758 58.5648 81.1808 59.9526C79.4956 60.8447 79 62.0342 79 64.8098C79 71.7486 87.2274 81.3638 97.5365 86.6174C104.376 90.186 104.773 91.2763 104.773 107.83C104.773 115.959 104.971 122.501 105.169 122.501C105.367 122.501 108.341 121.212 111.811 119.626C120.335 115.76 128.166 114.274 139.467 114.174C151.461 114.174 160.283 115.86 168.61 119.924L175.152 123.096V108.326C175.152 100.297 175.548 92.8623 176.143 91.8711C176.639 90.8798 180.307 88.0052 184.272 85.527C188.237 83.0489 192.697 79.7778 194.085 78.1917C200.925 70.9556 203.105 62.3316 198.744 59.9526C196.167 58.5648 180.802 58.5648 173.269 60.0517C166.032 61.4395 166.231 61.4395 166.231 57.5736C166.231 55.1946 165.636 53.9059 164.248 53.1129C161.572 51.7252 159.589 52.9147 156.913 57.6727C154.93 61.2412 154.435 61.5386 151.263 61.043C146.207 60.3491 132.528 60.4482 128.761 61.2412C125.787 61.9351 125.292 61.7369 123.805 58.8622C121.822 55.1946 119.047 52.1217 117.758 52.1217C117.263 52.1217 116.073 52.8155 115.28 53.7077ZM125.589 85.9235C130.149 88.0052 134.51 91.4746 134.51 92.9615C134.51 94.5475 127.572 96.8274 122.12 96.9265C118.155 97.0256 116.172 96.6291 114.685 95.2414C111.91 92.7632 112.009 87.4104 114.884 85.4279C117.857 83.3463 120.236 83.4454 125.589 85.9235ZM165.041 85.4279C167.916 87.4104 168.015 92.7632 165.239 95.2414C163.753 96.6291 161.77 97.0256 157.805 96.9265C152.353 96.8274 145.414 94.5475 145.414 92.9615C145.414 90.3842 156.318 83.941 160.779 83.8419C161.869 83.8419 163.852 84.5358 165.041 85.4279Z" fill="black"/>
<path d="M126.081 120.122C117.06 121.807 105.265 127.854 101.498 132.612C99.2178 135.388 98.4248 137.668 98.0283 141.533C97.7309 146.192 98.0283 147.283 101.002 151.644C111.41 167.009 146.6 171.668 168.408 160.566C175.049 157.195 180.798 151.248 181.69 146.787C183.376 137.469 179.311 130.927 168.11 125.178C155.918 118.933 141.049 117.148 126.081 120.122ZM118.646 134.892C119.638 137.37 122.017 138.163 123.107 136.379C124.198 134.595 125.585 135.388 125.585 137.767C125.585 140.344 121.62 144.805 118.646 145.598C113.69 146.886 110.716 139.65 114.285 134.595C116.267 131.72 117.457 131.819 118.646 134.892ZM165.632 134.595C167.317 136.875 167.714 142.029 166.425 143.912C163.352 148.373 154.332 143.119 154.332 136.875C154.332 135.189 155.918 134.892 156.81 136.379C157.9 138.163 160.279 137.37 161.271 134.892C162.46 131.819 163.65 131.72 165.632 134.595Z" fill="black"/>
<path d="M86.4062 193.773C86.4062 192.477 86.6523 191.211 87.1445 189.977C87.6445 188.742 88.4258 187.727 89.4883 186.93C90.5508 186.133 91.9219 185.703 93.6016 185.641H93.6836C94.4336 185.641 95.1875 185.809 95.9453 186.145C96.7031 186.473 97.3945 186.891 98.0195 187.398C98.6523 187.898 99.1602 188.426 99.543 188.98C99.9336 189.535 100.129 190.039 100.129 190.492C100.129 190.578 100.121 190.664 100.105 190.75C99.957 191.375 99.6484 191.855 99.1797 192.191C98.7188 192.52 98.1953 192.699 97.6094 192.73C97.0234 192.762 96.4766 192.637 95.9688 192.355C95.6875 192.184 95.4258 191.945 95.1836 191.641C94.9414 191.328 94.6914 191.047 94.4336 190.797C94.1836 190.539 93.9023 190.402 93.5898 190.387C92.9492 190.418 92.4766 190.777 92.1719 191.465C91.875 192.145 91.7383 192.93 91.7617 193.82C91.7773 194.375 91.8477 194.914 91.9727 195.438C92.0977 195.953 92.293 196.383 92.5586 196.727C92.8242 197.07 93.168 197.246 93.5898 197.254C93.9023 197.238 94.1836 197.105 94.4336 196.855C94.6914 196.598 94.9414 196.316 95.1836 196.012C95.4258 195.707 95.6875 195.465 95.9688 195.285C96.4766 195.004 97.0234 194.879 97.6094 194.91C98.1953 194.941 98.7188 195.125 99.1797 195.461C99.6484 195.789 99.957 196.266 100.105 196.891C100.121 196.977 100.129 197.062 100.129 197.148C100.129 197.602 99.9336 198.105 99.543 198.66C99.1602 199.215 98.6523 199.746 98.0195 200.254C97.3945 200.754 96.7031 201.172 95.9453 201.508C95.1875 201.836 94.4336 202 93.6836 202H93.6016C91.9141 201.953 90.5391 201.555 89.4766 200.805C88.4219 200.055 87.6445 199.07 87.1445 197.852C86.6523 196.625 86.4062 195.277 86.4062 193.809V193.773ZM103.141 188.559C104.055 187.652 104.988 187.012 105.941 186.637C106.902 186.254 107.836 186.062 108.742 186.062C109.719 186.062 110.633 186.223 111.484 186.543C112.336 186.863 113.062 187.25 113.664 187.703C114.273 188.156 114.711 188.594 114.977 189.016C115.445 189.773 115.789 190.539 116.008 191.312C116.227 192.086 116.336 192.859 116.336 193.633C116.336 194.555 116.203 195.465 115.938 196.363C115.68 197.262 115.332 198.137 114.895 198.988C114.371 199.941 113.539 200.684 112.398 201.215C111.258 201.738 110.027 202 108.707 202C107.84 202 106.984 201.879 106.141 201.637C105.305 201.387 104.543 201 103.855 200.477C102.918 199.742 102.211 198.812 101.734 197.688C101.266 196.555 101.031 195.379 101.031 194.16C101.031 193.113 101.203 192.102 101.547 191.125C101.898 190.148 102.43 189.293 103.141 188.559ZM106.785 192.355C106.262 192.91 106.023 193.582 106.07 194.371C106.117 195.152 106.434 195.781 107.02 196.258C107.652 196.68 108.352 196.836 109.117 196.727C109.891 196.617 110.438 196.297 110.758 195.766C111.039 195.25 111.199 194.715 111.238 194.16C111.277 193.598 111.125 193.047 110.781 192.508C110.633 192.266 110.344 192.039 109.914 191.828C109.492 191.609 109 191.516 108.438 191.547C107.883 191.578 107.332 191.848 106.785 192.355ZM122.441 192.93C122.574 192.93 122.672 192.68 122.734 192.18C122.805 191.68 122.871 191.086 122.934 190.398C123.004 189.711 123.102 189.062 123.227 188.453C123.352 187.844 123.539 187.406 123.789 187.141C124.047 186.898 124.387 186.719 124.809 186.602C125.23 186.477 125.672 186.414 126.133 186.414C126.594 186.414 127.035 186.477 127.457 186.602C127.879 186.719 128.219 186.898 128.477 187.141C128.727 187.406 128.914 187.844 129.039 188.453C129.164 189.062 129.258 189.711 129.32 190.398C129.391 191.086 129.457 191.68 129.52 192.18C129.59 192.68 129.691 192.93 129.824 192.93C129.934 192.93 130.035 192.762 130.129 192.426C130.223 192.09 130.32 191.672 130.422 191.172C130.523 190.664 130.637 190.141 130.762 189.602C130.887 189.055 131.027 188.559 131.184 188.113C131.348 187.668 131.539 187.344 131.758 187.141C132.086 186.867 132.547 186.641 133.141 186.461C133.734 186.273 134.309 186.18 134.863 186.18C135.301 186.18 135.672 186.254 135.977 186.402C136.289 186.543 136.445 186.789 136.445 187.141C136.445 187.922 136.16 189.289 135.59 191.242C135.027 193.195 134.383 195.129 133.656 197.043C132.938 198.949 132.305 200.336 131.758 201.203C131.57 201.477 131.305 201.672 130.961 201.789C130.625 201.906 130.258 201.965 129.859 201.965C129.508 201.965 129.148 201.93 128.781 201.859C128.422 201.781 128.094 201.688 127.797 201.578C127.5 201.461 127.258 201.336 127.07 201.203C126.883 201.062 126.738 200.84 126.637 200.535C126.543 200.223 126.473 199.879 126.426 199.504C126.379 199.121 126.344 198.754 126.32 198.402C126.305 198.051 126.285 197.762 126.262 197.535C126.238 197.301 126.195 197.184 126.133 197.184C126.055 197.184 126.004 197.359 125.98 197.711C125.957 198.055 125.93 198.465 125.898 198.941C125.867 199.418 125.797 199.871 125.688 200.301C125.586 200.723 125.422 201.023 125.195 201.203C124.906 201.406 124.5 201.586 123.977 201.742C123.461 201.891 122.938 201.965 122.406 201.965C122.008 201.965 121.637 201.906 121.293 201.789C120.957 201.672 120.695 201.477 120.508 201.203C119.961 200.336 119.324 198.949 118.598 197.043C117.879 195.129 117.234 193.195 116.664 191.242C116.102 189.289 115.82 187.922 115.82 187.141C115.82 186.789 115.973 186.543 116.277 186.402C116.59 186.254 116.965 186.18 117.402 186.18C117.957 186.18 118.531 186.273 119.125 186.461C119.719 186.641 120.18 186.867 120.508 187.141C120.664 187.281 120.805 187.488 120.93 187.762C121.055 188.035 121.168 188.352 121.27 188.711C121.379 189.062 121.473 189.434 121.551 189.824C121.637 190.207 121.715 190.582 121.785 190.949C121.863 191.316 121.938 191.648 122.008 191.945C122.078 192.242 122.148 192.48 122.219 192.66C122.289 192.84 122.363 192.93 122.441 192.93ZM150.168 191.383C149.887 191.57 149.43 191.66 148.797 191.652C148.172 191.645 147.504 191.598 146.793 191.512C146.082 191.418 145.465 191.348 144.941 191.301C144.418 191.254 144.129 191.281 144.074 191.383C144.059 191.43 144.078 191.484 144.133 191.547C144.195 191.602 144.285 191.664 144.402 191.734C144.527 191.805 144.672 191.883 144.836 191.969C145.008 192.047 145.195 192.129 145.398 192.215C145.609 192.301 145.828 192.395 146.055 192.496C146.281 192.59 146.512 192.691 146.746 192.801C146.988 192.902 147.227 193.008 147.461 193.117C147.695 193.227 147.922 193.34 148.141 193.457C148.359 193.566 148.562 193.68 148.75 193.797C148.945 193.914 149.121 194.031 149.277 194.148C149.84 194.586 150.297 195.09 150.648 195.66C151 196.223 151.176 196.871 151.176 197.605C151.176 198.027 151.102 198.488 150.953 198.988C150.812 199.48 150.582 200.008 150.262 200.57C149.918 201.102 149.227 201.473 148.188 201.684C147.156 201.895 146.008 202 144.742 202C143.367 202 142.039 201.918 140.758 201.754C139.484 201.59 138.559 201.414 137.98 201.227C137.645 201.109 137.402 200.867 137.254 200.5C137.105 200.133 137.031 199.723 137.031 199.27C137.031 198.723 137.117 198.191 137.289 197.676C137.469 197.152 137.699 196.773 137.98 196.539C138.074 196.469 138.195 196.414 138.344 196.375C138.5 196.336 138.676 196.312 138.871 196.305C139.066 196.289 139.277 196.285 139.504 196.293C139.738 196.301 139.98 196.316 140.23 196.34C140.48 196.355 140.73 196.379 140.98 196.41C141.238 196.434 141.492 196.461 141.742 196.492C141.992 196.523 142.23 196.555 142.457 196.586C142.684 196.609 142.891 196.629 143.078 196.645C143.273 196.66 143.441 196.672 143.582 196.68C143.73 196.68 143.848 196.668 143.934 196.645C144.02 196.621 144.066 196.586 144.074 196.539C144.059 196.359 143.684 196.105 142.949 195.777C142.223 195.449 141.422 195.074 140.547 194.652C139.672 194.23 139.004 193.789 138.543 193.328C138.168 192.914 137.867 192.398 137.641 191.781C137.422 191.156 137.312 190.512 137.312 189.848C137.312 189.324 137.395 188.82 137.559 188.336C137.723 187.852 137.988 187.43 138.355 187.07C138.793 186.695 139.535 186.43 140.582 186.273C141.637 186.117 142.777 186.039 144.004 186.039C145.277 186.039 146.488 186.102 147.637 186.227C148.785 186.352 149.629 186.508 150.168 186.695C150.496 186.828 150.734 187.078 150.883 187.445C151.031 187.812 151.105 188.223 151.105 188.676C151.105 189.223 151.02 189.754 150.848 190.27C150.676 190.785 150.449 191.156 150.168 191.383ZM158.395 192.93C158.527 192.93 158.625 192.68 158.688 192.18C158.758 191.68 158.824 191.086 158.887 190.398C158.957 189.711 159.055 189.062 159.18 188.453C159.305 187.844 159.492 187.406 159.742 187.141C160 186.898 160.34 186.719 160.762 186.602C161.184 186.477 161.625 186.414 162.086 186.414C162.547 186.414 162.988 186.477 163.41 186.602C163.832 186.719 164.172 186.898 164.43 187.141C164.68 187.406 164.867 187.844 164.992 188.453C165.117 189.062 165.211 189.711 165.273 190.398C165.344 191.086 165.41 191.68 165.473 192.18C165.543 192.68 165.645 192.93 165.777 192.93C165.887 192.93 165.988 192.762 166.082 192.426C166.176 192.09 166.273 191.672 166.375 191.172C166.477 190.664 166.59 190.141 166.715 189.602C166.84 189.055 166.98 188.559 167.137 188.113C167.301 187.668 167.492 187.344 167.711 187.141C168.039 186.867 168.5 186.641 169.094 186.461C169.688 186.273 170.262 186.18 170.816 186.18C171.254 186.18 171.625 186.254 171.93 186.402C172.242 186.543 172.398 186.789 172.398 187.141C172.398 187.922 172.113 189.289 171.543 191.242C170.98 193.195 170.336 195.129 169.609 197.043C168.891 198.949 168.258 200.336 167.711 201.203C167.523 201.477 167.258 201.672 166.914 201.789C166.578 201.906 166.211 201.965 165.812 201.965C165.461 201.965 165.102 201.93 164.734 201.859C164.375 201.781 164.047 201.688 163.75 201.578C163.453 201.461 163.211 201.336 163.023 201.203C162.836 201.062 162.691 200.84 162.59 200.535C162.496 200.223 162.426 199.879 162.379 199.504C162.332 199.121 162.297 198.754 162.273 198.402C162.258 198.051 162.238 197.762 162.215 197.535C162.191 197.301 162.148 197.184 162.086 197.184C162.008 197.184 161.957 197.359 161.934 197.711C161.91 198.055 161.883 198.465 161.852 198.941C161.82 199.418 161.75 199.871 161.641 200.301C161.539 200.723 161.375 201.023 161.148 201.203C160.859 201.406 160.453 201.586 159.93 201.742C159.414 201.891 158.891 201.965 158.359 201.965C157.961 201.965 157.59 201.906 157.246 201.789C156.91 201.672 156.648 201.477 156.461 201.203C155.914 200.336 155.277 198.949 154.551 197.043C153.832 195.129 153.188 193.195 152.617 191.242C152.055 189.289 151.773 187.922 151.773 187.141C151.773 186.789 151.926 186.543 152.23 186.402C152.543 186.254 152.918 186.18 153.355 186.18C153.91 186.18 154.484 186.273 155.078 186.461C155.672 186.641 156.133 186.867 156.461 187.141C156.617 187.281 156.758 187.488 156.883 187.762C157.008 188.035 157.121 188.352 157.223 188.711C157.332 189.062 157.426 189.434 157.504 189.824C157.59 190.207 157.668 190.582 157.738 190.949C157.816 191.316 157.891 191.648 157.961 191.945C158.031 192.242 158.102 192.48 158.172 192.66C158.242 192.84 158.316 192.93 158.395 192.93ZM175.48 198.766C175.277 198.938 175.18 199.223 175.188 199.621C175.203 200.02 175.203 200.41 175.188 200.793C175.172 201.176 175.023 201.438 174.742 201.578C174.5 201.672 174.125 201.766 173.617 201.859C173.117 201.953 172.602 202 172.07 202C171.719 202 171.387 201.969 171.074 201.906C170.77 201.844 170.523 201.738 170.336 201.59C170.148 201.441 170.055 201.234 170.055 200.969C170.055 200.148 170.336 198.766 170.898 196.82C171.469 194.867 172.113 192.945 172.832 191.055C173.559 189.156 174.195 187.773 174.742 186.906C174.969 186.578 175.297 186.336 175.727 186.18C176.156 186.016 176.609 185.934 177.086 185.934C177.562 185.934 178.016 186.016 178.445 186.18C178.875 186.336 179.203 186.578 179.43 186.906C179.977 187.773 180.609 189.156 181.328 191.055C182.055 192.945 182.699 194.867 183.262 196.82C183.832 198.766 184.117 200.148 184.117 200.969C184.117 201.234 184.023 201.441 183.836 201.59C183.648 201.738 183.398 201.844 183.086 201.906C182.781 201.969 182.453 202 182.102 202C181.57 202 181.051 201.953 180.543 201.859C180.043 201.766 179.672 201.672 179.43 201.578C179.148 201.438 179 201.176 178.984 200.793C178.969 200.41 178.965 200.02 178.973 199.621C178.988 199.223 178.895 198.938 178.691 198.766C178.457 198.609 178.129 198.508 177.707 198.461C177.293 198.406 176.875 198.406 176.453 198.461C176.039 198.508 175.715 198.609 175.48 198.766ZM177.086 193.938C176.992 193.938 176.871 194.164 176.723 194.617C176.574 195.07 176.512 195.391 176.535 195.578C176.582 195.664 176.684 195.723 176.84 195.754C177.004 195.785 177.164 195.785 177.32 195.754C177.484 195.723 177.59 195.664 177.637 195.578C177.652 195.5 177.641 195.375 177.602 195.203C177.57 195.031 177.523 194.848 177.461 194.652C177.398 194.457 177.332 194.289 177.262 194.148C177.191 194.008 177.133 193.938 177.086 193.938ZM185.945 201.133C185.781 200.633 185.602 199.883 185.406 198.883C185.219 197.883 185.055 196.762 184.914 195.52C184.773 194.27 184.703 193.059 184.703 191.887C184.703 190.754 184.797 189.75 184.984 188.875C185.172 188 185.492 187.398 185.945 187.07C186.398 186.773 187.102 186.527 188.055 186.332C189.016 186.137 190.078 186.039 191.242 186.039C192.242 186.039 193.25 186.133 194.266 186.32C195.289 186.508 196.227 186.82 197.078 187.258C197.93 187.695 198.617 188.285 199.141 189.027C199.672 189.762 199.961 190.672 200.008 191.758V191.863C200.008 192.605 199.836 193.234 199.492 193.75C199.148 194.266 198.699 194.695 198.145 195.039C197.59 195.375 196.98 195.641 196.316 195.836C195.652 196.031 194.984 196.176 194.312 196.27C193.648 196.363 193.039 196.422 192.484 196.445C191.93 196.469 191.48 196.477 191.137 196.469C190.801 196.453 190.633 196.445 190.633 196.445C190.633 196.445 190.656 196.582 190.703 196.855C190.75 197.121 190.797 197.461 190.844 197.875C190.898 198.281 190.938 198.707 190.961 199.152C190.984 199.59 190.973 199.988 190.926 200.348C190.879 200.707 190.781 200.969 190.633 201.133C190.477 201.281 190.242 201.422 189.93 201.555C189.625 201.687 189.277 201.797 188.887 201.883C188.504 201.961 188.125 202 187.75 202C187.32 202 186.938 201.934 186.602 201.801C186.273 201.668 186.055 201.445 185.945 201.133ZM191.184 189.988C191.059 190.043 190.992 190.211 190.984 190.492C190.977 190.773 191.012 191.066 191.09 191.371C191.176 191.668 191.289 191.863 191.43 191.957C191.547 192.012 191.723 192.051 191.957 192.074C192.191 192.098 192.438 192.094 192.695 192.062C192.961 192.031 193.191 191.957 193.387 191.84C193.582 191.723 193.691 191.555 193.715 191.336C193.73 191.172 193.688 191.023 193.586 190.891C193.484 190.75 193.348 190.629 193.176 190.527C193.012 190.418 192.828 190.328 192.625 190.258C192.422 190.18 192.223 190.117 192.027 190.07C191.832 190.023 191.656 189.996 191.5 189.988C191.352 189.973 191.246 189.973 191.184 189.988Z" fill="black"/>
</svg>
