<svg width="60" height="62" viewBox="0 0 60 62" fill="none" xmlns="http://www.w3.org/2000/svg">
<circle cx="30" cy="32" r="30" fill="black"/>
<circle cx="30" cy="30" r="29" fill="white" stroke="black" stroke-width="2"/>
<g clip-path="url(#clip0_344_80)">
<path fill-rule="evenodd" clip-rule="evenodd" d="M25.6308 13.2827C23.3042 14.5227 21.4007 15.5719 21.4011 15.6146C21.4021 15.7247 26.985 18.6173 27.1831 18.6102C27.2733 18.6071 27.9272 18.2992 28.6362 17.926L29.9254 17.2476L31.3335 17.988L32.7415 18.7286L35.0473 17.6686C38.5217 16.0714 38.8826 15.8963 38.826 15.8375C38.7509 15.7595 37.5047 15.0746 34.1237 13.2535C32.4897 12.3734 30.9037 11.5105 30.5993 11.3358C30.2949 11.1612 30.0042 11.0208 29.9534 11.0235C29.9027 11.0262 27.9574 12.0429 25.6308 13.2827ZM15.4263 18.6888L13.0044 19.9687V25.5858C13.0044 28.6752 13.0362 31.2029 13.0752 31.2029C13.1141 31.2029 14.3057 30.6744 15.7231 30.0285L18.3004 28.8542V22.9334L19.5598 23.6353C20.5303 24.1758 21.5013 24.7151 22.473 25.2533L24.1267 26.1694L24.8626 25.8289C25.3241 25.6151 25.7847 25.3992 26.2443 25.1812C26.5995 25.0119 27.4714 24.6102 28.1819 24.2882C28.8923 23.966 29.5499 23.6421 29.6432 23.5683C29.767 23.4702 28.2566 22.6163 24.0563 20.4096C20.8902 18.7463 18.1982 17.3906 18.0741 17.3971C17.9499 17.4036 16.7584 17.9848 15.4263 18.6888ZM39.2625 19.0482C37.613 19.81 36.2622 20.4638 36.2607 20.5011C36.2593 20.5383 37.1583 21.0852 38.2587 21.7162C39.359 22.3473 40.2593 22.8975 40.2593 22.9389C40.2593 22.9802 39.2856 23.4629 38.0957 24.0117C36.9056 24.5603 33.8977 25.95 31.4111 27.1L23.0797 30.9528C20.9839 31.9221 19.0948 32.7957 18.8817 32.8945C14.6009 34.877 13.4243 35.4271 13.2627 35.5215C13.1002 35.6166 13.0634 36.1689 13.0345 38.9411L13 42.2474L15.1658 43.3764L17.3316 44.5053L20.3348 43.1187C21.9866 42.3562 23.338 41.6923 23.338 41.6434C23.338 41.5946 23.0328 41.3911 22.6599 41.191C22.2868 40.9909 21.5167 40.548 20.9483 40.2065C20.38 39.865 19.8133 39.5516 19.6889 39.5101C19.5646 39.4686 19.4646 39.3961 19.4666 39.3488C19.4687 39.3017 20.7912 38.659 22.4053 37.9206C25.5403 36.4866 27.9396 35.3813 33.0903 32.9983C35.3936 31.933 37.6971 30.8682 40.0009 29.8042C42.0257 28.8692 44.3798 27.7772 45.2323 27.3776L46.7824 26.651L46.8168 23.307L46.8515 19.9631L44.6548 18.8096C43.4466 18.1753 42.4138 17.6578 42.3597 17.6597C42.3056 17.6614 40.9119 18.2862 39.2625 19.0482ZM46.1939 31.112C45.8702 31.2737 45.2308 31.5766 44.773 31.785C44.3152 31.9933 43.4466 32.3943 42.8427 32.6762L41.7447 33.1885L41.7197 36.1242C41.7058 37.7388 41.6477 39.0527 41.5905 39.0442C41.4606 39.0244 39.4028 37.9447 37.3342 36.8108C35.8413 35.9924 35.7475 35.9599 35.3967 36.1376C35.1939 36.2405 33.9816 36.7967 32.7028 37.3739C31.424 37.951 30.3361 38.4609 30.2849 38.5071C30.2339 38.5531 32.8076 39.9803 36.0044 41.6786L41.8167 44.7664L44.2996 43.4524C45.6651 42.7298 46.8262 42.0706 46.8796 41.9877C47 41.8013 46.9897 30.7923 46.8692 30.8072C46.8215 30.813 46.5176 30.9502 46.1939 31.112ZM32.4445 44.0338C32.0138 44.2232 31.5833 44.4129 31.1528 44.6029C29.8529 45.1782 30.1077 45.1973 28.5612 44.4097C27.5313 43.8852 27.0873 43.7233 26.8946 43.8019C26.75 43.8608 25.506 44.4334 24.1298 45.0743C22.7537 45.7152 21.5801 46.2396 21.5217 46.2396C20.9444 46.2396 21.9042 46.8263 25.6081 48.7377L29.9518 50.9791L31.7794 50.0561C32.7846 49.5483 34.812 48.5317 36.285 47.7968C37.7578 47.0617 38.9446 46.4413 38.9224 46.4179C38.9 46.3946 37.6659 45.7462 36.1798 44.9772L33.4779 43.579L32.4445 44.0338Z" fill="black"/>
</g>
<defs>
<clipPath id="clip0_344_80">
<rect width="34" height="40" fill="white" transform="translate(13 11)"/>
</clipPath>
</defs>
</svg>
