<svg width="286" height="237" viewBox="0 0 286 237" fill="none" xmlns="http://www.w3.org/2000/svg">
<rect x="9" y="15" width="275" height="220" rx="38" fill="black" stroke="black" stroke-width="4"/>
<rect x="2" y="2" width="275" height="220" rx="38" fill="#C3FCF1" stroke="black" stroke-width="4"/>
<path fill-rule="evenodd" clip-rule="evenodd" d="M131.469 51.9938C125.304 55.2832 120.26 58.0667 120.261 58.18C120.264 58.4722 135.057 66.146 135.582 66.1273C135.821 66.1191 137.554 65.3021 139.433 64.3121L142.849 62.5123L146.58 64.4766L150.311 66.4414L156.421 63.6292C165.627 59.3918 166.583 58.9275 166.434 58.7715C166.235 58.5645 162.933 56.7474 153.973 51.9163C149.644 49.5814 145.441 47.292 144.634 46.8288C143.828 46.3655 143.058 45.9929 142.923 46.0001C142.789 46.0073 137.634 48.7045 131.469 51.9938ZM104.429 66.3357L98.0116 69.7311V84.633C98.0116 92.8291 98.0958 99.5348 98.1992 99.5348C98.3022 99.5348 101.46 98.1328 105.216 96.4193L112.045 93.3039V77.5963L115.382 79.4586C117.954 80.8923 120.527 82.3231 123.101 83.751L127.483 86.1812L129.433 85.2781C130.656 84.7108 131.877 84.1379 133.095 83.5596C134.036 83.1106 136.346 82.0448 138.229 81.1905C140.111 80.3359 141.854 79.4765 142.101 79.2807C142.429 79.0205 138.427 76.755 127.297 70.9009C118.907 66.4882 111.774 62.8918 111.445 62.909C111.116 62.9262 107.959 64.4681 104.429 66.3357ZM167.59 67.2892C163.219 69.3103 159.64 71.0447 159.636 71.1436C159.632 71.2424 162.014 72.6933 164.93 74.3673C167.846 76.0416 170.231 77.5011 170.231 77.611C170.231 77.7206 167.651 79.0011 164.498 80.457C161.345 81.9125 153.374 85.5994 146.786 88.6501L124.709 98.8714C119.156 101.443 114.15 103.76 113.585 104.022C102.242 109.282 99.1243 110.741 98.6961 110.992C98.2656 111.244 98.1681 112.709 98.0914 120.064L98 128.835L103.739 131.83L109.478 134.825L117.436 131.147C121.813 129.124 125.394 127.363 125.394 127.233C125.394 127.103 124.585 126.564 123.597 126.033C122.608 125.502 120.567 124.327 119.061 123.421C117.556 122.515 116.054 121.684 115.724 121.573C115.395 121.463 115.13 121.271 115.135 121.146C115.141 121.02 118.645 119.316 122.922 117.357C131.229 113.552 137.587 110.62 151.235 104.298C157.338 101.472 163.442 98.6471 169.547 95.8241C174.912 93.3437 181.15 90.4468 183.409 89.3865L187.516 87.4588L187.608 78.5875L187.699 69.7165L181.879 66.6563C178.677 64.9734 175.941 63.6005 175.797 63.6055C175.654 63.6102 171.961 65.2677 167.59 67.2892ZM185.957 99.2937C185.099 99.7228 183.405 100.526 182.192 101.079C180.979 101.632 178.677 102.696 177.077 103.443L174.168 104.803L174.101 112.591C174.065 116.874 173.911 120.36 173.759 120.337C173.415 120.285 167.962 117.421 162.481 114.412C158.525 112.241 158.276 112.155 157.347 112.626C156.809 112.899 153.597 114.375 150.208 115.906C146.82 117.437 143.937 118.79 143.801 118.912C143.666 119.035 150.486 122.821 158.957 127.326L174.358 135.518L180.938 132.032C184.556 130.115 187.632 128.366 187.774 128.146C188.093 127.652 188.066 98.4455 187.746 98.485C187.62 98.5006 186.815 98.8645 185.957 99.2937ZM149.524 133.574C148.383 134.077 147.242 134.58 146.101 135.084C142.657 136.611 143.332 136.661 139.234 134.572C136.505 133.18 135.328 132.751 134.818 132.959C134.435 133.115 131.138 134.635 127.492 136.335C123.845 138.035 120.736 139.426 120.581 139.426C119.051 139.426 121.594 140.983 131.409 146.054L142.919 152L147.762 149.551C150.425 148.204 155.797 145.507 159.7 143.557C163.603 141.607 166.748 139.961 166.689 139.899C166.63 139.837 163.36 138.117 159.422 136.077L152.262 132.368L149.524 133.574Z" fill="black"/>
<path d="M83.8047 201.496C83.2578 201.113 82.8477 200.184 82.5742 198.707C82.3008 197.223 82.1641 195.609 82.1641 193.867C82.1641 193.367 82.1758 192.875 82.1992 192.391C82.2227 191.898 82.2539 191.418 82.293 190.949C82.3398 190.48 82.3945 190.035 82.457 189.613C82.5273 189.191 82.6055 188.801 82.6914 188.441C82.7852 188.074 82.8867 187.746 82.9961 187.457C83.1133 187.16 83.2383 186.914 83.3711 186.719C83.5039 186.523 83.6484 186.379 83.8047 186.285C83.9609 186.199 84.1602 186.125 84.4023 186.062C84.6445 186 84.918 185.953 85.2227 185.922C85.5273 185.883 85.8594 185.863 86.2188 185.863C87.2031 185.863 88.3047 186.004 89.5234 186.285C90.7422 186.566 91.9102 187.027 93.0273 187.668C94.1445 188.309 95.0625 189.156 95.7812 190.211C96.5078 191.266 96.8906 192.562 96.9297 194.102V194.195C96.9297 195.383 96.7031 196.414 96.25 197.289C95.7969 198.156 95.1953 198.895 94.4453 199.504C93.7031 200.105 92.8789 200.59 91.9727 200.957C91.0742 201.324 90.1562 201.59 89.2188 201.754C88.2891 201.918 87.4258 202 86.6289 202C86.207 202 85.8125 201.98 85.4453 201.941C85.0859 201.895 84.7656 201.836 84.4844 201.766C84.2109 201.688 83.9844 201.598 83.8047 201.496ZM87.8359 196.27C88.0234 196.371 88.332 196.422 88.7617 196.422C89.1992 196.422 89.6602 196.344 90.1445 196.188C90.6289 196.031 91.043 195.773 91.3867 195.414C91.7305 195.055 91.9102 194.57 91.9258 193.961C91.9102 193.477 91.7852 193.07 91.5508 192.742C91.3164 192.406 91.0195 192.141 90.6602 191.945C90.3086 191.742 89.9414 191.602 89.5586 191.523C89.1758 191.438 88.8281 191.398 88.5156 191.406C88.2031 191.414 87.9766 191.457 87.8359 191.535C87.6641 191.645 87.5352 191.93 87.4492 192.391C87.3633 192.852 87.3203 193.352 87.3203 193.891C87.3203 194.43 87.3633 194.93 87.4492 195.391C87.5352 195.852 87.6641 196.145 87.8359 196.27ZM103.996 196.105C104.434 196.129 105.133 196.09 106.094 195.988C107.062 195.879 108.027 195.812 108.988 195.789C109.949 195.758 110.645 195.863 111.074 196.105C111.387 196.324 111.629 196.676 111.801 197.16C111.98 197.645 112.07 198.148 112.07 198.672C112.07 199.148 111.988 199.586 111.824 199.984C111.668 200.375 111.418 200.645 111.074 200.793C110.668 200.957 110.066 201.133 109.27 201.32C108.473 201.5 107.578 201.66 106.586 201.801C105.594 201.934 104.613 202 103.645 202C102.707 202 101.852 201.91 101.078 201.73C100.305 201.551 99.7148 201.238 99.3086 200.793C98.8242 200.184 98.457 199.246 98.207 197.98C97.9648 196.715 97.8438 195.371 97.8438 193.949C97.8438 192.52 97.9648 191.172 98.207 189.906C98.457 188.641 98.8242 187.707 99.3086 187.105C99.7148 186.66 100.305 186.348 101.078 186.168C101.859 185.98 102.719 185.887 103.656 185.887C104.617 185.887 105.594 185.957 106.586 186.098C107.578 186.23 108.473 186.391 109.27 186.578C110.066 186.766 110.668 186.941 111.074 187.105C111.418 187.254 111.668 187.527 111.824 187.926C111.988 188.316 112.07 188.746 112.07 189.215C112.07 189.738 111.98 190.246 111.801 190.738C111.629 191.223 111.387 191.574 111.074 191.793C110.645 192.035 109.949 192.141 108.988 192.109C108.027 192.078 107.062 192.012 106.094 191.91C105.133 191.809 104.434 191.77 103.996 191.793C103.918 191.809 103.863 191.875 103.832 191.992C103.809 192.102 103.809 192.215 103.832 192.332C103.863 192.449 103.918 192.52 103.996 192.543C104.285 192.574 104.75 192.559 105.391 192.496C106.031 192.426 106.668 192.379 107.301 192.355C107.941 192.332 108.402 192.395 108.684 192.543C108.949 192.715 109.125 192.992 109.211 193.375C109.297 193.758 109.297 194.141 109.211 194.523C109.125 194.906 108.949 195.184 108.684 195.355C108.402 195.504 107.941 195.566 107.301 195.543C106.668 195.512 106.031 195.465 105.391 195.402C104.75 195.34 104.285 195.324 103.996 195.355C103.918 195.379 103.863 195.449 103.832 195.566C103.809 195.676 103.809 195.789 103.832 195.906C103.863 196.016 103.918 196.082 103.996 196.105ZM119.711 189.66C119.805 189.66 119.887 189.59 119.957 189.449C120.027 189.309 120.098 189.133 120.168 188.922C120.238 188.711 120.312 188.496 120.391 188.277C120.477 188.051 120.578 187.852 120.695 187.68C120.812 187.5 120.953 187.379 121.117 187.316C121.508 187.191 122.078 187.059 122.828 186.918C123.586 186.77 124.309 186.695 124.996 186.695C125.434 186.695 125.812 186.742 126.133 186.836C126.461 186.93 126.664 187.09 126.742 187.316C126.766 187.379 126.777 187.445 126.777 187.516C126.777 187.781 126.664 188.117 126.438 188.523C126.211 188.922 125.934 189.367 125.605 189.859C125.285 190.344 124.961 190.848 124.633 191.371C124.305 191.887 124.027 192.402 123.801 192.918C123.574 193.426 123.461 193.902 123.461 194.348C123.461 194.715 123.543 195.109 123.707 195.531C123.871 195.953 124.078 196.383 124.328 196.82C124.578 197.25 124.844 197.676 125.125 198.098C125.406 198.52 125.672 198.926 125.922 199.316C126.172 199.699 126.375 200.051 126.531 200.371C126.695 200.691 126.777 200.961 126.777 201.18C126.777 201.25 126.766 201.316 126.742 201.379C126.664 201.605 126.461 201.766 126.133 201.859C125.812 201.953 125.43 202 124.984 202C124.297 202 123.578 201.93 122.828 201.789C122.078 201.648 121.508 201.512 121.117 201.379C120.906 201.301 120.734 201.141 120.602 200.898C120.477 200.656 120.367 200.391 120.273 200.102C120.188 199.812 120.102 199.562 120.016 199.352C119.93 199.141 119.828 199.035 119.711 199.035C119.633 199.035 119.562 199.086 119.5 199.188C119.445 199.289 119.391 199.422 119.336 199.586C119.281 199.742 119.223 199.914 119.16 200.102C119.098 200.289 119.027 200.473 118.949 200.652C118.879 200.824 118.789 200.977 118.68 201.109C118.578 201.242 118.453 201.332 118.305 201.379C117.922 201.512 117.355 201.648 116.605 201.789C115.855 201.93 115.141 202 114.461 202C114.016 202 113.629 201.953 113.301 201.859C112.98 201.766 112.773 201.605 112.68 201.379C112.664 201.316 112.656 201.254 112.656 201.191C112.656 200.926 112.77 200.59 112.996 200.184C113.223 199.777 113.496 199.332 113.816 198.848C114.145 198.363 114.473 197.859 114.801 197.336C115.129 196.812 115.402 196.297 115.621 195.789C115.848 195.273 115.961 194.793 115.961 194.348C115.961 193.902 115.848 193.426 115.621 192.918C115.402 192.402 115.129 191.883 114.801 191.359C114.473 190.836 114.145 190.332 113.816 189.848C113.496 189.363 113.223 188.918 112.996 188.512C112.77 188.105 112.656 187.77 112.656 187.504C112.656 187.441 112.664 187.379 112.68 187.316C112.766 187.09 112.969 186.93 113.289 186.836C113.617 186.742 114.004 186.695 114.449 186.695C115.129 186.695 115.844 186.77 116.594 186.918C117.352 187.059 117.922 187.191 118.305 187.316C118.523 187.402 118.699 187.566 118.832 187.809C118.965 188.051 119.074 188.316 119.16 188.605C119.254 188.887 119.34 189.133 119.418 189.344C119.496 189.555 119.594 189.66 119.711 189.66ZM132.672 191.148C132.492 190.812 132.191 190.652 131.77 190.668C131.348 190.676 130.883 190.758 130.375 190.914C129.867 191.062 129.395 191.184 128.957 191.277C128.52 191.371 128.195 191.328 127.984 191.148C127.836 190.992 127.695 190.762 127.562 190.457C127.43 190.145 127.32 189.797 127.234 189.414C127.156 189.023 127.117 188.641 127.117 188.266C127.117 187.844 127.184 187.469 127.316 187.141C127.449 186.805 127.672 186.578 127.984 186.461C128.609 186.266 129.57 186.121 130.867 186.027C132.164 185.926 133.547 185.875 135.016 185.875C136.477 185.875 137.855 185.926 139.152 186.027C140.457 186.121 141.422 186.266 142.047 186.461C142.359 186.578 142.582 186.801 142.715 187.129C142.848 187.457 142.914 187.832 142.914 188.254C142.914 188.48 142.898 188.711 142.867 188.945C142.836 189.18 142.793 189.41 142.738 189.637C142.684 189.855 142.617 190.062 142.539 190.258C142.469 190.453 142.391 190.629 142.305 190.785C142.227 190.934 142.141 191.055 142.047 191.148C141.836 191.328 141.512 191.371 141.074 191.277C140.645 191.184 140.176 191.062 139.668 190.914C139.16 190.758 138.691 190.676 138.262 190.668C137.84 190.652 137.539 190.812 137.359 191.148C137.172 191.578 137.098 192.242 137.137 193.141C137.176 194.031 137.25 195 137.359 196.047C137.469 197.086 137.543 198.055 137.582 198.953C137.621 199.844 137.547 200.508 137.359 200.945C137.18 201.297 136.871 201.562 136.434 201.742C135.996 201.914 135.523 202 135.016 202C134.516 202 134.047 201.914 133.609 201.742C133.172 201.562 132.859 201.297 132.672 200.945C132.484 200.508 132.41 199.844 132.449 198.953C132.488 198.055 132.562 197.086 132.672 196.047C132.781 195 132.855 194.031 132.895 193.141C132.934 192.242 132.859 191.578 132.672 191.148ZM145.023 188.559C145.938 187.652 146.871 187.012 147.824 186.637C148.785 186.254 149.719 186.062 150.625 186.062C151.602 186.062 152.516 186.223 153.367 186.543C154.219 186.863 154.945 187.25 155.547 187.703C156.156 188.156 156.594 188.594 156.859 189.016C157.328 189.773 157.672 190.539 157.891 191.312C158.109 192.086 158.219 192.859 158.219 193.633C158.219 194.555 158.086 195.465 157.82 196.363C157.562 197.262 157.215 198.137 156.777 198.988C156.254 199.941 155.422 200.684 154.281 201.215C153.141 201.738 151.91 202 150.59 202C149.723 202 148.867 201.879 148.023 201.637C147.188 201.387 146.426 201 145.738 200.477C144.801 199.742 144.094 198.812 143.617 197.688C143.148 196.555 142.914 195.379 142.914 194.16C142.914 193.113 143.086 192.102 143.43 191.125C143.781 190.148 144.312 189.293 145.023 188.559ZM148.668 192.355C148.145 192.91 147.906 193.582 147.953 194.371C148 195.152 148.316 195.781 148.902 196.258C149.535 196.68 150.234 196.836 151 196.727C151.773 196.617 152.32 196.297 152.641 195.766C152.922 195.25 153.082 194.715 153.121 194.16C153.16 193.598 153.008 193.047 152.664 192.508C152.516 192.266 152.227 192.039 151.797 191.828C151.375 191.609 150.883 191.516 150.32 191.547C149.766 191.578 149.215 191.848 148.668 192.355ZM161.195 188.559C162.109 187.652 163.043 187.012 163.996 186.637C164.957 186.254 165.891 186.062 166.797 186.062C167.773 186.062 168.688 186.223 169.539 186.543C170.391 186.863 171.117 187.25 171.719 187.703C172.328 188.156 172.766 188.594 173.031 189.016C173.5 189.773 173.844 190.539 174.062 191.312C174.281 192.086 174.391 192.859 174.391 193.633C174.391 194.555 174.258 195.465 173.992 196.363C173.734 197.262 173.387 198.137 172.949 198.988C172.426 199.941 171.594 200.684 170.453 201.215C169.312 201.738 168.082 202 166.762 202C165.895 202 165.039 201.879 164.195 201.637C163.359 201.387 162.598 201 161.91 200.477C160.973 199.742 160.266 198.812 159.789 197.688C159.32 196.555 159.086 195.379 159.086 194.16C159.086 193.113 159.258 192.102 159.602 191.125C159.953 190.148 160.484 189.293 161.195 188.559ZM164.84 192.355C164.316 192.91 164.078 193.582 164.125 194.371C164.172 195.152 164.488 195.781 165.074 196.258C165.707 196.68 166.406 196.836 167.172 196.727C167.945 196.617 168.492 196.297 168.812 195.766C169.094 195.25 169.254 194.715 169.293 194.16C169.332 193.598 169.18 193.047 168.836 192.508C168.688 192.266 168.398 192.039 167.969 191.828C167.547 191.609 167.055 191.516 166.492 191.547C165.938 191.578 165.387 191.848 164.84 192.355ZM176.441 200.723C176.043 200.23 175.762 199.508 175.598 198.555C175.434 197.602 175.352 196.551 175.352 195.402C175.352 193.691 175.469 192 175.703 190.328C175.945 188.648 176.191 187.426 176.441 186.66C176.574 186.301 176.852 186.031 177.273 185.852C177.695 185.672 178.16 185.582 178.668 185.582C179.184 185.582 179.672 185.676 180.133 185.863C180.602 186.043 180.934 186.309 181.129 186.66C181.223 186.863 181.281 187.129 181.305 187.457C181.328 187.777 181.324 188.148 181.293 188.57C181.262 188.984 181.215 189.43 181.152 189.906C181.09 190.383 181.027 190.867 180.965 191.359C180.902 191.844 180.848 192.324 180.801 192.801C180.754 193.27 180.727 193.715 180.719 194.137C180.719 194.551 180.75 194.922 180.812 195.25C180.875 195.578 180.98 195.84 181.129 196.035C181.457 196.41 181.957 196.598 182.629 196.598C183.301 196.59 184.027 196.504 184.809 196.34C185.598 196.168 186.324 196.031 186.988 195.93C187.66 195.828 188.16 195.863 188.488 196.035C188.809 196.254 189.055 196.605 189.227 197.09C189.406 197.566 189.496 198.066 189.496 198.59C189.496 199.066 189.414 199.504 189.25 199.902C189.086 200.301 188.832 200.574 188.488 200.723C188.066 200.887 187.445 201.066 186.625 201.262C185.812 201.449 184.895 201.613 183.871 201.754C182.855 201.895 181.855 201.965 180.871 201.965C179.91 201.965 179.031 201.871 178.234 201.684C177.445 201.496 176.848 201.176 176.441 200.723ZM203.23 191.383C202.949 191.57 202.492 191.66 201.859 191.652C201.234 191.645 200.566 191.598 199.855 191.512C199.145 191.418 198.527 191.348 198.004 191.301C197.48 191.254 197.191 191.281 197.137 191.383C197.121 191.43 197.141 191.484 197.195 191.547C197.258 191.602 197.348 191.664 197.465 191.734C197.59 191.805 197.734 191.883 197.898 191.969C198.07 192.047 198.258 192.129 198.461 192.215C198.672 192.301 198.891 192.395 199.117 192.496C199.344 192.59 199.574 192.691 199.809 192.801C200.051 192.902 200.289 193.008 200.523 193.117C200.758 193.227 200.984 193.34 201.203 193.457C201.422 193.566 201.625 193.68 201.812 193.797C202.008 193.914 202.184 194.031 202.34 194.148C202.902 194.586 203.359 195.09 203.711 195.66C204.062 196.223 204.238 196.871 204.238 197.605C204.238 198.027 204.164 198.488 204.016 198.988C203.875 199.48 203.645 200.008 203.324 200.57C202.98 201.102 202.289 201.473 201.25 201.684C200.219 201.895 199.07 202 197.805 202C196.43 202 195.102 201.918 193.82 201.754C192.547 201.59 191.621 201.414 191.043 201.227C190.707 201.109 190.465 200.867 190.316 200.5C190.168 200.133 190.094 199.723 190.094 199.27C190.094 198.723 190.18 198.191 190.352 197.676C190.531 197.152 190.762 196.773 191.043 196.539C191.137 196.469 191.258 196.414 191.406 196.375C191.562 196.336 191.738 196.312 191.934 196.305C192.129 196.289 192.34 196.285 192.566 196.293C192.801 196.301 193.043 196.316 193.293 196.34C193.543 196.355 193.793 196.379 194.043 196.41C194.301 196.434 194.555 196.461 194.805 196.492C195.055 196.523 195.293 196.555 195.52 196.586C195.746 196.609 195.953 196.629 196.141 196.645C196.336 196.66 196.504 196.672 196.645 196.68C196.793 196.68 196.91 196.668 196.996 196.645C197.082 196.621 197.129 196.586 197.137 196.539C197.121 196.359 196.746 196.105 196.012 195.777C195.285 195.449 194.484 195.074 193.609 194.652C192.734 194.23 192.066 193.789 191.605 193.328C191.23 192.914 190.93 192.398 190.703 191.781C190.484 191.156 190.375 190.512 190.375 189.848C190.375 189.324 190.457 188.82 190.621 188.336C190.785 187.852 191.051 187.43 191.418 187.07C191.855 186.695 192.598 186.43 193.645 186.273C194.699 186.117 195.84 186.039 197.066 186.039C198.34 186.039 199.551 186.102 200.699 186.227C201.848 186.352 202.691 186.508 203.23 186.695C203.559 186.828 203.797 187.078 203.945 187.445C204.094 187.812 204.168 188.223 204.168 188.676C204.168 189.223 204.082 189.754 203.91 190.27C203.738 190.785 203.512 191.156 203.23 191.383Z" fill="black"/>
</svg>
