<svg width="526" height="100" viewBox="0 0 526 100" fill="none" xmlns="http://www.w3.org/2000/svg">
<path d="M33.0269 46.7256C33.7463 47.6387 34.8945 48.2612 36.4717 48.5933C38.0488 48.8976 39.626 48.8976 41.2031 48.5933C42.7803 48.2612 43.9285 47.6387 44.6479 46.7256C45.0353 46.1445 45.2013 45.3006 45.146 44.1938C45.0907 43.0871 44.9385 41.8558 44.6895 40.5C44.4404 39.1165 44.2052 37.7469 43.9839 36.3911C43.7902 35.0076 43.721 33.7625 43.7764 32.6558C43.8317 31.549 44.1222 30.7051 44.6479 30.124C45.5334 29.2939 46.9583 28.5745 48.9229 27.9658C50.8874 27.3571 52.8796 27.0527 54.8994 27.0527C56.3936 27.0527 57.7217 27.2879 58.8838 27.7583C60.0736 28.2287 60.8621 29.0173 61.2495 30.124C61.9412 32.3376 62.467 35.7409 62.8267 40.334C63.1864 44.9271 63.3662 49.8245 63.3662 55.0264C63.3662 60.2005 63.1864 65.098 62.8267 69.7188C62.467 74.3118 61.9412 77.7152 61.2495 79.9287C60.8621 81.0355 60.0736 81.8241 58.8838 82.2944C57.7217 82.7648 56.3797 83 54.8579 83C53.5298 83 52.174 82.8617 50.7905 82.585C49.4347 82.2806 48.2035 81.8932 47.0967 81.4229C46.0176 80.9525 45.2013 80.4544 44.6479 79.9287C43.9839 79.1816 43.6795 78.061 43.7349 76.5669C43.8179 75.0451 44.0254 73.3988 44.3574 71.6279C44.6895 69.8571 44.9385 68.2246 45.1045 66.7305C45.2705 65.2087 45.1183 64.0742 44.6479 63.3271C43.9285 62.3864 42.7803 61.7638 41.2031 61.4595C39.626 61.1551 38.0488 61.1551 36.4717 61.4595C34.8945 61.7638 33.7463 62.3864 33.0269 63.3271C32.6672 63.9082 32.5011 64.7521 32.5288 65.8589C32.5841 66.9657 32.7363 68.2108 32.9854 69.5942C33.2344 70.95 33.4557 72.3197 33.6494 73.7031C33.8708 75.0589 33.9538 76.2902 33.8984 77.397C33.8708 78.5037 33.5802 79.3477 33.0269 79.9287C32.4735 80.4544 31.6434 80.9525 30.5366 81.4229C29.4575 81.8932 28.2262 82.2806 26.8428 82.585C25.487 82.8617 24.145 83 22.8169 83C21.3228 83 19.9808 82.7648 18.791 82.2944C17.6289 81.8241 16.8403 81.0355 16.4253 79.9287C15.7336 77.7152 15.2078 74.3118 14.8481 69.7188C14.5161 65.098 14.3501 60.2005 14.3501 55.0264C14.3501 49.8245 14.5161 44.9271 14.8481 40.334C15.2078 35.7409 15.7336 32.3376 16.4253 30.124C16.8403 29.0173 17.6289 28.2287 18.791 27.7583C19.9808 27.2879 21.3228 27.0527 22.8169 27.0527C23.6193 27.0527 24.4355 27.1081 25.2656 27.2188C26.0957 27.3294 26.8981 27.4816 27.6729 27.6753C28.4753 27.869 29.2223 28.1042 29.9141 28.3809C30.6058 28.6299 31.2145 28.9066 31.7402 29.2109C32.2936 29.4876 32.7225 29.792 33.0269 30.124C33.6909 30.8711 33.9953 32.0055 33.9399 33.5273C33.8846 35.0215 33.6909 36.654 33.3589 38.4248C33.0269 40.1956 32.7778 41.842 32.6118 43.3638C32.4458 44.8579 32.5841 45.9785 33.0269 46.7256ZM74.0327 35.395C77.27 32.1854 80.5765 29.9165 83.9521 28.5884C87.3555 27.2326 90.6619 26.5547 93.8716 26.5547C97.3302 26.5547 100.568 27.1219 103.583 28.2563C106.599 29.3908 109.173 30.7604 111.303 32.3652C113.461 33.9701 115.011 35.5195 115.952 37.0137C117.612 39.6976 118.829 42.4092 119.604 45.1484C120.379 47.8877 120.766 50.627 120.766 53.3662C120.766 56.6312 120.296 59.8547 119.355 63.0366C118.442 66.2186 117.211 69.3175 115.661 72.3335C113.807 75.7091 110.861 78.3377 106.821 80.2192C102.781 82.0731 98.4232 83 93.7471 83C90.6758 83 87.646 82.5711 84.6577 81.7134C81.6971 80.828 78.9993 79.4583 76.5645 77.6045C73.2441 75.0036 70.7401 71.7109 69.0522 67.7266C67.3921 63.7145 66.562 59.5503 66.562 55.2339C66.562 51.5262 67.1707 47.943 68.3882 44.4844C69.6333 41.0257 71.5148 37.9959 74.0327 35.395ZM86.9404 48.8423C85.0866 50.8068 84.2427 53.1864 84.4087 55.981C84.5747 58.7479 85.6953 60.9753 87.7705 62.6631C90.0117 64.1572 92.4881 64.7106 95.1997 64.3232C97.939 63.9359 99.8758 62.8014 101.01 60.9199C102.006 59.0938 102.574 57.1984 102.712 55.2339C102.85 53.2417 102.311 51.291 101.093 49.3818C100.568 48.5241 99.5438 47.7217 98.022 46.9746C96.5278 46.1999 94.7847 45.8678 92.7925 45.9785C90.828 46.0892 88.8773 47.0438 86.9404 48.8423ZM142.39 50.876C142.86 50.876 143.206 49.9906 143.427 48.2197C143.676 46.4489 143.911 44.346 144.133 41.9111C144.382 39.4762 144.728 37.1797 145.17 35.0215C145.613 32.8633 146.277 31.3138 147.163 30.373C148.076 29.5153 149.279 28.8789 150.773 28.4639C152.268 28.0212 153.831 27.7998 155.463 27.7998C157.096 27.7998 158.659 28.0212 160.153 28.4639C161.647 28.8789 162.851 29.5153 163.764 30.373C164.65 31.3138 165.314 32.8633 165.756 35.0215C166.199 37.1797 166.531 39.4762 166.752 41.9111C167.001 44.346 167.237 46.4489 167.458 48.2197C167.707 49.9906 168.067 50.876 168.537 50.876C168.924 50.876 169.284 50.2811 169.616 49.0913C169.948 47.9015 170.294 46.4212 170.654 44.6504C171.014 42.8519 171.415 40.998 171.857 39.0889C172.3 37.152 172.798 35.395 173.352 33.8179C173.933 32.2407 174.611 31.0924 175.385 30.373C176.547 29.4046 178.18 28.6022 180.283 27.9658C182.386 27.3018 184.419 26.9697 186.384 26.9697C187.933 26.9697 189.248 27.2326 190.327 27.7583C191.433 28.2563 191.987 29.1279 191.987 30.373C191.987 33.14 190.977 37.9821 188.957 44.8994C186.965 51.8167 184.682 58.6649 182.109 65.4438C179.563 72.1951 177.322 77.1064 175.385 80.1777C174.721 81.1462 173.78 81.8379 172.563 82.2529C171.373 82.668 170.073 82.8755 168.662 82.8755C167.417 82.8755 166.144 82.751 164.843 82.502C163.57 82.2253 162.408 81.8932 161.357 81.5059C160.306 81.0908 159.448 80.6481 158.784 80.1777C158.12 79.6797 157.608 78.8911 157.248 77.812C156.916 76.7052 156.667 75.4878 156.501 74.1597C156.335 72.8039 156.21 71.5034 156.127 70.2583C156.072 69.0132 156.003 67.9894 155.92 67.187C155.837 66.3569 155.685 65.9419 155.463 65.9419C155.187 65.9419 155.007 66.5645 154.924 67.8096C154.841 69.027 154.744 70.4797 154.633 72.1675C154.523 73.8553 154.274 75.4601 153.886 76.9819C153.527 78.4761 152.945 79.5413 152.143 80.1777C151.119 80.8971 149.681 81.5335 147.827 82.0869C146 82.6126 144.147 82.8755 142.265 82.8755C140.854 82.8755 139.54 82.668 138.322 82.2529C137.132 81.8379 136.206 81.1462 135.542 80.1777C133.605 77.1064 131.35 72.1951 128.776 65.4438C126.231 58.6649 123.948 51.8167 121.928 44.8994C119.936 37.9821 118.94 33.14 118.94 30.373C118.94 29.1279 119.479 28.2563 120.559 27.7583C121.665 27.2326 122.993 26.9697 124.543 26.9697C126.507 26.9697 128.541 27.3018 130.644 27.9658C132.747 28.6022 134.379 29.4046 135.542 30.373C136.095 30.8711 136.593 31.6043 137.036 32.5728C137.478 33.5412 137.88 34.6618 138.239 35.9346C138.627 37.1797 138.959 38.494 139.235 39.8774C139.54 41.2332 139.816 42.5614 140.065 43.8618C140.342 45.1623 140.605 46.3382 140.854 47.3896C141.103 48.4411 141.352 49.285 141.601 49.9214C141.85 50.5578 142.113 50.876 142.39 50.876ZM236.313 44.5674C235.677 43.3776 234.611 42.8104 233.117 42.8657C231.623 42.8934 229.977 43.1839 228.178 43.7373C226.38 44.263 224.706 44.6919 223.156 45.0239C221.607 45.356 220.458 45.2038 219.711 44.5674C219.186 44.014 218.688 43.1978 218.217 42.1187C217.747 41.0119 217.36 39.7806 217.055 38.4248C216.778 37.0413 216.64 35.6855 216.64 34.3574C216.64 32.8633 216.875 31.5352 217.346 30.373C217.816 29.1833 218.605 28.3809 219.711 27.9658C221.925 27.2741 225.328 26.7622 229.921 26.4302C234.514 26.0705 239.412 25.8906 244.614 25.8906C249.788 25.8906 254.672 26.0705 259.265 26.4302C263.885 26.7622 267.303 27.2741 269.516 27.9658C270.623 28.3809 271.411 29.1694 271.882 30.3315C272.352 31.4937 272.587 32.8218 272.587 34.3159C272.587 35.1183 272.532 35.9346 272.421 36.7646C272.311 37.5947 272.159 38.411 271.965 39.2134C271.771 39.9881 271.536 40.7214 271.259 41.4131C271.01 42.1048 270.734 42.7274 270.429 43.2808C270.153 43.8065 269.848 44.2354 269.516 44.5674C268.769 45.2038 267.621 45.356 266.071 45.0239C264.549 44.6919 262.889 44.263 261.091 43.7373C259.292 43.1839 257.632 42.8934 256.11 42.8657C254.616 42.8104 253.551 43.3776 252.915 44.5674C252.25 46.0892 251.988 48.4411 252.126 51.623C252.264 54.7773 252.527 58.2083 252.915 61.916C253.302 65.596 253.565 69.027 253.703 72.209C253.841 75.3633 253.579 77.7152 252.915 79.2646C252.278 80.5098 251.185 81.4505 249.636 82.0869C248.086 82.6956 246.412 83 244.614 83C242.843 83 241.183 82.6956 239.633 82.0869C238.084 81.4505 236.977 80.5098 236.313 79.2646C235.649 77.7152 235.386 75.3633 235.524 72.209C235.663 69.027 235.926 65.596 236.313 61.916C236.7 58.2083 236.963 54.7773 237.102 51.623C237.24 48.4411 236.977 46.0892 236.313 44.5674ZM280.058 35.395C283.295 32.1854 286.602 29.9165 289.978 28.5884C293.381 27.2326 296.687 26.5547 299.897 26.5547C303.356 26.5547 306.593 27.1219 309.609 28.2563C312.625 29.3908 315.198 30.7604 317.329 32.3652C319.487 33.9701 321.036 35.5195 321.977 37.0137C323.637 39.6976 324.855 42.4092 325.629 45.1484C326.404 47.8877 326.792 50.627 326.792 53.3662C326.792 56.6312 326.321 59.8547 325.38 63.0366C324.467 66.2186 323.236 69.3175 321.687 72.3335C319.833 75.7091 316.886 78.3377 312.846 80.2192C308.806 82.0731 304.449 83 299.772 83C296.701 83 293.671 82.5711 290.683 81.7134C287.722 80.828 285.025 79.4583 282.59 77.6045C279.27 75.0036 276.765 71.7109 275.078 67.7266C273.417 63.7145 272.587 59.5503 272.587 55.2339C272.587 51.5262 273.196 47.943 274.414 44.4844C275.659 41.0257 277.54 37.9959 280.058 35.395ZM292.966 48.8423C291.112 50.8068 290.268 53.1864 290.434 55.981C290.6 58.7479 291.721 60.9753 293.796 62.6631C296.037 64.1572 298.514 64.7106 301.225 64.3232C303.964 63.9359 305.901 62.8014 307.036 60.9199C308.032 59.0938 308.599 57.1984 308.737 55.2339C308.876 53.2417 308.336 51.291 307.119 49.3818C306.593 48.5241 305.569 47.7217 304.047 46.9746C302.553 46.1999 300.81 45.8678 298.818 45.9785C296.853 46.0892 294.903 47.0438 292.966 48.8423ZM380.166 82.7095C378.699 82.9032 376.97 83 374.978 83C372.183 83 369.347 82.9032 366.469 82.7095C363.619 82.4881 361.641 82.3636 360.534 82.3359C358.874 82.3083 357.366 81.9762 356.01 81.3398C354.654 80.6758 353.755 79.6935 353.312 78.3931C352.897 77.0096 352.552 75.0866 352.275 72.624C351.998 70.1338 351.791 67.2977 351.652 64.1157C351.514 60.9338 351.445 57.6688 351.445 54.3208C351.445 51.0005 351.514 47.7493 351.652 44.5674C351.791 41.3854 351.998 38.5493 352.275 36.0591C352.552 33.5688 352.897 31.632 353.312 30.2485C353.755 28.9481 354.696 27.9797 356.135 27.3433C357.574 26.6792 359.123 26.3472 360.783 26.3472H361.24C361.959 26.3748 363.232 26.3748 365.058 26.3472C366.912 26.2918 368.932 26.2642 371.118 26.2642C372.861 26.2642 374.59 26.2918 376.306 26.3472C379.405 26.3472 382.282 26.7069 384.938 27.4263C387.622 28.1457 389.919 29.0173 391.828 30.041C393.765 31.0648 395.148 32.047 395.979 32.9878C397.473 34.7033 398.552 36.4326 399.216 38.1758C399.908 39.8913 400.253 41.6206 400.253 43.3638C400.253 45.2176 399.908 47.0715 399.216 48.9253C398.552 50.7515 397.639 52.5361 396.477 54.2793C397.805 55.8841 398.759 57.5166 399.34 59.1768C399.949 60.8092 400.253 62.4417 400.253 64.0742C400.253 66.1494 399.838 68.1969 399.008 70.2168C398.206 72.2367 397.099 74.2012 395.688 76.1104C394.332 77.9365 392.271 79.4168 389.504 80.5513C386.737 81.658 383.624 82.3774 380.166 82.7095ZM380.166 66.5229C381.743 65.8035 382.517 64.7244 382.49 63.2856C382.462 61.8192 381.687 60.7954 380.166 60.2144C379.031 59.91 377.495 59.7163 375.559 59.6333C373.622 59.5226 372.128 59.7163 371.076 60.2144C370.495 60.6017 370.094 61.2243 369.873 62.082C369.679 62.9398 369.679 63.7975 369.873 64.6553C370.094 65.513 370.495 66.1356 371.076 66.5229C372.128 67.0487 373.622 67.2839 375.559 67.2285C377.523 67.1732 379.059 66.938 380.166 66.5229ZM379.003 48.7593C380.83 48.1229 381.743 47.0853 381.743 45.6465C381.743 44.18 380.83 43.1147 379.003 42.4507C377.924 42.1463 376.582 41.9526 374.978 41.8696C373.373 41.759 372.072 41.9526 371.076 42.4507C370.495 42.8381 370.094 43.4606 369.873 44.3184C369.679 45.1761 369.679 46.0339 369.873 46.8916C370.094 47.7493 370.495 48.3719 371.076 48.7593C372.072 49.2573 373.373 49.4648 374.978 49.3818C376.582 49.2988 377.924 49.0913 379.003 48.7593ZM429.472 66.3569C430.579 66.3569 431.506 66.0941 432.253 65.5684C433.028 65.015 433.664 64.2541 434.162 63.2856C434.66 62.2896 435.048 61.1413 435.324 59.8408C435.601 58.5127 435.795 57.0877 435.905 55.5659C436.016 54.0441 436.085 52.467 436.113 50.8345C436.14 49.1743 436.14 47.5142 436.113 45.854C436.085 44.1938 436.071 42.589 436.071 41.0396C436.071 39.4901 436.113 38.0513 436.196 36.7231C436.279 35.3674 436.417 34.1776 436.611 33.1538C436.832 32.13 437.15 31.3138 437.565 30.7051C438.451 29.5153 439.807 28.5884 441.633 27.9243C443.487 27.2603 445.354 26.9282 447.236 26.9282C448.979 26.9282 450.501 27.2326 451.801 27.8413C453.129 28.45 453.918 29.4046 454.167 30.7051C454.388 32.0885 454.637 34.1776 454.914 36.9722C455.218 39.7668 455.371 42.9349 455.371 46.4766C455.371 49.6032 455.163 52.8682 454.748 56.2715C454.361 59.6748 453.627 62.9674 452.548 66.1494C451.497 69.3037 450.003 72.1536 448.066 74.6992C446.129 77.2171 443.653 79.237 440.637 80.7588C437.621 82.2529 433.941 83 429.597 83H429.431C423.924 82.8893 419.456 81.6027 416.025 79.1401C412.594 76.6499 409.965 73.4541 408.139 69.5527C406.341 65.6237 405.109 61.418 404.445 56.9355C403.809 52.4531 403.491 48.2336 403.491 44.2769C403.491 41.2056 403.588 38.4801 403.781 36.1006C404.003 33.721 404.196 31.9225 404.362 30.7051C404.584 29.4046 405.345 28.45 406.645 27.8413C407.973 27.2326 409.509 26.9282 411.252 26.9282C413.133 26.9282 415.001 27.2603 416.855 27.9243C418.709 28.5884 420.078 29.5153 420.964 30.7051C421.766 31.9502 422.237 33.9424 422.375 36.6816C422.541 39.3932 422.61 42.423 422.583 45.771C422.555 49.119 422.666 52.3563 422.915 55.4829C423.164 58.5819 423.772 61.1551 424.741 63.2026C425.737 65.2225 427.314 66.2739 429.472 66.3569ZM492.973 64.3232C492.475 66.1217 492.461 68.1278 492.932 70.3413C493.402 72.5549 493.776 74.63 494.052 76.5669C494.357 78.4761 493.997 79.9287 492.973 80.9248C492.088 81.6165 490.718 82.1423 488.864 82.502C487.038 82.834 485.087 83 483.012 83C480.937 83 478.972 82.834 477.119 82.502C475.292 82.1423 473.937 81.6165 473.051 80.9248C472.028 79.9287 471.654 78.4761 471.931 76.5669C472.235 74.63 472.622 72.5549 473.093 70.3413C473.563 68.1278 473.549 66.1217 473.051 64.3232C472.47 62.6354 471.543 60.6294 470.271 58.3052C468.998 55.9533 467.573 53.4631 465.996 50.8345C464.446 48.1782 462.938 45.5773 461.472 43.0317C460.033 40.4862 458.829 38.1896 457.861 36.1421C456.92 34.0669 456.45 32.4482 456.45 31.2861V31.1201C456.56 29.958 457.155 29.1418 458.234 28.6714C459.313 28.1733 460.655 27.9243 462.26 27.9243C463.339 27.9243 464.474 28.0212 465.664 28.2148C466.853 28.3809 468.015 28.616 469.15 28.9204C470.284 29.2248 471.336 29.5706 472.304 29.958C473.273 30.3177 474.075 30.7051 474.711 31.1201C475.597 31.7012 476.358 32.6281 476.994 33.9009C477.658 35.1737 478.239 36.5986 478.737 38.1758C479.263 39.7253 479.733 41.2332 480.148 42.6997C480.591 44.1385 481.034 45.3421 481.477 46.3105C481.947 47.2513 482.459 47.7217 483.012 47.7217C483.704 47.7217 484.313 47.0023 484.838 45.5635C485.392 44.1247 485.959 42.423 486.54 40.4585C487.121 38.494 487.785 36.6401 488.532 34.897C489.279 33.1261 490.206 31.8672 491.313 31.1201C492.198 30.5667 493.333 30.0549 494.716 29.5845C496.127 29.0864 497.622 28.6852 499.199 28.3809C500.804 28.0765 502.339 27.9243 503.806 27.9243C505.383 27.9243 506.711 28.1733 507.79 28.6714C508.897 29.1418 509.492 29.958 509.575 31.1201V31.2861C509.575 32.7249 508.855 34.8555 507.417 37.6777C505.978 40.5 504.276 43.5713 502.312 46.8916C500.347 50.2119 498.479 53.4215 496.708 56.5205C494.965 59.5918 493.72 62.1927 492.973 64.3232Z" fill="black"/>
</svg>
