<svg width="404" height="121" viewBox="0 0 404 121" fill="none" xmlns="http://www.w3.org/2000/svg">
<rect x="2.5" y="119" width="238" height="399" rx="78" transform="rotate(-90 2.5 119)" fill="white" stroke="black" stroke-width="4"/>
<path d="M76.4751 89.6567C74.9644 87.7905 73.8979 85.0505 73.2759 81.4365C72.6538 77.8226 72.3428 73.8384 72.3428 69.4839C72.3428 62.9966 72.7871 56.5833 73.6758 50.2441C74.5941 43.8753 75.5272 39.2394 76.4751 36.3364C76.9787 34.9738 78.0303 33.9518 79.6299 33.2705C81.2295 32.5892 82.992 32.2485 84.9175 32.2485C86.8726 32.2485 88.724 32.604 90.4717 33.3149C92.249 33.9963 93.508 35.0034 94.2485 36.3364C94.604 37.1066 94.8262 38.1138 94.915 39.3579C95.0039 40.5724 94.9891 41.9795 94.8706 43.5791C94.7521 45.1491 94.5744 46.8376 94.3374 48.6445C94.1004 50.4515 93.8634 52.2881 93.6265 54.1543C93.3895 55.9909 93.1821 57.8127 93.0044 59.6196C92.8267 61.397 92.723 63.0854 92.6934 64.6851C92.6934 66.255 92.8118 67.6621 93.0488 68.9062C93.2858 70.1504 93.6857 71.1427 94.2485 71.8833C95.4927 73.3052 97.3885 74.0161 99.936 74.0161C102.484 73.9865 105.238 73.6606 108.201 73.0386C111.193 72.3869 113.947 71.8685 116.465 71.4834C119.013 71.0983 120.909 71.2316 122.153 71.8833C123.367 72.7127 124.3 74.0457 124.952 75.8823C125.633 77.6893 125.974 79.5851 125.974 81.5698C125.974 83.3768 125.663 85.0356 125.041 86.5464C124.419 88.0571 123.456 89.0939 122.153 89.6567C120.553 90.2788 118.198 90.9601 115.088 91.7007C112.007 92.4116 108.527 93.0337 104.646 93.5669C100.795 94.1001 97.0034 94.3667 93.271 94.3667C89.6274 94.3667 86.2949 94.0112 83.2734 93.3003C80.2816 92.5894 78.0155 91.3748 76.4751 89.6567ZM148.235 38.7358C148.976 41.0168 149.539 44.5418 149.924 49.311C150.309 54.0802 150.501 59.1457 150.501 64.5073C150.501 69.8986 150.309 74.9788 149.924 79.748C149.539 84.4876 148.976 87.9979 148.235 90.2788C147.702 91.7007 146.576 92.7671 144.858 93.478C143.17 94.1593 141.333 94.5 139.349 94.5C137.364 94.5 135.513 94.1593 133.794 93.478C132.106 92.7671 130.995 91.7007 130.462 90.2788C129.988 88.7977 129.573 86.7389 129.218 84.1025C128.892 81.4365 128.64 78.4002 128.462 74.9937C128.314 71.5871 128.24 68.0916 128.24 64.5073C128.24 60.9526 128.314 57.472 128.462 54.0654C128.64 50.6589 128.892 47.6226 129.218 44.9565C129.573 42.2905 129.988 40.217 130.462 38.7358C130.995 37.3436 132.106 36.292 133.794 35.5811C135.513 34.8701 137.364 34.5146 139.349 34.5146C141.333 34.5146 143.17 34.8701 144.858 35.5811C146.576 36.292 147.702 37.3436 148.235 38.7358ZM175.384 66.7734C174.999 66.7734 174.792 67.2622 174.762 68.2397C174.762 69.2173 174.851 70.491 175.029 72.061C175.207 73.631 175.399 75.3343 175.606 77.1709C175.843 79.0075 176.036 80.8145 176.184 82.5918C176.332 84.3691 176.362 85.9687 176.273 87.3906C176.184 88.7829 175.888 89.8197 175.384 90.501C174.525 91.597 173.118 92.4709 171.163 93.1226C169.208 93.7743 167.194 94.1001 165.12 94.1001C163.372 94.1001 161.802 93.8187 160.41 93.2559C159.018 92.693 158.085 91.7747 157.611 90.501C156.841 88.0127 156.233 84.1618 155.789 78.9482C155.374 73.7051 155.167 68.1805 155.167 62.3745C155.167 58.8494 155.256 55.4281 155.434 52.1104C155.611 48.7926 155.878 45.8452 156.233 43.2681C156.589 40.6613 157.048 38.6322 157.611 37.1807C158.233 35.7292 159.255 34.6924 160.677 34.0703C162.099 33.4482 163.728 33.1372 165.564 33.1372C167.875 33.1372 170.245 33.5371 172.674 34.3369C175.132 35.1071 177.221 36.055 178.939 37.1807C179.68 37.6842 180.42 38.41 181.161 39.3579C181.901 40.2762 182.627 41.3426 183.338 42.5571C184.049 43.7716 184.745 45.0602 185.426 46.4229C186.108 47.7855 186.759 49.1481 187.381 50.5107C188.033 51.8734 188.64 53.1768 189.203 54.4209C189.766 55.665 190.284 56.7759 190.758 57.7534C191.262 58.7013 191.706 59.4567 192.091 60.0195C192.506 60.5824 192.861 60.8638 193.158 60.8638C193.75 60.8638 193.958 59.8418 193.78 57.7979C193.602 55.7539 193.321 53.3249 192.936 50.5107C192.55 47.6966 192.313 45.0454 192.225 42.5571C192.165 40.0392 192.476 38.2471 193.158 37.1807C194.046 36.0846 195.468 35.2108 197.423 34.5591C199.378 33.8778 201.393 33.5371 203.466 33.5371C205.184 33.5371 206.74 33.8333 208.132 34.4258C209.524 34.9886 210.457 35.9069 210.931 37.1807C211.731 39.6689 212.338 43.5347 212.753 48.7778C213.168 53.9914 213.375 59.5011 213.375 65.3071C213.375 68.8322 213.286 72.2536 213.108 75.5713C212.96 78.889 212.694 81.8512 212.309 84.458C211.953 87.0352 211.494 89.0495 210.931 90.501C210.339 91.9229 209.332 92.9448 207.91 93.5669C206.488 94.189 204.859 94.5 203.022 94.5C200.711 94.5 198.327 94.1149 195.868 93.3447C193.41 92.5745 191.321 91.6266 189.603 90.501C188.122 89.4049 186.656 87.6128 185.204 85.1245C183.782 82.6362 182.434 79.985 181.161 77.1709C179.887 74.3568 178.746 71.9277 177.739 69.8838C176.762 67.8102 175.977 66.7734 175.384 66.7734ZM237.991 53.7988C238.584 53.7988 239.369 53.1175 240.346 51.7549C241.353 50.3626 242.494 48.7334 243.768 46.8672C245.041 45.001 246.389 43.2384 247.811 41.5796C249.263 39.8911 250.729 38.6914 252.21 37.9805C256.92 36.1735 261.704 35.27 266.562 35.27C268.458 35.27 270.057 35.4774 271.361 35.8921C272.694 36.3068 273.42 37.0029 273.538 37.9805V38.1582C273.538 39.0765 272.901 40.291 271.627 41.8018C270.383 43.3125 268.828 45.0158 266.962 46.9116C265.125 48.8075 263.289 50.7922 261.452 52.8657C259.616 54.9097 258.06 56.9536 256.787 58.9976C255.513 61.0119 254.876 62.8929 254.876 64.6406C254.876 65.8848 255.217 67.2178 255.898 68.6396C256.579 70.0319 257.468 71.4686 258.564 72.9497C259.69 74.4012 260.904 75.8527 262.208 77.3042C263.541 78.7557 264.874 80.1776 266.207 81.5698C267.54 82.9325 268.754 84.221 269.85 85.4355C270.946 86.6204 271.835 87.7017 272.516 88.6792C273.197 89.6567 273.538 90.4714 273.538 91.123V91.3008C273.42 92.2783 272.694 92.9744 271.361 93.3892C270.057 93.8039 268.458 94.0112 266.562 94.0112C261.704 94.0112 256.92 93.1077 252.21 91.3008C250.729 90.5898 249.263 89.4049 247.811 87.7461C246.389 86.0576 245.041 84.2803 243.768 82.4141C242.494 80.5479 241.353 78.9334 240.346 77.5708C239.369 76.2082 238.584 75.5269 237.991 75.5269C237.399 75.5269 237.191 76.2082 237.369 77.5708C237.576 78.9334 237.858 80.5479 238.213 82.4141C238.598 84.2803 238.835 86.0576 238.924 87.7461C239.013 89.4049 238.702 90.5898 237.991 91.3008C237.043 92.1006 235.473 92.8411 233.281 93.5225C231.119 94.1742 228.956 94.5 226.794 94.5C225.254 94.5 223.876 94.263 222.662 93.7891C221.447 93.2855 220.632 92.4561 220.218 91.3008C219.477 88.931 218.914 85.2874 218.529 80.3701C218.174 75.4232 217.996 70.18 217.996 64.6406C217.996 59.0716 218.174 53.8285 218.529 48.9111C218.914 43.9938 219.477 40.3503 220.218 37.9805C220.632 36.8252 221.447 36.0106 222.662 35.5366C223.876 35.033 225.254 34.7812 226.794 34.7812C228.245 34.7812 229.727 34.9442 231.237 35.27C232.748 35.5959 234.096 35.9958 235.281 36.4697C236.495 36.9437 237.399 37.4473 237.991 37.9805C238.702 38.6914 239.013 39.8911 238.924 41.5796C238.835 43.2384 238.598 45.001 238.213 46.8672C237.858 48.7334 237.576 50.3626 237.369 51.7549C237.191 53.1175 237.399 53.7988 237.991 53.7988ZM325.57 54.2432C324.503 54.9541 322.771 55.2948 320.371 55.2651C318.001 55.2355 315.469 55.0578 312.773 54.7319C310.077 54.3765 307.737 54.1099 305.752 53.9321C303.768 53.7544 302.672 53.8581 302.464 54.2432C302.405 54.4209 302.479 54.6283 302.687 54.8652C302.924 55.0726 303.264 55.3096 303.708 55.5762C304.182 55.8428 304.73 56.139 305.353 56.4648C306.004 56.7611 306.715 57.0721 307.485 57.3979C308.285 57.7238 309.115 58.0793 309.974 58.4644C310.833 58.8198 311.707 59.2049 312.595 59.6196C313.514 60.0047 314.417 60.4046 315.306 60.8193C316.194 61.234 317.053 61.6636 317.883 62.1079C318.712 62.5226 319.482 62.9521 320.193 63.3965C320.934 63.8408 321.6 64.2852 322.193 64.7295C324.326 66.3883 326.059 68.299 327.392 70.4614C328.725 72.5942 329.391 75.0529 329.391 77.8374C329.391 79.437 329.11 81.1847 328.547 83.0806C328.014 84.9468 327.14 86.9463 325.925 89.0791C324.622 91.0934 322 92.5005 318.061 93.3003C314.15 94.1001 309.796 94.5 304.997 94.5C299.784 94.5 294.748 94.189 289.89 93.5669C285.061 92.9448 281.551 92.2783 279.359 91.5674C278.085 91.123 277.167 90.2048 276.604 88.8125C276.041 87.4202 275.76 85.8651 275.76 84.147C275.76 82.0734 276.086 80.0591 276.737 78.104C277.419 76.1193 278.292 74.6826 279.359 73.7939C279.714 73.5273 280.174 73.32 280.736 73.1719C281.329 73.0238 281.995 72.9349 282.736 72.9053C283.476 72.846 284.276 72.8312 285.135 72.8608C286.024 72.8905 286.942 72.9497 287.89 73.0386C288.838 73.0978 289.786 73.1867 290.734 73.3052C291.711 73.394 292.674 73.4977 293.622 73.6162C294.57 73.7347 295.473 73.8532 296.333 73.9717C297.192 74.0605 297.977 74.1346 298.688 74.1938C299.428 74.2531 300.065 74.2975 300.598 74.3271C301.161 74.3271 301.605 74.2827 301.931 74.1938C302.257 74.105 302.435 73.9717 302.464 73.7939C302.405 73.1126 300.983 72.1499 298.199 70.9058C295.444 69.6616 292.408 68.2397 289.09 66.6401C285.772 65.0405 283.239 63.3669 281.492 61.6191C280.07 60.0492 278.929 58.0941 278.07 55.7539C277.241 53.3841 276.826 50.9403 276.826 48.4224C276.826 46.4377 277.137 44.527 277.759 42.6904C278.381 40.8538 279.389 39.2542 280.781 37.8916C282.44 36.4697 285.254 35.4626 289.223 34.8701C293.222 34.2777 297.547 33.9814 302.198 33.9814C307.026 33.9814 311.618 34.2184 315.972 34.6924C320.327 35.1663 323.526 35.7588 325.57 36.4697C326.814 36.9733 327.717 37.9212 328.28 39.3135C328.843 40.7057 329.125 42.2609 329.125 43.979C329.125 46.0526 328.799 48.0669 328.147 50.022C327.495 51.9771 326.636 53.3841 325.57 54.2432Z" fill="black"/>
</svg>
