<svg width="135" height="403" viewBox="0 0 135 403" fill="none" xmlns="http://www.w3.org/2000/svg">
<rect x="-105" y="2" width="238" height="399" rx="78" fill="white" stroke="black" stroke-width="4"/>
<path d="M38.8433 104.424C40.7095 102.913 43.4495 101.847 47.0635 101.225C50.6774 100.603 54.6616 100.292 59.0161 100.292C65.5034 100.292 71.9167 100.736 78.2559 101.625C84.6247 102.543 89.2606 103.476 92.1636 104.424C93.5262 104.927 94.5482 105.979 95.2295 107.579C95.9108 109.178 96.2515 110.941 96.2515 112.866C96.2515 114.821 95.896 116.673 95.1851 118.42C94.5037 120.198 93.4966 121.457 92.1636 122.197C91.3934 122.553 90.3862 122.775 89.1421 122.864C87.9276 122.953 86.5205 122.938 84.9209 122.819C83.3509 122.701 81.6624 122.523 79.8555 122.286C78.0485 122.049 76.2119 121.812 74.3457 121.575C72.5091 121.338 70.6873 121.131 68.8804 120.953C67.103 120.775 65.4145 120.672 63.8149 120.642C62.245 120.642 60.8379 120.761 59.5937 120.998C58.3496 121.235 57.3573 121.634 56.6167 122.197C55.1948 123.441 54.4839 125.337 54.4839 127.885C54.5135 130.432 54.8394 133.187 55.4614 136.149C56.1131 139.141 56.6315 141.896 57.0166 144.414C57.4017 146.962 57.2684 148.857 56.6167 150.102C55.7873 151.316 54.4543 152.249 52.6177 152.901C50.8107 153.582 48.9149 153.923 46.9302 153.923C45.1232 153.923 43.4644 153.612 41.9536 152.99C40.4429 152.368 39.4061 151.405 38.8433 150.102C38.2212 148.502 37.5399 146.147 36.7993 143.037C36.0884 139.956 35.4663 136.475 34.9331 132.595C34.3999 128.744 34.1333 124.952 34.1333 121.22C34.1333 117.576 34.4888 114.244 35.1997 111.222C35.9106 108.23 37.1252 105.964 38.8433 104.424ZM89.7642 176.184C87.4832 176.925 83.9582 177.487 79.189 177.873C74.4198 178.258 69.3543 178.45 63.9927 178.45C58.6014 178.45 53.5212 178.258 48.7519 177.873C44.0124 177.487 40.5021 176.925 38.2212 176.184C36.7993 175.651 35.7329 174.525 35.022 172.807C34.3407 171.119 34 169.282 34 167.297C34 165.313 34.3407 163.461 35.022 161.743C35.7329 160.055 36.7993 158.944 38.2212 158.411C39.7023 157.937 41.7611 157.522 44.3975 157.167C47.0635 156.841 50.0998 156.589 53.5063 156.411C56.9129 156.263 60.4084 156.189 63.9927 156.189C67.5474 156.189 71.028 156.263 74.4346 156.411C77.8411 156.589 80.8774 156.841 83.5435 157.167C86.2095 157.522 88.283 157.937 89.7642 158.411C91.1564 158.944 92.208 160.055 92.9189 161.743C93.6299 163.461 93.9853 165.313 93.9853 167.297C93.9853 169.282 93.6299 171.119 92.9189 172.807C92.208 174.525 91.1564 175.651 89.7642 176.184ZM61.7266 203.333C61.7266 202.948 61.2378 202.741 60.2602 202.711C59.2827 202.711 58.0089 202.8 56.439 202.978C54.869 203.155 53.1657 203.348 51.3291 203.555C49.4925 203.792 47.6855 203.985 45.9082 204.133C44.1309 204.281 42.5312 204.311 41.1094 204.222C39.7171 204.133 38.6803 203.837 37.999 203.333C36.903 202.474 36.0291 201.067 35.3774 199.112C34.7257 197.157 34.3999 195.142 34.3999 193.069C34.3999 191.321 34.6813 189.751 35.2441 188.359C35.807 186.967 36.7253 186.034 37.999 185.56C40.4873 184.789 44.3382 184.182 49.5518 183.738C54.7949 183.323 60.3195 183.116 66.1255 183.116C69.6505 183.116 73.0719 183.205 76.3896 183.382C79.7074 183.56 82.6548 183.827 85.2319 184.182C87.8387 184.538 89.8678 184.997 91.3193 185.56C92.7708 186.182 93.8076 187.204 94.4297 188.625C95.0518 190.047 95.3628 191.677 95.3628 193.513C95.3628 195.824 94.9629 198.194 94.1631 200.623C93.3929 203.081 92.445 205.17 91.3193 206.888C90.8158 207.628 90.09 208.369 89.1421 209.109C88.2238 209.85 87.1574 210.576 85.9429 211.287C84.7283 211.998 83.4398 212.694 82.0771 213.375C80.7145 214.056 79.3519 214.708 77.9893 215.33C76.6266 215.982 75.3232 216.589 74.0791 217.152C72.835 217.715 71.7241 218.233 70.7466 218.707C69.7987 219.211 69.0433 219.655 68.4805 220.04C67.9176 220.455 67.6362 220.81 67.6362 221.106C67.6362 221.699 68.6582 221.906 70.7021 221.729C72.7461 221.551 75.1751 221.269 77.9893 220.884C80.8034 220.499 83.4546 220.262 85.9429 220.173C88.4608 220.114 90.2529 220.425 91.3193 221.106C92.4154 221.995 93.2892 223.417 93.9409 225.372C94.6222 227.327 94.9629 229.341 94.9629 231.415C94.9629 233.133 94.6667 234.688 94.0742 236.081C93.5114 237.473 92.5931 238.406 91.3193 238.88C88.831 239.68 84.9653 240.287 79.7222 240.702C74.5086 241.116 68.9989 241.324 63.1929 241.324C59.6678 241.324 56.2464 241.235 52.9287 241.057C49.611 240.909 46.6488 240.642 44.042 240.257C41.4648 239.902 39.4505 239.443 37.999 238.88C36.5771 238.287 35.5552 237.28 34.9331 235.858C34.311 234.437 34 232.807 34 230.971C34 228.66 34.3851 226.276 35.1553 223.817C35.9255 221.358 36.8734 219.27 37.999 217.552C39.095 216.071 40.8872 214.604 43.3755 213.153C45.8638 211.731 48.515 210.383 51.3291 209.109C54.1432 207.836 56.5723 206.695 58.6162 205.688C60.6898 204.71 61.7266 203.925 61.7266 203.333ZM74.7012 265.94C74.7012 266.532 75.3825 267.317 76.7451 268.295C78.1374 269.302 79.7666 270.443 81.6328 271.716C83.499 272.99 85.2615 274.338 86.9204 275.76C88.6089 277.211 89.8086 278.678 90.5195 280.159C92.3265 284.869 93.23 289.653 93.23 294.511C93.23 296.407 93.0226 298.006 92.6079 299.31C92.1932 300.643 91.4971 301.368 90.5195 301.487L90.3418 301.487C89.4235 301.487 88.209 300.85 86.6982 299.576C85.1875 298.332 83.4842 296.777 81.5884 294.911C79.6925 293.074 77.7078 291.237 75.6343 289.401C73.5903 287.564 71.5464 286.009 69.5024 284.735C67.4881 283.462 65.6071 282.825 63.8594 282.825C62.6152 282.825 61.2822 283.165 59.8603 283.847C58.4681 284.528 57.0314 285.417 55.5503 286.513C54.0988 287.638 52.6473 288.853 51.1958 290.156C49.7443 291.489 48.3224 292.822 46.9302 294.155C45.5675 295.488 44.279 296.703 43.0644 297.799C41.8795 298.895 40.7983 299.784 39.8208 300.465C38.8433 301.146 38.0286 301.487 37.3769 301.487L37.1992 301.487C36.2217 301.368 35.5255 300.643 35.1108 299.31C34.6961 298.006 34.4888 296.407 34.4888 294.511C34.4888 289.653 35.3922 284.869 37.1992 280.159C37.9101 278.678 39.095 277.211 40.7539 275.76C42.4424 274.338 44.2197 272.99 46.0859 271.716C47.9521 270.443 49.5666 269.302 50.9292 268.295C52.2918 267.317 52.9731 266.532 52.9731 265.94C52.9731 265.347 52.2918 265.14 50.9292 265.318C49.5666 265.525 47.9521 265.807 46.0859 266.162C44.2197 266.547 42.4424 266.784 40.7539 266.873C39.095 266.962 37.9101 266.651 37.1992 265.94C36.3994 264.992 35.6588 263.422 34.9775 261.23C34.3258 259.068 34 256.905 34 254.743C34 253.202 34.237 251.825 34.7109 250.61C35.2145 249.396 36.0439 248.581 37.1992 248.167C39.569 247.426 43.2126 246.863 48.1299 246.478C53.0768 246.123 58.32 245.945 63.8594 245.945C69.4284 245.945 74.6715 246.123 79.5889 246.478C84.5062 246.863 88.1497 247.426 90.5195 248.167C91.6748 248.581 92.4894 249.396 92.9634 250.61C93.467 251.825 93.7187 253.202 93.7187 254.743C93.7187 256.194 93.5558 257.675 93.23 259.186C92.9041 260.697 92.5042 262.045 92.0303 263.229C91.5563 264.444 91.0527 265.347 90.5195 265.94C89.8086 266.651 88.6089 266.962 86.9204 266.873C85.2615 266.784 83.499 266.547 81.6328 266.162C79.7666 265.807 78.1374 265.525 76.7451 265.318C75.3825 265.14 74.7012 265.347 74.7012 265.94Z" fill="black"/>
</svg>
