<svg width="135" height="403" viewBox="0 0 135 403" fill="none" xmlns="http://www.w3.org/2000/svg">
<rect x="-105" y="2" width="238" height="399" rx="78" fill="white" stroke="black" stroke-width="4"/>
<path d="M38.8433 76.4751C40.7095 74.9644 43.4495 73.8979 47.0635 73.2759C50.6774 72.6538 54.6616 72.3428 59.0161 72.3428C65.5034 72.3428 71.9167 72.7871 78.2559 73.6758C84.6247 74.5941 89.2606 75.5272 92.1636 76.4751C93.5262 76.9787 94.5482 78.0303 95.2295 79.6299C95.9108 81.2295 96.2515 82.992 96.2515 84.9175C96.2515 86.8726 95.896 88.724 95.1851 90.4717C94.5037 92.249 93.4966 93.508 92.1636 94.2485C91.3934 94.604 90.3862 94.8262 89.1421 94.915C87.9276 95.0039 86.5205 94.9891 84.9209 94.8706C83.3509 94.7521 81.6624 94.5744 79.8555 94.3374C78.0485 94.1004 76.2119 93.8634 74.3457 93.6265C72.5091 93.3895 70.6873 93.1821 68.8804 93.0044C67.103 92.8267 65.4145 92.723 63.8149 92.6934C62.245 92.6934 60.8379 92.8118 59.5937 93.0488C58.3496 93.2858 57.3573 93.6857 56.6167 94.2485C55.1948 95.4927 54.4839 97.3885 54.4839 99.936C54.5135 102.484 54.8394 105.238 55.4614 108.201C56.1131 111.193 56.6315 113.947 57.0166 116.465C57.4017 119.013 57.2684 120.909 56.6167 122.153C55.7873 123.367 54.4543 124.3 52.6177 124.952C50.8107 125.633 48.9149 125.974 46.9302 125.974C45.1232 125.974 43.4644 125.663 41.9536 125.041C40.4429 124.419 39.4061 123.456 38.8433 122.153C38.2212 120.553 37.5399 118.198 36.7993 115.088C36.0884 112.007 35.4663 108.527 34.9331 104.646C34.3999 100.795 34.1333 97.0034 34.1333 93.271C34.1333 89.6274 34.4888 86.2949 35.1997 83.2734C35.9106 80.2816 37.1252 78.0155 38.8433 76.4751ZM89.7642 148.235C87.4832 148.976 83.9582 149.539 79.189 149.924C74.4198 150.309 69.3543 150.501 63.9927 150.501C58.6014 150.501 53.5212 150.309 48.7519 149.924C44.0124 149.539 40.5021 148.976 38.2212 148.235C36.7993 147.702 35.7329 146.576 35.022 144.858C34.3407 143.17 34 141.333 34 139.349C34 137.364 34.3407 135.513 35.022 133.794C35.7329 132.106 36.7993 130.995 38.2212 130.462C39.7023 129.988 41.7611 129.573 44.3975 129.218C47.0635 128.892 50.0998 128.64 53.5063 128.462C56.9129 128.314 60.4084 128.24 63.9927 128.24C67.5474 128.24 71.028 128.314 74.4346 128.462C77.8411 128.64 80.8774 128.892 83.5435 129.218C86.2095 129.573 88.283 129.988 89.7642 130.462C91.1564 130.995 92.208 132.106 92.9189 133.794C93.6299 135.513 93.9853 137.364 93.9853 139.349C93.9853 141.333 93.6299 143.17 92.9189 144.858C92.208 146.576 91.1564 147.702 89.7642 148.235ZM61.7266 175.384C61.7266 174.999 61.2378 174.792 60.2602 174.762C59.2827 174.762 58.0089 174.851 56.439 175.029C54.869 175.207 53.1657 175.399 51.3291 175.606C49.4925 175.843 47.6855 176.036 45.9082 176.184C44.1309 176.332 42.5312 176.362 41.1094 176.273C39.7171 176.184 38.6803 175.888 37.999 175.384C36.903 174.525 36.0291 173.118 35.3774 171.163C34.7257 169.208 34.3999 167.194 34.3999 165.12C34.3999 163.372 34.6813 161.802 35.2441 160.41C35.807 159.018 36.7253 158.085 37.999 157.611C40.4873 156.841 44.3382 156.233 49.5518 155.789C54.7949 155.374 60.3195 155.167 66.1255 155.167C69.6505 155.167 73.0719 155.256 76.3896 155.434C79.7074 155.611 82.6548 155.878 85.2319 156.233C87.8387 156.589 89.8678 157.048 91.3193 157.611C92.7708 158.233 93.8076 159.255 94.4297 160.677C95.0518 162.099 95.3628 163.728 95.3628 165.564C95.3628 167.875 94.9629 170.245 94.1631 172.674C93.3929 175.132 92.445 177.221 91.3193 178.939C90.8158 179.68 90.09 180.42 89.1421 181.161C88.2238 181.901 87.1574 182.627 85.9429 183.338C84.7283 184.049 83.4398 184.745 82.0771 185.426C80.7145 186.108 79.3519 186.759 77.9893 187.381C76.6266 188.033 75.3232 188.64 74.0791 189.203C72.835 189.766 71.7241 190.284 70.7466 190.758C69.7987 191.262 69.0433 191.706 68.4805 192.091C67.9176 192.506 67.6362 192.861 67.6362 193.158C67.6362 193.75 68.6582 193.958 70.7021 193.78C72.7461 193.602 75.1751 193.321 77.9893 192.936C80.8034 192.55 83.4546 192.313 85.9429 192.225C88.4608 192.165 90.2529 192.476 91.3193 193.158C92.4154 194.046 93.2892 195.468 93.9409 197.423C94.6222 199.378 94.9629 201.393 94.9629 203.466C94.9629 205.184 94.6667 206.74 94.0742 208.132C93.5114 209.524 92.5931 210.457 91.3193 210.931C88.831 211.731 84.9653 212.338 79.7222 212.753C74.5086 213.168 68.9989 213.375 63.1929 213.375C59.6678 213.375 56.2464 213.286 52.9287 213.108C49.611 212.96 46.6488 212.694 44.042 212.309C41.4648 211.953 39.4505 211.494 37.999 210.931C36.5771 210.339 35.5552 209.332 34.9331 207.91C34.311 206.488 34 204.859 34 203.022C34 200.711 34.3851 198.327 35.1553 195.868C35.9255 193.41 36.8734 191.321 37.999 189.603C39.095 188.122 40.8872 186.656 43.3755 185.204C45.8638 183.782 48.515 182.434 51.3291 181.161C54.1432 179.887 56.5723 178.746 58.6162 177.739C60.6898 176.762 61.7266 175.977 61.7266 175.384ZM74.7012 237.991C74.7012 238.584 75.3825 239.369 76.7451 240.346C78.1374 241.353 79.7666 242.494 81.6328 243.768C83.499 245.041 85.2615 246.389 86.9204 247.811C88.6089 249.263 89.8086 250.729 90.5195 252.21C92.3265 256.92 93.23 261.704 93.23 266.562C93.23 268.458 93.0226 270.057 92.6079 271.361C92.1932 272.694 91.4971 273.42 90.5195 273.538L90.3418 273.538C89.4235 273.538 88.209 272.901 86.6982 271.627C85.1875 270.383 83.4842 268.828 81.5884 266.962C79.6925 265.125 77.7078 263.289 75.6343 261.452C73.5903 259.616 71.5464 258.06 69.5024 256.787C67.4881 255.513 65.6071 254.876 63.8594 254.876C62.6152 254.876 61.2822 255.217 59.8603 255.898C58.4681 256.579 57.0314 257.468 55.5503 258.564C54.0988 259.69 52.6473 260.904 51.1958 262.208C49.7443 263.541 48.3224 264.874 46.9302 266.207C45.5675 267.54 44.279 268.754 43.0644 269.85C41.8795 270.946 40.7983 271.835 39.8208 272.516C38.8433 273.197 38.0286 273.538 37.3769 273.538L37.1992 273.538C36.2217 273.42 35.5255 272.694 35.1108 271.361C34.6961 270.057 34.4888 268.458 34.4888 266.562C34.4888 261.704 35.3922 256.92 37.1992 252.21C37.9101 250.729 39.095 249.263 40.7539 247.811C42.4424 246.389 44.2197 245.041 46.0859 243.768C47.9521 242.494 49.5666 241.353 50.9292 240.346C52.2918 239.369 52.9731 238.584 52.9731 237.991C52.9731 237.399 52.2918 237.191 50.9292 237.369C49.5666 237.576 47.9521 237.858 46.0859 238.213C44.2197 238.598 42.4424 238.835 40.7539 238.924C39.095 239.013 37.9101 238.702 37.1992 237.991C36.3994 237.043 35.6588 235.473 34.9775 233.281C34.3258 231.119 34 228.956 34 226.794C34 225.254 34.237 223.876 34.7109 222.662C35.2145 221.447 36.0439 220.632 37.1992 220.218C39.569 219.477 43.2126 218.914 48.1299 218.529C53.0768 218.174 58.32 217.996 63.8594 217.996C69.4284 217.996 74.6715 218.174 79.5889 218.529C84.5062 218.914 88.1497 219.477 90.5195 220.218C91.6748 220.632 92.4894 221.447 92.9634 222.662C93.467 223.876 93.7187 225.254 93.7187 226.794C93.7187 228.245 93.5558 229.727 93.23 231.237C92.9041 232.748 92.5042 234.096 92.0303 235.281C91.5563 236.495 91.0527 237.399 90.5195 237.991C89.8086 238.702 88.6089 239.013 86.9204 238.924C85.2615 238.835 83.499 238.598 81.6328 238.213C79.7666 237.858 78.1374 237.576 76.7451 237.369C75.3825 237.191 74.7012 237.399 74.7012 237.991ZM74.2568 325.57C73.5459 324.503 73.2052 322.771 73.2349 320.371C73.2645 318.001 73.4422 315.469 73.7681 312.773C74.1235 310.077 74.3901 307.737 74.5679 305.752C74.7456 303.768 74.6419 302.672 74.2568 302.464C74.0791 302.405 73.8717 302.479 73.6348 302.687C73.4274 302.924 73.1904 303.264 72.9238 303.708C72.6572 304.182 72.361 304.73 72.0351 305.353C71.7389 306.004 71.4279 306.715 71.102 307.485C70.7762 308.285 70.4207 309.115 70.0356 309.974C69.6802 310.833 69.2951 311.707 68.8804 312.595C68.4953 313.514 68.0954 314.417 67.6807 315.306C67.2659 316.194 66.8364 317.053 66.3921 317.883C65.9774 318.712 65.5478 319.482 65.1035 320.193C64.6592 320.934 64.2148 321.6 63.7705 322.193C62.1116 324.326 60.201 326.059 58.0386 327.392C55.9058 328.725 53.4471 329.391 50.6626 329.391C49.063 329.391 47.3153 329.11 45.4194 328.547C43.5532 328.014 41.5537 327.14 39.4209 325.925C37.4066 324.622 35.9995 322 35.1997 318.061C34.3999 314.15 34 309.796 34 304.997C34 299.784 34.311 294.748 34.9331 289.89C35.5552 285.061 36.2217 281.551 36.9326 279.359C37.3769 278.085 38.2952 277.167 39.6875 276.604C41.0797 276.041 42.6349 275.76 44.353 275.76C46.4266 275.76 48.4409 276.086 50.396 276.737C52.3807 277.419 53.8174 278.292 54.706 279.359C54.9726 279.714 55.18 280.173 55.3281 280.736C55.4762 281.329 55.5651 281.995 55.5947 282.736C55.654 283.476 55.6688 284.276 55.6392 285.135C55.6095 286.024 55.5503 286.942 55.4614 287.89C55.4022 288.838 55.3133 289.786 55.1948 290.734C55.1059 291.711 55.0023 292.674 54.8838 293.622C54.7653 294.57 54.6468 295.473 54.5283 296.333C54.4394 297.192 54.3654 297.977 54.3061 298.687C54.2469 299.428 54.2025 300.065 54.1728 300.598C54.1728 301.161 54.2173 301.605 54.3061 301.931C54.395 302.257 54.5283 302.435 54.706 302.464C55.3874 302.405 56.3501 300.983 57.5942 298.199C58.8384 295.444 60.2602 292.408 61.8599 289.09C63.4595 285.772 65.1331 283.239 66.8809 281.492C68.4508 280.07 70.4059 278.929 72.7461 278.07C75.1159 277.241 77.5597 276.826 80.0776 276.826C82.0623 276.826 83.973 277.137 85.8096 277.759C87.6461 278.381 89.2458 279.389 90.6084 280.781C92.0303 282.44 93.0374 285.254 93.6299 289.223C94.2223 293.222 94.5185 297.547 94.5185 302.198C94.5185 307.026 94.2816 311.618 93.8076 315.972C93.3336 320.327 92.7412 323.526 92.0303 325.57C91.5267 326.814 90.5788 327.717 89.1865 328.28C87.7943 328.843 86.2391 329.125 84.521 329.125C82.4474 329.125 80.4331 328.799 78.478 328.147C76.5229 327.495 75.1159 326.636 74.2568 325.57Z" fill="black"/>
</svg>
