<svg width="404" height="121" viewBox="0 0 404 121" fill="none" xmlns="http://www.w3.org/2000/svg">
<rect x="2.5" y="119" width="238" height="399" rx="78" transform="rotate(-90 2.5 119)" fill="white" stroke="black" stroke-width="4"/>
<path d="M104.424 89.6567C102.913 87.7905 101.847 85.0505 101.225 81.4365C100.603 77.8226 100.292 73.8384 100.292 69.4839C100.292 62.9966 100.736 56.5833 101.625 50.2441C102.543 43.8753 103.476 39.2394 104.424 36.3364C104.927 34.9738 105.979 33.9518 107.579 33.2705C109.178 32.5892 110.941 32.2485 112.866 32.2485C114.821 32.2485 116.673 32.604 118.42 33.3149C120.198 33.9963 121.457 35.0034 122.197 36.3364C122.553 37.1066 122.775 38.1138 122.864 39.3579C122.953 40.5724 122.938 41.9795 122.819 43.5791C122.701 45.1491 122.523 46.8376 122.286 48.6445C122.049 50.4515 121.812 52.2881 121.575 54.1543C121.338 55.9909 121.131 57.8127 120.953 59.6196C120.775 61.397 120.672 63.0854 120.642 64.6851C120.642 66.255 120.761 67.6621 120.998 68.9062C121.235 70.1504 121.634 71.1427 122.197 71.8833C123.441 73.3052 125.337 74.0161 127.885 74.0161C130.432 73.9865 133.187 73.6606 136.149 73.0386C139.141 72.3869 141.896 71.8685 144.414 71.4834C146.962 71.0983 148.857 71.2316 150.102 71.8833C151.316 72.7127 152.249 74.0457 152.901 75.8823C153.582 77.6893 153.923 79.5851 153.923 81.5698C153.923 83.3768 153.612 85.0356 152.99 86.5464C152.368 88.0571 151.405 89.0939 150.102 89.6567C148.502 90.2788 146.147 90.9601 143.037 91.7007C139.956 92.4116 136.475 93.0337 132.595 93.5669C128.744 94.1001 124.952 94.3667 121.22 94.3667C117.576 94.3667 114.244 94.0112 111.222 93.3003C108.23 92.5894 105.964 91.3748 104.424 89.6567ZM176.184 38.7358C176.925 41.0168 177.487 44.5418 177.873 49.311C178.258 54.0802 178.45 59.1457 178.45 64.5073C178.45 69.8986 178.258 74.9788 177.873 79.748C177.487 84.4876 176.925 87.9979 176.184 90.2788C175.651 91.7007 174.525 92.7671 172.807 93.478C171.119 94.1593 169.282 94.5 167.297 94.5C165.313 94.5 163.461 94.1593 161.743 93.478C160.055 92.7671 158.944 91.7007 158.411 90.2788C157.937 88.7977 157.522 86.7389 157.167 84.1025C156.841 81.4365 156.589 78.4002 156.411 74.9937C156.263 71.5871 156.189 68.0916 156.189 64.5073C156.189 60.9526 156.263 57.472 156.411 54.0654C156.589 50.6589 156.841 47.6226 157.167 44.9565C157.522 42.2905 157.937 40.217 158.411 38.7358C158.944 37.3436 160.055 36.292 161.743 35.5811C163.461 34.8701 165.313 34.5146 167.297 34.5146C169.282 34.5146 171.119 34.8701 172.807 35.5811C174.525 36.292 175.651 37.3436 176.184 38.7358ZM203.333 66.7734C202.948 66.7734 202.741 67.2622 202.711 68.2397C202.711 69.2173 202.8 70.491 202.978 72.061C203.155 73.631 203.348 75.3343 203.555 77.1709C203.792 79.0075 203.985 80.8145 204.133 82.5918C204.281 84.3691 204.311 85.9687 204.222 87.3906C204.133 88.7829 203.837 89.8197 203.333 90.501C202.474 91.597 201.067 92.4709 199.112 93.1226C197.157 93.7743 195.142 94.1001 193.069 94.1001C191.321 94.1001 189.751 93.8187 188.359 93.2559C186.967 92.693 186.034 91.7747 185.56 90.501C184.789 88.0127 184.182 84.1618 183.738 78.9482C183.323 73.7051 183.116 68.1805 183.116 62.3745C183.116 58.8494 183.205 55.4281 183.382 52.1104C183.56 48.7926 183.827 45.8452 184.182 43.2681C184.538 40.6613 184.997 38.6322 185.56 37.1807C186.182 35.7292 187.204 34.6924 188.625 34.0703C190.047 33.4482 191.677 33.1372 193.513 33.1372C195.824 33.1372 198.194 33.5371 200.623 34.3369C203.081 35.1071 205.17 36.055 206.888 37.1807C207.628 37.6842 208.369 38.41 209.109 39.3579C209.85 40.2762 210.576 41.3426 211.287 42.5571C211.998 43.7716 212.694 45.0602 213.375 46.4229C214.056 47.7855 214.708 49.1481 215.33 50.5107C215.982 51.8734 216.589 53.1768 217.152 54.4209C217.715 55.665 218.233 56.7759 218.707 57.7534C219.211 58.7013 219.655 59.4567 220.04 60.0195C220.455 60.5824 220.81 60.8638 221.106 60.8638C221.699 60.8638 221.906 59.8418 221.729 57.7979C221.551 55.7539 221.269 53.3249 220.884 50.5107C220.499 47.6966 220.262 45.0454 220.173 42.5571C220.114 40.0392 220.425 38.2471 221.106 37.1807C221.995 36.0846 223.417 35.2108 225.372 34.5591C227.327 33.8778 229.341 33.5371 231.415 33.5371C233.133 33.5371 234.688 33.8333 236.081 34.4258C237.473 34.9886 238.406 35.9069 238.88 37.1807C239.68 39.6689 240.287 43.5347 240.702 48.7778C241.116 53.9914 241.324 59.5011 241.324 65.3071C241.324 68.8322 241.235 72.2536 241.057 75.5713C240.909 78.889 240.642 81.8512 240.257 84.458C239.902 87.0352 239.443 89.0495 238.88 90.501C238.287 91.9229 237.28 92.9448 235.858 93.5669C234.437 94.189 232.807 94.5 230.971 94.5C228.66 94.5 226.276 94.1149 223.817 93.3447C221.358 92.5745 219.27 91.6266 217.552 90.501C216.071 89.4049 214.604 87.6128 213.153 85.1245C211.731 82.6362 210.383 79.985 209.109 77.1709C207.836 74.3568 206.695 71.9277 205.688 69.8838C204.71 67.8102 203.925 66.7734 203.333 66.7734ZM265.94 53.7988C266.532 53.7988 267.317 53.1175 268.295 51.7549C269.302 50.3626 270.443 48.7334 271.716 46.8672C272.99 45.001 274.338 43.2384 275.76 41.5796C277.211 39.8911 278.678 38.6914 280.159 37.9805C284.869 36.1735 289.653 35.27 294.511 35.27C296.407 35.27 298.006 35.4774 299.31 35.8921C300.643 36.3068 301.368 37.0029 301.487 37.9805V38.1582C301.487 39.0765 300.85 40.291 299.576 41.8018C298.332 43.3125 296.777 45.0158 294.911 46.9116C293.074 48.8075 291.237 50.7922 289.401 52.8657C287.564 54.9097 286.009 56.9536 284.735 58.9976C283.462 61.0119 282.825 62.8929 282.825 64.6406C282.825 65.8848 283.165 67.2178 283.847 68.6396C284.528 70.0319 285.417 71.4686 286.513 72.9497C287.638 74.4012 288.853 75.8527 290.156 77.3042C291.489 78.7557 292.822 80.1776 294.155 81.5698C295.488 82.9325 296.703 84.221 297.799 85.4355C298.895 86.6204 299.784 87.7017 300.465 88.6792C301.146 89.6567 301.487 90.4714 301.487 91.123V91.3008C301.368 92.2783 300.643 92.9744 299.31 93.3892C298.006 93.8039 296.407 94.0112 294.511 94.0112C289.653 94.0112 284.869 93.1077 280.159 91.3008C278.678 90.5898 277.211 89.4049 275.76 87.7461C274.338 86.0576 272.99 84.2803 271.716 82.4141C270.443 80.5479 269.302 78.9334 268.295 77.5708C267.317 76.2082 266.532 75.5269 265.94 75.5269C265.347 75.5269 265.14 76.2082 265.318 77.5708C265.525 78.9334 265.807 80.5479 266.162 82.4141C266.547 84.2803 266.784 86.0576 266.873 87.7461C266.962 89.4049 266.651 90.5898 265.94 91.3008C264.992 92.1006 263.422 92.8411 261.23 93.5225C259.068 94.1742 256.905 94.5 254.743 94.5C253.202 94.5 251.825 94.263 250.61 93.7891C249.396 93.2855 248.581 92.4561 248.167 91.3008C247.426 88.931 246.863 85.2874 246.478 80.3701C246.123 75.4232 245.945 70.18 245.945 64.6406C245.945 59.0716 246.123 53.8285 246.478 48.9111C246.863 43.9938 247.426 40.3503 248.167 37.9805C248.581 36.8252 249.396 36.0106 250.61 35.5366C251.825 35.033 253.202 34.7812 254.743 34.7812C256.194 34.7812 257.675 34.9442 259.186 35.27C260.697 35.5959 262.045 35.9958 263.229 36.4697C264.444 36.9437 265.347 37.4473 265.94 37.9805C266.651 38.6914 266.962 39.8911 266.873 41.5796C266.784 43.2384 266.547 45.001 266.162 46.8672C265.807 48.7334 265.525 50.3626 265.318 51.7549C265.14 53.1175 265.347 53.7988 265.94 53.7988Z" fill="black"/>
</svg>
