<svg width="85" height="85" viewBox="0 0 85 85" fill="none" xmlns="http://www.w3.org/2000/svg">
<circle cx="42.5" cy="42.5" r="40.5" fill="white" stroke="black" stroke-width="4"/>
<path d="M42.9993 18.3335C42.7128 18.3335 42.4291 18.3904 42.1647 18.5008C41.9003 18.6112 41.6605 18.773 41.459 18.9767L19.6061 38.0451C19.4696 38.1458 19.3587 38.2771 19.2823 38.4286C19.2058 38.58 19.166 38.7472 19.166 38.9168C19.166 39.2041 19.2802 39.4797 19.4833 39.6829C19.6865 39.886 19.962 40.0002 20.2493 40.0002H25.666V57.3335C25.666 58.5295 26.6367 59.5002 27.8327 59.5002H36.4993C37.6953 59.5002 38.666 58.5295 38.666 57.3335V44.3335H47.3327V57.3335C47.3327 58.5295 48.3034 59.5002 49.4994 59.5002H58.166C59.362 59.5002 60.3327 58.5295 60.3327 57.3335V40.0002H65.7494C66.0367 40.0002 66.3122 39.886 66.5154 39.6829C66.7185 39.4797 66.8327 39.2041 66.8327 38.9168C66.8327 38.7472 66.7929 38.58 66.7164 38.4286C66.64 38.2771 66.5291 38.1458 66.3926 38.0451L44.5524 18.9894C44.5482 18.9852 44.544 18.9809 44.5397 18.9767C44.3382 18.773 44.0984 18.6112 43.834 18.5008C43.5696 18.3904 43.2859 18.3335 42.9993 18.3335Z" fill="black"/>
</svg>
