<svg width="49" height="100" viewBox="0 0 49 100" fill="none" xmlns="http://www.w3.org/2000/svg">
<path d="M19.146 30.9126C19.8377 33.0431 20.3634 36.3358 20.7231 40.7905C21.0828 45.2453 21.2627 49.9767 21.2627 54.9849C21.2627 60.0207 21.0828 64.766 20.7231 69.2207C20.3634 73.6478 19.8377 76.9266 19.146 79.0571C18.6479 80.3853 17.5965 81.3813 15.9917 82.0454C14.4146 82.6818 12.6991 83 10.8452 83C8.99137 83 7.26204 82.6818 5.65723 82.0454C4.08008 81.3813 3.04248 80.3853 2.54443 79.0571C2.10173 77.6737 1.71436 75.7507 1.38232 73.2881C1.07796 70.7979 0.842773 67.9618 0.676758 64.7798C0.538411 61.5978 0.469238 58.3328 0.469238 54.9849C0.469238 51.6646 0.538411 48.4134 0.676758 45.2314C0.842773 42.0495 1.07796 39.2134 1.38232 36.7231C1.71436 34.2329 2.10173 32.2961 2.54443 30.9126C3.04248 29.6121 4.08008 28.6299 5.65723 27.9658C7.26204 27.3018 8.99137 26.9697 10.8452 26.9697C12.6991 26.9697 14.4146 27.3018 15.9917 27.9658C17.5965 28.6299 18.6479 29.6121 19.146 30.9126ZM44.2974 30.9126C44.9891 33.0431 45.5148 36.3358 45.8745 40.7905C46.2342 45.2453 46.4141 49.9767 46.4141 54.9849C46.4141 60.0207 46.2342 64.766 45.8745 69.2207C45.5148 73.6478 44.9891 76.9266 44.2974 79.0571C43.7993 80.3853 42.7479 81.3813 41.1431 82.0454C39.5659 82.6818 37.8504 83 35.9966 83C34.1427 83 32.4134 82.6818 30.8086 82.0454C29.2314 81.3813 28.1938 80.3853 27.6958 79.0571C27.2531 77.6737 26.8657 75.7507 26.5337 73.2881C26.2293 70.7979 25.9941 67.9618 25.8281 64.7798C25.6898 61.5978 25.6206 58.3328 25.6206 54.9849C25.6206 51.6646 25.6898 48.4134 25.8281 45.2314C25.9941 42.0495 26.2293 39.2134 26.5337 36.7231C26.8657 34.2329 27.2531 32.2961 27.6958 30.9126C28.1938 29.6121 29.2314 28.6299 30.8086 27.9658C32.4134 27.3018 34.1427 26.9697 35.9966 26.9697C37.8504 26.9697 39.5659 27.3018 41.1431 27.9658C42.7479 28.6299 43.7993 29.6121 44.2974 30.9126Z" fill="black"/>
</svg>
