<svg width="104" height="108" viewBox="0 0 104 108" fill="none" xmlns="http://www.w3.org/2000/svg">
<ellipse cx="52" cy="55.7415" rx="52" ry="52.2581" fill="black"/>
<path d="M103 52.2581C103 80.5718 80.1619 103.516 52 103.516C23.8381 103.516 1 80.5718 1 52.2581C1 23.9443 23.8381 1 52 1C80.1619 1 103 23.9443 103 52.2581Z" fill="#D6EBFE" stroke="black" stroke-width="2"/>
<g clip-path="url(#clip0_344_371)">
<path d="M91 48.6896C91 43.2798 86.6145 38.8945 81.2047 38.8945C78.4954 38.8945 76.0478 39.9991 74.2751 41.7772C68.7974 38.2443 61.7993 35.993 54.1135 35.6417C54.1182 32.3784 55.5798 29.3363 58.1258 27.2939C60.6763 25.248 63.9703 24.4818 67.1609 25.1905L67.599 25.2878C67.5947 25.3976 67.5825 25.5052 67.5825 25.6161C67.5825 30.1319 71.2434 33.7928 75.7592 33.7928C80.275 33.7928 83.9359 30.1319 83.9359 25.6161C83.9359 21.1001 80.275 17.4395 75.7592 17.4395C72.8554 17.4395 70.3118 18.9573 68.8611 21.2384L68.0775 21.0644C63.6285 20.0758 59.0366 21.1446 55.4811 23.997C51.9298 26.8459 49.8918 31.0896 49.887 35.6417C42.203 35.9928 35.2062 38.2431 29.7291 41.7743C27.9562 39.9958 25.505 38.8944 22.7951 38.8944C17.3855 38.8945 13 43.2798 13 48.6896C13 52.4589 15.1328 55.7244 18.2542 57.3618C18.0172 58.5744 17.8925 59.8141 17.8925 61.0761C17.8925 75.1506 33.1629 86.5603 51.9999 86.5603C70.837 86.5603 86.1074 75.1506 86.1074 61.0761C86.1074 59.8149 85.9827 58.5757 85.746 57.3637C88.8675 55.7258 91 52.4592 91 48.6896ZM75.7592 21.6661C77.9374 21.6661 79.7094 23.4381 79.7094 25.6163C79.7094 27.7943 77.9374 29.5663 75.7592 29.5663C73.581 29.5663 71.809 27.7943 71.809 25.6163C71.809 23.4381 73.5812 21.6661 75.7592 21.6661ZM17.2265 48.6896C17.2265 45.6191 19.7245 43.121 22.7951 43.121C24.1102 43.121 25.3173 43.5817 26.2697 44.3477C23.2906 46.9035 20.9843 49.9078 19.5523 53.2065C18.1459 52.1964 17.2265 50.5502 17.2265 48.6896ZM73.5879 75.7102C67.8715 79.9814 60.2047 82.3337 52.0001 82.3337C43.7955 82.3337 36.1287 79.9814 30.4123 75.7102C25.0644 71.7145 22.1191 66.5173 22.1191 61.0761C22.1191 55.6347 25.0644 50.4375 30.4123 46.4417C36.1287 42.1706 43.7955 39.8183 52.0001 39.8183C60.2047 39.8183 67.8715 42.1706 73.5879 46.4417C78.9358 50.4375 81.8811 55.6347 81.8811 61.0761C81.8809 66.5173 78.9358 71.7145 73.5879 75.7102ZM84.4465 53.204C83.0141 49.9058 80.7079 46.9024 77.7294 44.347C78.6818 43.581 79.8896 43.121 81.2049 43.121C84.2755 43.121 86.7735 45.6191 86.7735 48.6896C86.7733 50.55 85.8529 52.1942 84.4465 53.204Z" fill="#181A1C"/>
<path d="M39.5419 59.5858C42.0051 59.5858 44.0018 57.5891 44.0018 55.1259C44.0018 52.6628 42.0051 50.666 39.5419 50.666C37.0788 50.666 35.082 52.6628 35.082 55.1259C35.082 57.5891 37.0788 59.5858 39.5419 59.5858Z" fill="black"/>
<path d="M64.458 59.5858C66.9211 59.5858 68.9178 57.5891 68.9178 55.1259C68.9178 52.6628 66.9211 50.666 64.458 50.666C61.9948 50.666 59.998 52.6628 59.998 55.1259C59.998 57.5891 61.9948 59.5858 64.458 59.5858Z" fill="black"/>
<path d="M62.5695 65.963C59.4256 68.8273 55.35 70.4047 51.0932 70.4047C46.3135 70.4047 41.885 68.4784 38.6236 64.9808C37.8279 64.1269 36.4906 64.0804 35.6369 64.8764C34.7833 65.6722 34.7366 67.0096 35.5326 67.8631C39.5432 72.1642 45.2149 74.631 51.0934 74.631C56.4057 74.631 61.4922 72.6621 65.4161 69.0869C66.2787 68.3009 66.3411 66.9642 65.555 66.1016C64.7692 65.2396 63.4334 65.1764 62.5695 65.963Z" fill="#181A1C"/>
</g>
<defs>
<clipPath id="clip0_344_371">
<rect width="78" height="78" fill="white" transform="translate(13 13)"/>
</clipPath>
</defs>
</svg>
