<svg width="286" height="237" viewBox="0 0 286 237" fill="none" xmlns="http://www.w3.org/2000/svg">
<rect x="9" y="15" width="275" height="220" rx="38" fill="black" stroke="black" stroke-width="4"/>
<rect x="2" y="2" width="275" height="220" rx="38" fill="#C3FCF1" stroke="black" stroke-width="4"/>
<path d="M142.557 83.5618C142.557 88.2784 138.734 92.1021 134.017 92.1021C129.3 92.1021 125.477 88.2784 125.477 83.5618C125.477 78.8451 129.3 75.0215 134.017 75.0215C138.734 75.0215 142.557 78.8451 142.557 83.5618Z" fill="black"/>
<mask id="mask0_423_554" style="mask-type:luminance" maskUnits="userSpaceOnUse" x="85" y="41" width="116" height="116">
<path d="M201 41H85V157H201V41Z" fill="white"/>
</mask>
<g mask="url(#mask0_423_554)">
<path d="M130.516 114.374L128.598 141.363C131.343 141.363 132.532 140.184 133.958 138.768L146.829 126.467L173.499 145.999C178.391 148.725 181.837 147.289 183.156 141.499L200.662 59.4675L200.667 59.4627C202.219 52.232 198.053 49.4045 193.287 51.1784L90.3852 90.5748C83.3624 93.3008 83.4687 97.2158 89.1914 98.9896L115.499 107.172L176.607 68.936C179.483 67.0317 182.098 68.0854 179.947 69.9897L130.516 114.374Z" fill="black"/>
</g>
<path d="M86.5859 191.148C86.4062 190.812 86.1055 190.652 85.6836 190.668C85.2617 190.676 84.7969 190.758 84.2891 190.914C83.7812 191.062 83.3086 191.184 82.8711 191.277C82.4336 191.371 82.1094 191.328 81.8984 191.148C81.75 190.992 81.6094 190.762 81.4766 190.457C81.3438 190.145 81.2344 189.797 81.1484 189.414C81.0703 189.023 81.0312 188.641 81.0312 188.266C81.0312 187.844 81.0977 187.469 81.2305 187.141C81.3633 186.805 81.5859 186.578 81.8984 186.461C82.5234 186.266 83.4844 186.121 84.7812 186.027C86.0781 185.926 87.4609 185.875 88.9297 185.875C90.3906 185.875 91.7695 185.926 93.0664 186.027C94.3711 186.121 95.3359 186.266 95.9609 186.461C96.2734 186.578 96.4961 186.801 96.6289 187.129C96.7617 187.457 96.8281 187.832 96.8281 188.254C96.8281 188.48 96.8125 188.711 96.7812 188.945C96.75 189.18 96.707 189.41 96.6523 189.637C96.5977 189.855 96.5312 190.062 96.4531 190.258C96.3828 190.453 96.3047 190.629 96.2188 190.785C96.1406 190.934 96.0547 191.055 95.9609 191.148C95.75 191.328 95.4258 191.371 94.9883 191.277C94.5586 191.184 94.0898 191.062 93.582 190.914C93.0742 190.758 92.6055 190.676 92.1758 190.668C91.7539 190.652 91.4531 190.812 91.2734 191.148C91.0859 191.578 91.0117 192.242 91.0508 193.141C91.0898 194.031 91.1641 195 91.2734 196.047C91.3828 197.086 91.457 198.055 91.4961 198.953C91.5352 199.844 91.4609 200.508 91.2734 200.945C91.0938 201.297 90.7852 201.562 90.3477 201.742C89.9102 201.914 89.4375 202 88.9297 202C88.4297 202 87.9609 201.914 87.5234 201.742C87.0859 201.562 86.7734 201.297 86.5859 200.945C86.3984 200.508 86.3242 199.844 86.3633 198.953C86.4023 198.055 86.4766 197.086 86.5859 196.047C86.6953 195 86.7695 194.031 86.8086 193.141C86.8477 192.242 86.7734 191.578 86.5859 191.148ZM103.332 196.105C103.77 196.129 104.469 196.09 105.43 195.988C106.398 195.879 107.363 195.812 108.324 195.789C109.285 195.758 109.98 195.863 110.41 196.105C110.723 196.324 110.965 196.676 111.137 197.16C111.316 197.645 111.406 198.148 111.406 198.672C111.406 199.148 111.324 199.586 111.16 199.984C111.004 200.375 110.754 200.645 110.41 200.793C110.004 200.957 109.402 201.133 108.605 201.32C107.809 201.5 106.914 201.66 105.922 201.801C104.93 201.934 103.949 202 102.98 202C102.043 202 101.188 201.91 100.414 201.73C99.6406 201.551 99.0508 201.238 98.6445 200.793C98.1602 200.184 97.793 199.246 97.543 197.98C97.3008 196.715 97.1797 195.371 97.1797 193.949C97.1797 192.52 97.3008 191.172 97.543 189.906C97.793 188.641 98.1602 187.707 98.6445 187.105C99.0508 186.66 99.6406 186.348 100.414 186.168C101.195 185.98 102.055 185.887 102.992 185.887C103.953 185.887 104.93 185.957 105.922 186.098C106.914 186.23 107.809 186.391 108.605 186.578C109.402 186.766 110.004 186.941 110.41 187.105C110.754 187.254 111.004 187.527 111.16 187.926C111.324 188.316 111.406 188.746 111.406 189.215C111.406 189.738 111.316 190.246 111.137 190.738C110.965 191.223 110.723 191.574 110.41 191.793C109.98 192.035 109.285 192.141 108.324 192.109C107.363 192.078 106.398 192.012 105.43 191.91C104.469 191.809 103.77 191.77 103.332 191.793C103.254 191.809 103.199 191.875 103.168 191.992C103.145 192.102 103.145 192.215 103.168 192.332C103.199 192.449 103.254 192.52 103.332 192.543C103.621 192.574 104.086 192.559 104.727 192.496C105.367 192.426 106.004 192.379 106.637 192.355C107.277 192.332 107.738 192.395 108.02 192.543C108.285 192.715 108.461 192.992 108.547 193.375C108.633 193.758 108.633 194.141 108.547 194.523C108.461 194.906 108.285 195.184 108.02 195.355C107.738 195.504 107.277 195.566 106.637 195.543C106.004 195.512 105.367 195.465 104.727 195.402C104.086 195.34 103.621 195.324 103.332 195.355C103.254 195.379 103.199 195.449 103.168 195.566C103.145 195.676 103.145 195.789 103.168 195.906C103.199 196.016 103.254 196.082 103.332 196.105ZM113.574 200.723C113.176 200.23 112.895 199.508 112.73 198.555C112.566 197.602 112.484 196.551 112.484 195.402C112.484 193.691 112.602 192 112.836 190.328C113.078 188.648 113.324 187.426 113.574 186.66C113.707 186.301 113.984 186.031 114.406 185.852C114.828 185.672 115.293 185.582 115.801 185.582C116.316 185.582 116.805 185.676 117.266 185.863C117.734 186.043 118.066 186.309 118.262 186.66C118.355 186.863 118.414 187.129 118.438 187.457C118.461 187.777 118.457 188.148 118.426 188.57C118.395 188.984 118.348 189.43 118.285 189.906C118.223 190.383 118.16 190.867 118.098 191.359C118.035 191.844 117.98 192.324 117.934 192.801C117.887 193.27 117.859 193.715 117.852 194.137C117.852 194.551 117.883 194.922 117.945 195.25C118.008 195.578 118.113 195.84 118.262 196.035C118.59 196.41 119.09 196.598 119.762 196.598C120.434 196.59 121.16 196.504 121.941 196.34C122.73 196.168 123.457 196.031 124.121 195.93C124.793 195.828 125.293 195.863 125.621 196.035C125.941 196.254 126.188 196.605 126.359 197.09C126.539 197.566 126.629 198.066 126.629 198.59C126.629 199.066 126.547 199.504 126.383 199.902C126.219 200.301 125.965 200.574 125.621 200.723C125.199 200.887 124.578 201.066 123.758 201.262C122.945 201.449 122.027 201.613 121.004 201.754C119.988 201.895 118.988 201.965 118.004 201.965C117.043 201.965 116.164 201.871 115.367 201.684C114.578 201.496 113.98 201.176 113.574 200.723ZM132.91 196.105C133.348 196.129 134.047 196.09 135.008 195.988C135.977 195.879 136.941 195.812 137.902 195.789C138.863 195.758 139.559 195.863 139.988 196.105C140.301 196.324 140.543 196.676 140.715 197.16C140.895 197.645 140.984 198.148 140.984 198.672C140.984 199.148 140.902 199.586 140.738 199.984C140.582 200.375 140.332 200.645 139.988 200.793C139.582 200.957 138.98 201.133 138.184 201.32C137.387 201.5 136.492 201.66 135.5 201.801C134.508 201.934 133.527 202 132.559 202C131.621 202 130.766 201.91 129.992 201.73C129.219 201.551 128.629 201.238 128.223 200.793C127.738 200.184 127.371 199.246 127.121 197.98C126.879 196.715 126.758 195.371 126.758 193.949C126.758 192.52 126.879 191.172 127.121 189.906C127.371 188.641 127.738 187.707 128.223 187.105C128.629 186.66 129.219 186.348 129.992 186.168C130.773 185.98 131.633 185.887 132.57 185.887C133.531 185.887 134.508 185.957 135.5 186.098C136.492 186.23 137.387 186.391 138.184 186.578C138.98 186.766 139.582 186.941 139.988 187.105C140.332 187.254 140.582 187.527 140.738 187.926C140.902 188.316 140.984 188.746 140.984 189.215C140.984 189.738 140.895 190.246 140.715 190.738C140.543 191.223 140.301 191.574 139.988 191.793C139.559 192.035 138.863 192.141 137.902 192.109C136.941 192.078 135.977 192.012 135.008 191.91C134.047 191.809 133.348 191.77 132.91 191.793C132.832 191.809 132.777 191.875 132.746 191.992C132.723 192.102 132.723 192.215 132.746 192.332C132.777 192.449 132.832 192.52 132.91 192.543C133.199 192.574 133.664 192.559 134.305 192.496C134.945 192.426 135.582 192.379 136.215 192.355C136.855 192.332 137.316 192.395 137.598 192.543C137.863 192.715 138.039 192.992 138.125 193.375C138.211 193.758 138.211 194.141 138.125 194.523C138.039 194.906 137.863 195.184 137.598 195.355C137.316 195.504 136.855 195.566 136.215 195.543C135.582 195.512 134.945 195.465 134.305 195.402C133.664 195.34 133.199 195.324 132.91 195.355C132.832 195.379 132.777 195.449 132.746 195.566C132.723 195.676 132.723 195.789 132.746 195.906C132.777 196.016 132.832 196.082 132.91 196.105ZM155.645 195.168C155.605 195.832 155.398 196.621 155.023 197.535C154.656 198.449 154.121 199.301 153.418 200.09C152.723 200.879 151.867 201.414 150.852 201.695C150.008 201.898 149.211 202 148.461 202C146.648 202 145.156 201.453 143.984 200.359C142.812 199.258 142.07 197.727 141.758 195.766C141.633 195 141.57 194.223 141.57 193.434C141.57 192.363 141.723 191.324 142.027 190.316C142.332 189.301 142.855 188.406 143.598 187.633C144.34 186.852 145.355 186.27 146.645 185.887C147.105 185.762 147.582 185.699 148.074 185.699C149.027 185.699 149.973 185.883 150.91 186.25C151.855 186.609 152.637 187.051 153.254 187.574C153.879 188.098 154.215 188.621 154.262 189.145C154.277 189.785 154.102 190.328 153.734 190.773C153.375 191.211 152.914 191.523 152.352 191.711C151.789 191.891 151.227 191.91 150.664 191.77C150.352 191.668 150.039 191.5 149.727 191.266C149.414 191.031 149.102 190.828 148.789 190.656C148.477 190.477 148.168 190.418 147.863 190.48C147.27 190.668 146.91 191.105 146.785 191.793C146.66 192.48 146.613 193.238 146.645 194.066C146.652 194.902 146.816 195.609 147.137 196.188C147.465 196.766 147.988 197.074 148.707 197.113C148.777 197.113 148.867 197.102 148.977 197.078C149.086 197.055 149.203 197.02 149.328 196.973C149.453 196.926 149.578 196.871 149.703 196.809C149.828 196.746 149.945 196.68 150.055 196.609C150.172 196.531 150.273 196.457 150.359 196.387C150.445 196.309 150.508 196.23 150.547 196.152C149.961 196.09 149.531 195.996 149.258 195.871C148.969 195.715 148.777 195.438 148.684 195.039C148.59 194.641 148.59 194.242 148.684 193.844C148.777 193.445 148.969 193.168 149.258 193.012C149.625 192.855 150.141 192.773 150.805 192.766C151.469 192.758 152.137 192.793 152.809 192.871C153.48 192.941 154.012 193.023 154.402 193.117C154.77 193.219 155.039 193.41 155.211 193.691C155.391 193.973 155.508 194.258 155.562 194.547C155.617 194.836 155.645 195.031 155.645 195.133V195.168ZM164.176 196.445C163.684 196.461 163.289 196.465 162.992 196.457C162.695 196.449 162.547 196.445 162.547 196.445C162.547 196.445 162.57 196.582 162.617 196.855C162.664 197.121 162.711 197.461 162.758 197.875C162.812 198.281 162.852 198.707 162.875 199.152C162.898 199.59 162.887 199.988 162.84 200.348C162.793 200.707 162.695 200.969 162.547 201.133C162.391 201.281 162.156 201.422 161.844 201.555C161.539 201.688 161.191 201.797 160.801 201.883C160.418 201.961 160.039 202 159.664 202C159.234 202 158.852 201.934 158.516 201.801C158.188 201.668 157.969 201.445 157.859 201.133C157.695 200.633 157.516 199.883 157.32 198.883C157.133 197.883 156.969 196.762 156.828 195.52C156.688 194.27 156.617 193.059 156.617 191.887C156.617 190.754 156.711 189.75 156.898 188.875C157.086 188 157.406 187.398 157.859 187.07C158.312 186.773 159.016 186.527 159.969 186.332C160.93 186.137 161.992 186.039 163.156 186.039C164.156 186.039 165.164 186.133 166.18 186.32C167.203 186.508 168.141 186.82 168.992 187.258C169.844 187.695 170.531 188.285 171.055 189.027C171.586 189.762 171.875 190.672 171.922 191.758V191.863C171.922 192.598 171.75 193.227 171.406 193.75C171.062 194.266 170.613 194.695 170.059 195.039C170.559 195.906 170.98 196.738 171.324 197.535C171.676 198.332 171.875 198.961 171.922 199.422V199.492C171.922 199.906 171.75 200.305 171.406 200.688C171.07 201.07 170.652 201.387 170.152 201.637C169.66 201.879 169.188 202 168.734 202C168.406 202 168.113 201.922 167.855 201.766C167.527 201.539 167.145 201.148 166.707 200.594C166.277 200.031 165.836 199.383 165.383 198.648C164.938 197.914 164.535 197.18 164.176 196.445ZM163.098 189.988C162.973 190.043 162.906 190.211 162.898 190.492C162.891 190.773 162.926 191.066 163.004 191.371C163.09 191.668 163.203 191.863 163.344 191.957C163.461 192.012 163.637 192.051 163.871 192.074C164.105 192.098 164.352 192.094 164.609 192.062C164.875 192.031 165.105 191.957 165.301 191.84C165.496 191.723 165.605 191.555 165.629 191.336C165.645 191.172 165.602 191.023 165.5 190.891C165.398 190.75 165.262 190.629 165.09 190.527C164.926 190.418 164.742 190.328 164.539 190.258C164.336 190.18 164.137 190.117 163.941 190.07C163.746 190.023 163.57 189.996 163.414 189.988C163.266 189.973 163.16 189.973 163.098 189.988ZM177.559 198.766C177.355 198.938 177.258 199.223 177.266 199.621C177.281 200.02 177.281 200.41 177.266 200.793C177.25 201.176 177.102 201.438 176.82 201.578C176.578 201.672 176.203 201.766 175.695 201.859C175.195 201.953 174.68 202 174.148 202C173.797 202 173.465 201.969 173.152 201.906C172.848 201.844 172.602 201.738 172.414 201.59C172.227 201.441 172.133 201.234 172.133 200.969C172.133 200.148 172.414 198.766 172.977 196.82C173.547 194.867 174.191 192.945 174.91 191.055C175.637 189.156 176.273 187.773 176.82 186.906C177.047 186.578 177.375 186.336 177.805 186.18C178.234 186.016 178.688 185.934 179.164 185.934C179.641 185.934 180.094 186.016 180.523 186.18C180.953 186.336 181.281 186.578 181.508 186.906C182.055 187.773 182.688 189.156 183.406 191.055C184.133 192.945 184.777 194.867 185.34 196.82C185.91 198.766 186.195 200.148 186.195 200.969C186.195 201.234 186.102 201.441 185.914 201.59C185.727 201.738 185.477 201.844 185.164 201.906C184.859 201.969 184.531 202 184.18 202C183.648 202 183.129 201.953 182.621 201.859C182.121 201.766 181.75 201.672 181.508 201.578C181.227 201.437 181.078 201.176 181.062 200.793C181.047 200.41 181.043 200.02 181.051 199.621C181.066 199.223 180.973 198.937 180.77 198.766C180.535 198.609 180.207 198.508 179.785 198.461C179.371 198.406 178.953 198.406 178.531 198.461C178.117 198.508 177.793 198.609 177.559 198.766ZM179.164 193.937C179.07 193.937 178.949 194.164 178.801 194.617C178.652 195.07 178.59 195.391 178.613 195.578C178.66 195.664 178.762 195.723 178.918 195.754C179.082 195.785 179.242 195.785 179.398 195.754C179.562 195.723 179.668 195.664 179.715 195.578C179.73 195.5 179.719 195.375 179.68 195.203C179.648 195.031 179.602 194.848 179.539 194.652C179.477 194.457 179.41 194.289 179.34 194.148C179.27 194.008 179.211 193.937 179.164 193.937ZM199.086 187.023C199.492 186.789 199.977 186.586 200.539 186.414C201.102 186.242 201.641 186.156 202.156 186.156C202.539 186.156 202.875 186.223 203.164 186.355C203.461 186.488 203.664 186.711 203.773 187.023C203.969 187.648 204.117 188.609 204.219 189.906C204.32 191.203 204.371 192.586 204.371 194.055C204.371 195.516 204.32 196.898 204.219 198.203C204.117 199.5 203.969 200.461 203.773 201.086C203.656 201.414 203.418 201.648 203.059 201.789C202.707 201.93 202.309 202 201.863 202C201.316 202 200.777 201.914 200.246 201.742C199.715 201.57 199.328 201.352 199.086 201.086C198.961 200.922 198.883 200.68 198.852 200.359C198.828 200.031 198.832 199.66 198.863 199.246C198.902 198.832 198.953 198.41 199.016 197.98C199.078 197.551 199.133 197.152 199.18 196.785C199.227 196.41 199.246 196.105 199.238 195.871C199.23 195.629 199.18 195.492 199.086 195.461C199.016 195.445 198.926 195.5 198.816 195.625C198.707 195.742 198.586 195.91 198.453 196.129C198.32 196.348 198.176 196.598 198.02 196.879C197.871 197.152 197.715 197.441 197.551 197.746C197.387 198.043 197.219 198.336 197.047 198.625C196.875 198.906 196.703 199.164 196.531 199.398C196.367 199.625 196.203 199.809 196.039 199.949C195.875 200.082 195.719 200.148 195.57 200.148C195.336 200.148 195.082 199.984 194.809 199.656C194.543 199.328 194.273 198.93 194 198.461C193.727 197.984 193.465 197.512 193.215 197.043C192.965 196.574 192.738 196.187 192.535 195.883C192.34 195.578 192.18 195.437 192.055 195.461C191.922 195.523 191.875 195.797 191.914 196.281C191.961 196.758 192.031 197.324 192.125 197.98C192.227 198.637 192.285 199.254 192.301 199.832C192.324 200.41 192.242 200.828 192.055 201.086C191.82 201.352 191.438 201.57 190.906 201.742C190.375 201.914 189.832 202 189.277 202C188.832 202 188.434 201.93 188.082 201.789C187.73 201.648 187.492 201.414 187.367 201.086C187.172 200.461 187.023 199.5 186.922 198.203C186.828 196.898 186.781 195.516 186.781 194.055C186.781 192.586 186.828 191.203 186.922 189.906C187.023 188.609 187.172 187.648 187.367 187.023C187.484 186.711 187.688 186.488 187.977 186.355C188.266 186.223 188.602 186.156 188.984 186.156C189.5 186.156 190.039 186.242 190.602 186.414C191.172 186.586 191.656 186.789 192.055 187.023C192.523 187.312 192.988 187.777 193.449 188.418C193.91 189.051 194.328 189.687 194.703 190.328C195.078 190.961 195.367 191.422 195.57 191.711C195.773 191.422 196.062 190.961 196.438 190.328C196.812 189.687 197.23 189.051 197.691 188.418C198.16 187.777 198.625 187.312 199.086 187.023Z" fill="black"/>
</svg>
