<svg width="104" height="108" viewBox="0 0 104 108" fill="none" xmlns="http://www.w3.org/2000/svg">
<ellipse cx="52" cy="55.7415" rx="52" ry="52.2581" fill="black"/>
<path d="M103 52.2581C103 80.5718 80.1619 103.516 52 103.516C23.8381 103.516 1 80.5718 1 52.2581C1 23.9443 23.8381 1 52 1C80.1619 1 103 23.9443 103 52.2581Z" fill="#D6EBFE" stroke="black" stroke-width="2"/>
<mask id="mask0_344_357" style="mask-type:luminance" maskUnits="userSpaceOnUse" x="22" y="24" width="60" height="60">
<path d="M81.4665 24.3887H22.5332V83.6145H81.4665V24.3887Z" fill="white"/>
</mask>
<g mask="url(#mask0_344_357)">
<path d="M45.6576 61.8505L44.6828 75.6304C46.0775 75.6304 46.6816 75.0283 47.406 74.3052L53.9451 68.0248L67.4949 77.997C69.9799 79.3888 71.7307 78.6558 72.4011 75.6995L81.2951 33.817L81.2975 33.8146C82.0858 30.1228 79.9691 28.6792 77.5479 29.5848L25.2691 49.6994C21.7012 51.0912 21.7552 53.09 24.6626 53.9957L38.0282 58.1736L69.0738 38.6513C70.5348 37.679 71.8633 38.217 70.7706 39.1893L45.6576 61.8505Z" fill="black"/>
</g>
</svg>
