<svg width="104" height="108" viewBox="0 0 104 108" fill="none" xmlns="http://www.w3.org/2000/svg">
<ellipse cx="52" cy="55.7415" rx="52" ry="52.2581" fill="black"/>
<path d="M103 52.2581C103 80.5718 80.1619 103.516 52 103.516C23.8381 103.516 1 80.5718 1 52.2581C1 23.9443 23.8381 1 52 1C80.1619 1 103 23.9443 103 52.2581Z" fill="#D6EBFE" stroke="black" stroke-width="2"/>
<path d="M74.5839 39.3353C71.5462 38.6855 68.7956 37.0825 66.7329 34.7599C64.6701 32.4373 63.4032 29.5165 63.1168 26.4234V25.082H52.6382V66.6677C52.6317 68.5087 52.0486 70.3015 50.9707 71.794C49.8928 73.2865 48.3743 74.4038 46.6286 74.9888C44.883 75.5738 42.9979 75.5972 41.2383 75.0556C39.4788 74.514 37.9331 73.4347 36.8185 71.9693C35.6867 70.4795 35.0588 68.6678 35.026 66.797C34.9931 64.9263 35.557 63.0937 36.6359 61.565C37.7148 60.0363 39.2526 58.8911 41.0262 58.2953C42.7999 57.6995 44.7172 57.6841 46.5001 58.2514V47.6056C42.5242 47.0559 38.476 47.7628 34.9216 49.6273C31.3672 51.4917 28.4845 54.4206 26.6766 58.0041C24.8688 61.5876 24.2262 65.6466 24.8389 69.6133C25.4515 73.5799 27.2887 77.2559 30.0934 80.1271C32.7681 82.8638 36.1977 84.7415 39.9443 85.5203C43.6909 86.2992 47.5847 85.9439 51.1285 84.4999C54.6723 83.0558 57.7054 80.5885 59.8407 77.4129C61.976 74.2373 63.1165 70.4975 63.1168 66.6707V45.4217C67.3515 48.4491 72.429 50.0725 77.6346 50.0632V39.6516C76.6095 39.6529 75.587 39.5469 74.5839 39.3353Z" fill="black"/>
</svg>
