<svg width="286" height="237" viewBox="0 0 286 237" fill="none" xmlns="http://www.w3.org/2000/svg">
<rect x="9" y="15" width="275" height="220" rx="38" fill="black" stroke="black" stroke-width="4"/>
<rect x="2" y="2" width="275" height="220" rx="38" fill="#C3FCF1" stroke="black" stroke-width="4"/>
<path d="M181.496 72.5942C176.628 71.5528 172.219 68.9836 168.913 65.261C165.607 61.5385 163.576 56.8573 163.117 51.8999V49.75H146.323V116.401C146.313 119.352 145.378 122.225 143.65 124.617C141.923 127.009 139.489 128.8 136.691 129.738C133.893 130.675 130.872 130.713 128.052 129.845C125.232 128.977 122.754 127.247 120.968 124.898C119.154 122.51 118.148 119.607 118.095 116.608C118.042 113.61 118.946 110.673 120.675 108.223C122.405 105.773 124.869 103.937 127.712 102.982C130.555 102.027 133.628 102.003 136.485 102.912V85.8494C130.113 84.9685 123.625 86.1014 117.928 89.0896C112.231 92.0779 107.611 96.772 104.713 102.515C101.816 108.259 100.786 114.764 101.768 121.122C102.75 127.48 105.694 133.371 110.189 137.973C114.476 142.359 119.973 145.369 125.978 146.617C131.983 147.865 138.223 147.296 143.903 144.981C149.583 142.667 154.444 138.712 157.867 133.623C161.289 128.533 163.117 122.539 163.117 116.406V82.3491C169.905 87.2014 178.042 89.8032 186.386 89.7884V73.1012C184.743 73.1033 183.104 72.9334 181.496 72.5942Z" fill="black"/>
<path d="M105.676 191.148C105.496 190.812 105.195 190.652 104.773 190.668C104.352 190.676 103.887 190.758 103.379 190.914C102.871 191.062 102.398 191.184 101.961 191.277C101.523 191.371 101.199 191.328 100.988 191.148C100.84 190.992 100.699 190.762 100.566 190.457C100.434 190.145 100.324 189.797 100.238 189.414C100.16 189.023 100.121 188.641 100.121 188.266C100.121 187.844 100.188 187.469 100.32 187.141C100.453 186.805 100.676 186.578 100.988 186.461C101.613 186.266 102.574 186.121 103.871 186.027C105.168 185.926 106.551 185.875 108.02 185.875C109.48 185.875 110.859 185.926 112.156 186.027C113.461 186.121 114.426 186.266 115.051 186.461C115.363 186.578 115.586 186.801 115.719 187.129C115.852 187.457 115.918 187.832 115.918 188.254C115.918 188.48 115.902 188.711 115.871 188.945C115.84 189.18 115.797 189.41 115.742 189.637C115.688 189.855 115.621 190.062 115.543 190.258C115.473 190.453 115.395 190.629 115.309 190.785C115.23 190.934 115.145 191.055 115.051 191.148C114.84 191.328 114.516 191.371 114.078 191.277C113.648 191.184 113.18 191.062 112.672 190.914C112.164 190.758 111.695 190.676 111.266 190.668C110.844 190.652 110.543 190.812 110.363 191.148C110.176 191.578 110.102 192.242 110.141 193.141C110.18 194.031 110.254 195 110.363 196.047C110.473 197.086 110.547 198.055 110.586 198.953C110.625 199.844 110.551 200.508 110.363 200.945C110.184 201.297 109.875 201.562 109.438 201.742C109 201.914 108.527 202 108.02 202C107.52 202 107.051 201.914 106.613 201.742C106.176 201.562 105.863 201.297 105.676 200.945C105.488 200.508 105.414 199.844 105.453 198.953C105.492 198.055 105.566 197.086 105.676 196.047C105.785 195 105.859 194.031 105.898 193.141C105.938 192.242 105.863 191.578 105.676 191.148ZM121.777 187.293C121.973 187.895 122.121 188.824 122.223 190.082C122.324 191.34 122.375 192.676 122.375 194.09C122.375 195.512 122.324 196.852 122.223 198.109C122.121 199.359 121.973 200.285 121.777 200.887C121.637 201.262 121.34 201.543 120.887 201.73C120.441 201.91 119.957 202 119.434 202C118.91 202 118.422 201.91 117.969 201.73C117.523 201.543 117.23 201.262 117.09 200.887C116.965 200.496 116.855 199.953 116.762 199.258C116.676 198.555 116.609 197.754 116.562 196.855C116.523 195.957 116.504 195.035 116.504 194.09C116.504 193.152 116.523 192.234 116.562 191.336C116.609 190.438 116.676 189.637 116.762 188.934C116.855 188.23 116.965 187.684 117.09 187.293C117.23 186.926 117.523 186.648 117.969 186.461C118.422 186.273 118.91 186.18 119.434 186.18C119.957 186.18 120.441 186.273 120.887 186.461C121.34 186.648 121.637 186.926 121.777 187.293ZM128.879 191.266C129.035 191.266 129.242 191.086 129.5 190.727C129.766 190.359 130.066 189.93 130.402 189.438C130.738 188.945 131.094 188.48 131.469 188.043C131.852 187.598 132.238 187.281 132.629 187.094C133.871 186.617 135.133 186.379 136.414 186.379C136.914 186.379 137.336 186.434 137.68 186.543C138.031 186.652 138.223 186.836 138.254 187.094V187.141C138.254 187.383 138.086 187.703 137.75 188.102C137.422 188.5 137.012 188.949 136.52 189.449C136.035 189.949 135.551 190.473 135.066 191.02C134.582 191.559 134.172 192.098 133.836 192.637C133.5 193.168 133.332 193.664 133.332 194.125C133.332 194.453 133.422 194.805 133.602 195.18C133.781 195.547 134.016 195.926 134.305 196.316C134.602 196.699 134.922 197.082 135.266 197.465C135.617 197.848 135.969 198.223 136.32 198.59C136.672 198.949 136.992 199.289 137.281 199.609C137.57 199.922 137.805 200.207 137.984 200.465C138.164 200.723 138.254 200.938 138.254 201.109V201.156C138.223 201.414 138.031 201.598 137.68 201.707C137.336 201.816 136.914 201.871 136.414 201.871C135.133 201.871 133.871 201.633 132.629 201.156C132.238 200.969 131.852 200.656 131.469 200.219C131.094 199.773 130.738 199.305 130.402 198.812C130.066 198.32 129.766 197.895 129.5 197.535C129.242 197.176 129.035 196.996 128.879 196.996C128.723 196.996 128.668 197.176 128.715 197.535C128.77 197.895 128.844 198.32 128.938 198.812C129.039 199.305 129.102 199.773 129.125 200.219C129.148 200.656 129.066 200.969 128.879 201.156C128.629 201.367 128.215 201.562 127.637 201.742C127.066 201.914 126.496 202 125.926 202C125.52 202 125.156 201.938 124.836 201.812C124.516 201.68 124.301 201.461 124.191 201.156C123.996 200.531 123.848 199.57 123.746 198.273C123.652 196.969 123.605 195.586 123.605 194.125C123.605 192.656 123.652 191.273 123.746 189.977C123.848 188.68 123.996 187.719 124.191 187.094C124.301 186.789 124.516 186.574 124.836 186.449C125.156 186.316 125.52 186.25 125.926 186.25C126.309 186.25 126.699 186.293 127.098 186.379C127.496 186.465 127.852 186.57 128.164 186.695C128.484 186.82 128.723 186.953 128.879 187.094C129.066 187.281 129.148 187.598 129.125 188.043C129.102 188.48 129.039 188.945 128.938 189.438C128.844 189.93 128.77 190.359 128.715 190.727C128.668 191.086 128.723 191.266 128.879 191.266ZM144.137 191.148C143.957 190.812 143.656 190.652 143.234 190.668C142.812 190.676 142.348 190.758 141.84 190.914C141.332 191.062 140.859 191.184 140.422 191.277C139.984 191.371 139.66 191.328 139.449 191.148C139.301 190.992 139.16 190.762 139.027 190.457C138.895 190.145 138.785 189.797 138.699 189.414C138.621 189.023 138.582 188.641 138.582 188.266C138.582 187.844 138.648 187.469 138.781 187.141C138.914 186.805 139.137 186.578 139.449 186.461C140.074 186.266 141.035 186.121 142.332 186.027C143.629 185.926 145.012 185.875 146.48 185.875C147.941 185.875 149.32 185.926 150.617 186.027C151.922 186.121 152.887 186.266 153.512 186.461C153.824 186.578 154.047 186.801 154.18 187.129C154.312 187.457 154.379 187.832 154.379 188.254C154.379 188.48 154.363 188.711 154.332 188.945C154.301 189.18 154.258 189.41 154.203 189.637C154.148 189.855 154.082 190.062 154.004 190.258C153.934 190.453 153.855 190.629 153.77 190.785C153.691 190.934 153.605 191.055 153.512 191.148C153.301 191.328 152.977 191.371 152.539 191.277C152.109 191.184 151.641 191.062 151.133 190.914C150.625 190.758 150.156 190.676 149.727 190.668C149.305 190.652 149.004 190.812 148.824 191.148C148.637 191.578 148.562 192.242 148.602 193.141C148.641 194.031 148.715 195 148.824 196.047C148.934 197.086 149.008 198.055 149.047 198.953C149.086 199.844 149.012 200.508 148.824 200.945C148.645 201.297 148.336 201.562 147.898 201.742C147.461 201.914 146.988 202 146.48 202C145.98 202 145.512 201.914 145.074 201.742C144.637 201.562 144.324 201.297 144.137 200.945C143.949 200.508 143.875 199.844 143.914 198.953C143.953 198.055 144.027 197.086 144.137 196.047C144.246 195 144.32 194.031 144.359 193.141C144.398 192.242 144.324 191.578 144.137 191.148ZM156.488 188.559C157.402 187.652 158.336 187.012 159.289 186.637C160.25 186.254 161.184 186.062 162.09 186.062C163.066 186.062 163.98 186.223 164.832 186.543C165.684 186.863 166.41 187.25 167.012 187.703C167.621 188.156 168.059 188.594 168.324 189.016C168.793 189.773 169.137 190.539 169.355 191.312C169.574 192.086 169.684 192.859 169.684 193.633C169.684 194.555 169.551 195.465 169.285 196.363C169.027 197.262 168.68 198.137 168.242 198.988C167.719 199.941 166.887 200.684 165.746 201.215C164.605 201.738 163.375 202 162.055 202C161.188 202 160.332 201.879 159.488 201.637C158.652 201.387 157.891 201 157.203 200.477C156.266 199.742 155.559 198.812 155.082 197.688C154.613 196.555 154.379 195.379 154.379 194.16C154.379 193.113 154.551 192.102 154.895 191.125C155.246 190.148 155.777 189.293 156.488 188.559ZM160.133 192.355C159.609 192.91 159.371 193.582 159.418 194.371C159.465 195.152 159.781 195.781 160.367 196.258C161 196.68 161.699 196.836 162.465 196.727C163.238 196.617 163.785 196.297 164.105 195.766C164.387 195.25 164.547 194.715 164.586 194.16C164.625 193.598 164.473 193.047 164.129 192.508C163.98 192.266 163.691 192.039 163.262 191.828C162.84 191.609 162.348 191.516 161.785 191.547C161.23 191.578 160.68 191.848 160.133 192.355ZM175.918 191.266C176.074 191.266 176.281 191.086 176.539 190.727C176.805 190.359 177.105 189.93 177.441 189.438C177.777 188.945 178.133 188.48 178.508 188.043C178.891 187.598 179.277 187.281 179.668 187.094C180.91 186.617 182.172 186.379 183.453 186.379C183.953 186.379 184.375 186.434 184.719 186.543C185.07 186.652 185.262 186.836 185.293 187.094V187.141C185.293 187.383 185.125 187.703 184.789 188.102C184.461 188.5 184.051 188.949 183.559 189.449C183.074 189.949 182.59 190.473 182.105 191.02C181.621 191.559 181.211 192.098 180.875 192.637C180.539 193.168 180.371 193.664 180.371 194.125C180.371 194.453 180.461 194.805 180.641 195.18C180.82 195.547 181.055 195.926 181.344 196.316C181.641 196.699 181.961 197.082 182.305 197.465C182.656 197.848 183.008 198.223 183.359 198.59C183.711 198.949 184.031 199.289 184.32 199.609C184.609 199.922 184.844 200.207 185.023 200.465C185.203 200.723 185.293 200.938 185.293 201.109V201.156C185.262 201.414 185.07 201.598 184.719 201.707C184.375 201.816 183.953 201.871 183.453 201.871C182.172 201.871 180.91 201.633 179.668 201.156C179.277 200.969 178.891 200.656 178.508 200.219C178.133 199.773 177.777 199.305 177.441 198.812C177.105 198.32 176.805 197.895 176.539 197.535C176.281 197.176 176.074 196.996 175.918 196.996C175.762 196.996 175.707 197.176 175.754 197.535C175.809 197.895 175.883 198.32 175.977 198.812C176.078 199.305 176.141 199.773 176.164 200.219C176.188 200.656 176.105 200.969 175.918 201.156C175.668 201.367 175.254 201.562 174.676 201.742C174.105 201.914 173.535 202 172.965 202C172.559 202 172.195 201.938 171.875 201.812C171.555 201.68 171.34 201.461 171.23 201.156C171.035 200.531 170.887 199.57 170.785 198.273C170.691 196.969 170.645 195.586 170.645 194.125C170.645 192.656 170.691 191.273 170.785 189.977C170.887 188.68 171.035 187.719 171.23 187.094C171.34 186.789 171.555 186.574 171.875 186.449C172.195 186.316 172.559 186.25 172.965 186.25C173.348 186.25 173.738 186.293 174.137 186.379C174.535 186.465 174.891 186.57 175.203 186.695C175.523 186.82 175.762 186.953 175.918 187.094C176.105 187.281 176.188 187.598 176.164 188.043C176.141 188.48 176.078 188.945 175.977 189.438C175.883 189.93 175.809 190.359 175.754 190.727C175.707 191.086 175.762 191.266 175.918 191.266Z" fill="black"/>
</svg>
