<svg width="547" height="100" viewBox="0 0 547 100" fill="none" xmlns="http://www.w3.org/2000/svg">
<path d="M29.7476 44.5674C29.1112 43.3776 28.0459 42.8104 26.5518 42.8657C25.0576 42.8934 23.4113 43.1839 21.6128 43.7373C19.8143 44.263 18.1403 44.6919 16.5908 45.0239C15.0413 45.356 13.8931 45.2038 13.146 44.5674C12.6203 44.014 12.1222 43.1978 11.6519 42.1187C11.1815 41.0119 10.7941 39.7806 10.4897 38.4248C10.2131 37.0413 10.0747 35.6855 10.0747 34.3574C10.0747 32.8633 10.3099 31.5352 10.7803 30.373C11.2507 29.1833 12.0392 28.3809 13.146 27.9658C15.3595 27.2741 18.7629 26.7622 23.356 26.4302C27.9491 26.0705 32.8465 25.8906 38.0483 25.8906C43.2225 25.8906 48.1061 26.0705 52.6992 26.4302C57.32 26.7622 60.7371 27.2741 62.9507 27.9658C64.0575 28.3809 64.846 29.1694 65.3164 30.3315C65.7868 31.4937 66.022 32.8218 66.022 34.3159C66.022 35.1183 65.9666 35.9346 65.856 36.7646C65.7453 37.5947 65.5931 38.411 65.3994 39.2134C65.2057 39.9881 64.9705 40.7214 64.6938 41.4131C64.4448 42.1048 64.1681 42.7274 63.8638 43.2808C63.5871 43.8065 63.2827 44.2354 62.9507 44.5674C62.2036 45.2038 61.0553 45.356 59.5059 45.0239C57.984 44.6919 56.3239 44.263 54.5254 43.7373C52.7269 43.1839 51.0667 42.8934 49.5449 42.8657C48.0508 42.8104 46.9855 43.3776 46.3491 44.5674C45.6851 46.0892 45.4222 48.4411 45.5605 51.623C45.6989 54.7773 45.9618 58.2083 46.3491 61.916C46.7365 65.596 46.9993 69.027 47.1377 72.209C47.276 75.3633 47.0132 77.7152 46.3491 79.2646C45.7127 80.5098 44.6198 81.4505 43.0703 82.0869C41.5208 82.6956 39.8468 83 38.0483 83C36.2775 83 34.6174 82.6956 33.0679 82.0869C31.5184 81.4505 30.4116 80.5098 29.7476 79.2646C29.0835 77.7152 28.8206 75.3633 28.959 72.209C29.0973 69.027 29.3602 65.596 29.7476 61.916C30.1349 58.2083 30.3978 54.7773 30.5361 51.623C30.6745 48.4411 30.4116 46.0892 29.7476 44.5674ZM73.4927 35.395C76.73 32.1854 80.0365 29.9165 83.4121 28.5884C86.8154 27.2326 90.1219 26.5547 93.3315 26.5547C96.7902 26.5547 100.028 27.1219 103.043 28.2563C106.059 29.3908 108.633 30.7604 110.763 32.3652C112.921 33.9701 114.471 35.5195 115.412 37.0137C117.072 39.6976 118.289 42.4092 119.064 45.1484C119.839 47.8877 120.226 50.627 120.226 53.3662C120.226 56.6312 119.756 59.8547 118.815 63.0366C117.902 66.2186 116.671 69.3175 115.121 72.3335C113.267 75.7091 110.32 78.3377 106.281 80.2192C102.241 82.0731 97.8831 83 93.207 83C90.1357 83 87.106 82.5711 84.1177 81.7134C81.1571 80.828 78.4593 79.4583 76.0244 77.6045C72.7041 75.0036 70.2 71.7109 68.5122 67.7266C66.8521 63.7145 66.022 59.5503 66.022 55.2339C66.022 51.5262 66.6307 47.943 67.8481 44.4844C69.0933 41.0257 70.9748 37.9959 73.4927 35.395ZM86.4004 48.8423C84.5465 50.8068 83.7026 53.1864 83.8687 55.981C84.0347 58.7479 85.1553 60.9753 87.2305 62.6631C89.4717 64.1572 91.9481 64.7106 94.6597 64.3232C97.3989 63.9359 99.3358 62.8014 100.47 60.9199C101.466 59.0938 102.034 57.1984 102.172 55.2339C102.31 53.2417 101.771 51.291 100.553 49.3818C100.028 48.5241 99.0037 47.7217 97.4819 46.9746C95.9878 46.1999 94.2446 45.8678 92.2524 45.9785C90.2879 46.0892 88.3372 47.0438 86.4004 48.8423ZM142.306 44.9824C142.86 44.9824 143.593 44.346 144.506 43.0732C145.447 41.7728 146.512 40.251 147.702 38.5078C148.891 36.7646 150.15 35.1183 151.479 33.5688C152.834 31.9917 154.204 30.8711 155.587 30.207C159.987 28.5192 164.455 27.6753 168.993 27.6753C170.764 27.6753 172.258 27.869 173.476 28.2563C174.721 28.6437 175.399 29.2939 175.509 30.207V30.373C175.509 31.2308 174.914 32.3652 173.725 33.7764C172.562 35.1875 171.11 36.7785 169.367 38.5493C167.651 40.3201 165.936 42.174 164.22 44.1108C162.505 46.02 161.052 47.9292 159.862 49.8384C158.673 51.7199 158.078 53.4769 158.078 55.1094C158.078 56.2715 158.396 57.5166 159.032 58.8447C159.669 60.1452 160.499 61.4871 161.522 62.8706C162.574 64.2264 163.708 65.5822 164.926 66.938C166.171 68.2938 167.416 69.6219 168.661 70.9224C169.906 72.1951 171.041 73.3988 172.064 74.5332C173.088 75.64 173.918 76.6499 174.555 77.563C175.191 78.4761 175.509 79.237 175.509 79.8457V80.0117C175.399 80.9248 174.721 81.575 173.476 81.9624C172.258 82.3498 170.764 82.5435 168.993 82.5435C164.455 82.5435 159.987 81.6995 155.587 80.0117C154.204 79.3477 152.834 78.2409 151.479 76.6914C150.15 75.1143 148.891 73.4541 147.702 71.7109C146.512 69.9678 145.447 68.4598 144.506 67.187C143.593 65.9142 142.86 65.2778 142.306 65.2778C141.753 65.2778 141.559 65.9142 141.725 67.187C141.919 68.4598 142.182 69.9678 142.514 71.7109C142.873 73.4541 143.095 75.1143 143.178 76.6914C143.261 78.2409 142.97 79.3477 142.306 80.0117C141.421 80.7588 139.954 81.4505 137.907 82.0869C135.887 82.6956 133.867 83 131.847 83C130.408 83 129.122 82.7786 127.987 82.3359C126.853 81.8656 126.092 81.0908 125.705 80.0117C125.013 77.7982 124.487 74.3949 124.127 69.8018C123.795 65.181 123.629 60.2835 123.629 55.1094C123.629 49.9076 123.795 45.0101 124.127 40.417C124.487 35.8239 125.013 32.4206 125.705 30.207C126.092 29.1279 126.853 28.367 127.987 27.9243C129.122 27.4539 130.408 27.2188 131.847 27.2188C133.203 27.2188 134.586 27.3709 135.998 27.6753C137.409 27.9797 138.668 28.3532 139.774 28.7959C140.909 29.2386 141.753 29.709 142.306 30.207C142.97 30.8711 143.261 31.9917 143.178 33.5688C143.095 35.1183 142.873 36.7646 142.514 38.5078C142.182 40.251 141.919 41.7728 141.725 43.0732C141.559 44.346 141.753 44.9824 142.306 44.9824ZM195.805 62.1235C197.354 62.2065 199.831 62.0682 203.234 61.7085C206.665 61.3211 210.082 61.0859 213.485 61.0029C216.889 60.8923 219.351 61.2658 220.873 62.1235C221.98 62.8983 222.838 64.1434 223.446 65.8589C224.083 67.5744 224.401 69.359 224.401 71.2129C224.401 72.9007 224.11 74.4502 223.529 75.8613C222.976 77.2448 222.09 78.1994 220.873 78.7251C219.434 79.3062 217.304 79.9287 214.481 80.5928C211.659 81.2292 208.491 81.7964 204.977 82.2944C201.463 82.7648 197.991 83 194.56 83C191.239 83 188.209 82.6818 185.47 82.0454C182.731 81.409 180.642 80.3022 179.203 78.7251C177.488 76.5669 176.187 73.2466 175.302 68.7642C174.444 64.2817 174.015 59.5226 174.015 54.4868C174.015 49.4233 174.444 44.6504 175.302 40.168C176.187 35.6855 177.488 32.3791 179.203 30.2485C180.642 28.6714 182.731 27.5646 185.47 26.9282C188.237 26.2642 191.281 25.9321 194.601 25.9321C198.004 25.9321 201.463 26.1812 204.977 26.6792C208.491 27.1496 211.659 27.7168 214.481 28.3809C217.304 29.0449 219.434 29.6675 220.873 30.2485C222.09 30.7743 222.976 31.7427 223.529 33.1538C224.11 34.5373 224.401 36.0591 224.401 37.7192C224.401 39.5731 224.083 41.3716 223.446 43.1147C222.838 44.8302 221.98 46.0754 220.873 46.8501C219.351 47.7078 216.889 48.0814 213.485 47.9707C210.082 47.86 206.665 47.6248 203.234 47.2651C199.831 46.9054 197.354 46.7671 195.805 46.8501C195.528 46.9054 195.334 47.1406 195.224 47.5557C195.141 47.943 195.141 48.3442 195.224 48.7593C195.334 49.1743 195.528 49.4233 195.805 49.5063C196.828 49.617 198.475 49.5617 200.744 49.3403C203.013 49.0913 205.268 48.9253 207.509 48.8423C209.778 48.7593 211.41 48.9806 212.406 49.5063C213.347 50.1151 213.97 51.0973 214.274 52.4531C214.578 53.8089 214.578 55.1647 214.274 56.5205C213.97 57.8763 213.347 58.8586 212.406 59.4673C211.41 59.993 209.778 60.2144 207.509 60.1313C205.268 60.0207 203.013 59.8547 200.744 59.6333C198.475 59.4119 196.828 59.3566 195.805 59.4673C195.528 59.5503 195.334 59.7993 195.224 60.2144C195.141 60.6017 195.141 61.0029 195.224 61.418C195.334 61.8053 195.528 62.0405 195.805 62.1235ZM247.104 57.1016C246.744 57.1016 246.55 57.5581 246.522 58.4712C246.522 59.3843 246.605 60.5741 246.771 62.0405C246.938 63.507 247.117 65.098 247.311 66.8135C247.532 68.529 247.712 70.2168 247.851 71.877C247.989 73.5371 248.017 75.0312 247.934 76.3594C247.851 77.6598 247.574 78.6283 247.104 79.2646C246.301 80.2884 244.987 81.1047 243.161 81.7134C241.334 82.3221 239.453 82.6265 237.516 82.6265C235.884 82.6265 234.417 82.3636 233.117 81.8379C231.816 81.3122 230.945 80.4544 230.502 79.2646C229.783 76.9404 229.215 73.3434 228.8 68.4736C228.413 63.5762 228.219 58.4159 228.219 52.9927C228.219 49.7 228.302 46.5042 228.468 43.4053C228.634 40.3063 228.883 37.5532 229.215 35.146C229.547 32.7111 229.976 30.8158 230.502 29.46C231.083 28.1042 232.038 27.1357 233.366 26.5547C234.694 25.9736 236.216 25.6831 237.931 25.6831C240.089 25.6831 242.303 26.0566 244.572 26.8037C246.868 27.5231 248.819 28.4085 250.424 29.46C251.116 29.9303 251.807 30.6082 252.499 31.4937C253.191 32.3514 253.869 33.3475 254.533 34.4819C255.197 35.6164 255.847 36.82 256.483 38.0928C257.12 39.3656 257.729 40.6383 258.31 41.9111C258.918 43.1839 259.486 44.4014 260.011 45.5635C260.537 46.7256 261.021 47.7632 261.464 48.6763C261.934 49.5617 262.349 50.2673 262.709 50.793C263.096 51.3187 263.428 51.5815 263.705 51.5815C264.258 51.5815 264.452 50.627 264.286 48.7178C264.12 46.8086 263.857 44.5397 263.498 41.9111C263.138 39.2826 262.917 36.8062 262.833 34.4819C262.778 32.13 263.069 30.4561 263.705 29.46C264.535 28.4362 265.863 27.62 267.689 27.0112C269.516 26.3748 271.397 26.0566 273.334 26.0566C274.939 26.0566 276.391 26.3333 277.692 26.8867C278.992 27.4124 279.864 28.2702 280.307 29.46C281.054 31.7842 281.621 35.395 282.008 40.2925C282.396 45.1623 282.589 50.3088 282.589 55.7319C282.589 59.0246 282.506 62.2204 282.34 65.3193C282.202 68.4183 281.953 71.1852 281.593 73.6201C281.261 76.0273 280.832 77.9089 280.307 79.2646C279.753 80.5928 278.812 81.5474 277.484 82.1284C276.156 82.7095 274.634 83 272.919 83C270.761 83 268.533 82.6403 266.237 81.9209C263.94 81.2015 261.99 80.3161 260.385 79.2646C259.001 78.2409 257.632 76.5669 256.276 74.2427C254.948 71.9185 253.689 69.4421 252.499 66.8135C251.309 64.1849 250.244 61.916 249.303 60.0068C248.39 58.07 247.657 57.1016 247.104 57.1016ZM293.214 35.395C296.452 32.1854 299.758 29.9165 303.134 28.5884C306.537 27.2326 309.844 26.5547 313.053 26.5547C316.512 26.5547 319.749 27.1219 322.765 28.2563C325.781 29.3908 328.354 30.7604 330.485 32.3652C332.643 33.9701 334.193 35.5195 335.133 37.0137C336.793 39.6976 338.011 42.4092 338.786 45.1484C339.56 47.8877 339.948 50.627 339.948 53.3662C339.948 56.6312 339.477 59.8547 338.537 63.0366C337.624 66.2186 336.392 69.3175 334.843 72.3335C332.989 75.7091 330.042 78.3377 326.002 80.2192C321.963 82.0731 317.605 83 312.929 83C309.857 83 306.828 82.5711 303.839 81.7134C300.879 80.828 298.181 79.4583 295.746 77.6045C292.426 75.0036 289.922 71.7109 288.234 67.7266C286.574 63.7145 285.744 59.5503 285.744 55.2339C285.744 51.5262 286.352 47.943 287.57 44.4844C288.815 41.0257 290.696 37.9959 293.214 35.395ZM306.122 48.8423C304.268 50.8068 303.424 53.1864 303.59 55.981C303.756 58.7479 304.877 60.9753 306.952 62.6631C309.193 64.1572 311.67 64.7106 314.381 64.3232C317.121 63.9359 319.057 62.8014 320.192 60.9199C321.188 59.0938 321.755 57.1984 321.894 55.2339C322.032 53.2417 321.492 51.291 320.275 49.3818C319.749 48.5241 318.725 47.7217 317.204 46.9746C315.709 46.1999 313.966 45.8678 311.974 45.9785C310.01 46.0892 308.059 47.0438 306.122 48.8423ZM386.93 29.958C388.369 29.1279 390.084 28.4085 392.077 27.7998C394.069 27.1911 395.978 26.8867 397.804 26.8867C399.16 26.8867 400.35 27.1219 401.374 27.5923C402.425 28.0627 403.144 28.8512 403.532 29.958C404.223 32.1715 404.749 35.5749 405.109 40.168C405.469 44.7611 405.648 49.6585 405.648 54.8604C405.648 60.0345 405.469 64.932 405.109 69.5527C404.749 74.1458 404.223 77.5492 403.532 79.7627C403.117 80.9248 402.273 81.7549 401 82.2529C399.755 82.751 398.344 83 396.767 83C394.83 83 392.921 82.6956 391.039 82.0869C389.158 81.4782 387.788 80.7035 386.93 79.7627C386.487 79.1816 386.211 78.3239 386.1 77.1895C386.017 76.0273 386.031 74.7131 386.142 73.2466C386.28 71.7801 386.46 70.286 386.681 68.7642C386.903 67.2424 387.096 65.8312 387.262 64.5308C387.428 63.2026 387.497 62.1235 387.47 61.2935C387.442 60.4357 387.262 59.9515 386.93 59.8408C386.681 59.7855 386.363 59.9792 385.976 60.4219C385.588 60.8369 385.159 61.4318 384.689 62.2065C384.219 62.9813 383.707 63.8667 383.153 64.8628C382.628 65.8312 382.074 66.855 381.493 67.9341C380.912 68.9855 380.317 70.0231 379.708 71.0469C379.1 72.043 378.491 72.9561 377.882 73.7861C377.301 74.5885 376.72 75.2388 376.139 75.7368C375.558 76.2072 375.005 76.4424 374.479 76.4424C373.649 76.4424 372.75 75.8613 371.781 74.6992C370.84 73.5371 369.886 72.126 368.917 70.4658C367.949 68.778 367.022 67.104 366.137 65.4438C365.251 63.7837 364.449 62.4141 363.729 61.335C363.038 60.2559 362.471 59.7578 362.028 59.8408C361.557 60.0622 361.391 61.0306 361.53 62.7461C361.696 64.4339 361.945 66.4399 362.277 68.7642C362.637 71.0884 362.844 73.2743 362.899 75.3218C362.982 77.3693 362.692 78.8496 362.028 79.7627C361.198 80.7035 359.842 81.4782 357.96 82.0869C356.079 82.6956 354.156 83 352.191 83C350.614 83 349.203 82.751 347.958 82.2529C346.713 81.7549 345.869 80.9248 345.426 79.7627C344.735 77.5492 344.209 74.1458 343.849 69.5527C343.517 64.932 343.351 60.0345 343.351 54.8604C343.351 49.6585 343.517 44.7611 343.849 40.168C344.209 35.5749 344.735 32.1715 345.426 29.958C345.841 28.8512 346.561 28.0627 347.584 27.5923C348.608 27.1219 349.798 26.8867 351.154 26.8867C352.98 26.8867 354.889 27.1911 356.881 27.7998C358.901 28.4085 360.617 29.1279 362.028 29.958C363.688 30.9818 365.334 32.6281 366.967 34.897C368.599 37.1382 370.08 39.3932 371.408 41.6621C372.736 43.9033 373.76 45.5358 374.479 46.5596C375.198 45.5358 376.222 43.9033 377.55 41.6621C378.878 39.3932 380.359 37.1382 381.991 34.897C383.651 32.6281 385.298 30.9818 386.93 29.958ZM428.683 30.9126C429.375 33.0431 429.901 36.3358 430.26 40.7905C430.62 45.2453 430.8 49.9767 430.8 54.9849C430.8 60.0207 430.62 64.766 430.26 69.2207C429.901 73.6478 429.375 76.9266 428.683 79.0571C428.185 80.3853 427.134 81.3813 425.529 82.0454C423.952 82.6818 422.236 83 420.382 83C418.528 83 416.799 82.6818 415.194 82.0454C413.617 81.3813 412.58 80.3853 412.082 79.0571C411.639 77.6737 411.251 75.7507 410.919 73.2881C410.615 70.7979 410.38 67.9618 410.214 64.7798C410.076 61.5978 410.006 58.3328 410.006 54.9849C410.006 51.6646 410.076 48.4134 410.214 45.2314C410.38 42.0495 410.615 39.2134 410.919 36.7231C411.251 34.2329 411.639 32.2961 412.082 30.9126C412.58 29.6121 413.617 28.6299 415.194 27.9658C416.799 27.3018 418.528 26.9697 420.382 26.9697C422.236 26.9697 423.952 27.3018 425.529 27.9658C427.134 28.6299 428.185 29.6121 428.683 30.9126ZM433.996 53.8643C433.996 49.2712 434.867 44.7887 436.61 40.417C438.381 36.0452 441.148 32.4482 444.911 29.626C448.674 26.8037 453.53 25.2819 459.479 25.0605H459.77C462.426 25.0605 465.096 25.6554 467.78 26.8452C470.464 28.0073 472.912 29.4876 475.126 31.2861C477.367 33.057 479.166 34.9246 480.521 36.8892C481.905 38.8537 482.597 40.6383 482.597 42.2432C482.597 42.5475 482.569 42.8519 482.514 43.1562C481.988 45.3698 480.895 47.0715 479.235 48.2612C477.602 49.4233 475.749 50.0597 473.673 50.1704C471.598 50.2811 469.661 49.8384 467.863 48.8423C466.867 48.2336 465.94 47.3896 465.082 46.3105C464.224 45.2038 463.339 44.2077 462.426 43.3223C461.54 42.4092 460.544 41.925 459.438 41.8696C457.169 41.9803 455.495 43.2531 454.416 45.688C453.364 48.0952 452.88 50.876 452.963 54.0303C453.018 55.9948 453.267 57.904 453.71 59.7578C454.153 61.584 454.844 63.1058 455.785 64.3232C456.726 65.5407 457.943 66.1632 459.438 66.1909C460.544 66.1356 461.54 65.6652 462.426 64.7798C463.339 63.8667 464.224 62.8706 465.082 61.7915C465.94 60.7124 466.867 59.8547 467.863 59.2183C469.661 58.2222 471.598 57.7795 473.673 57.8901C475.749 58.0008 477.602 58.651 479.235 59.8408C480.895 61.0029 481.988 62.6908 482.514 64.9043C482.569 65.2087 482.597 65.513 482.597 65.8174C482.597 67.4222 481.905 69.2069 480.521 71.1714C479.166 73.1359 477.367 75.0174 475.126 76.8159C472.912 78.5868 470.464 80.0671 467.78 81.2568C465.096 82.4189 462.426 83 459.77 83H459.479C453.502 82.834 448.633 81.4229 444.87 78.7666C441.134 76.1104 438.381 72.624 436.61 68.3076C434.867 63.9635 433.996 59.1906 433.996 53.9888V53.8643ZM531.239 45.3975C530.243 46.0615 528.625 46.3797 526.383 46.3521C524.17 46.3244 521.804 46.1584 519.286 45.854C516.768 45.522 514.582 45.2729 512.729 45.1069C510.875 44.9409 509.851 45.0378 509.657 45.3975C509.602 45.5635 509.671 45.7572 509.865 45.9785C510.086 46.1722 510.404 46.3936 510.819 46.6426C511.262 46.8916 511.774 47.1683 512.355 47.4727C512.964 47.7493 513.628 48.0399 514.347 48.3442C515.094 48.6486 515.869 48.9806 516.671 49.3403C517.474 49.6724 518.29 50.0321 519.12 50.4194C519.978 50.7791 520.822 51.1527 521.652 51.54C522.482 51.9274 523.284 52.3286 524.059 52.7437C524.834 53.131 525.553 53.5322 526.217 53.9473C526.909 54.3623 527.532 54.7773 528.085 55.1924C530.077 56.7419 531.696 58.5265 532.941 60.5464C534.186 62.5386 534.809 64.8351 534.809 67.436C534.809 68.9302 534.546 70.5627 534.02 72.3335C533.522 74.0767 532.706 75.9443 531.571 77.9365C530.354 79.818 527.905 81.1323 524.225 81.8794C520.573 82.6265 516.505 83 512.023 83C507.153 83 502.449 82.7095 497.912 82.1284C493.402 81.5474 490.123 80.9248 488.075 80.2607C486.885 79.8457 486.028 78.988 485.502 77.6875C484.976 76.387 484.713 74.9344 484.713 73.3296C484.713 71.3927 485.018 69.5112 485.626 67.6851C486.263 65.8312 487.079 64.4893 488.075 63.6592C488.407 63.4102 488.836 63.2165 489.362 63.0781C489.915 62.9398 490.538 62.8568 491.229 62.8291C491.921 62.7738 492.668 62.7599 493.471 62.7876C494.301 62.8153 495.159 62.8706 496.044 62.9536C496.929 63.009 497.815 63.092 498.7 63.2026C499.613 63.2856 500.513 63.3825 501.398 63.4932C502.283 63.6038 503.127 63.7145 503.93 63.8252C504.732 63.9082 505.465 63.9774 506.129 64.0327C506.821 64.0881 507.416 64.1296 507.914 64.1572C508.44 64.1572 508.855 64.1157 509.159 64.0327C509.464 63.9497 509.63 63.8252 509.657 63.6592C509.602 63.0228 508.274 62.1235 505.673 60.9614C503.1 59.7993 500.264 58.4712 497.165 56.9771C494.066 55.4829 491.7 53.9196 490.067 52.2871C488.739 50.8206 487.674 48.9945 486.872 46.8086C486.097 44.5951 485.709 42.3123 485.709 39.9604C485.709 38.1066 486 36.3219 486.581 34.6064C487.162 32.891 488.103 31.3968 489.403 30.124C490.953 28.7959 493.581 27.8551 497.289 27.3018C501.024 26.7484 505.064 26.4717 509.408 26.4717C513.918 26.4717 518.207 26.693 522.274 27.1357C526.342 27.5785 529.33 28.1318 531.239 28.7959C532.401 29.2663 533.245 30.1517 533.771 31.4521C534.297 32.7526 534.56 34.2052 534.56 35.8101C534.56 37.7469 534.255 39.6284 533.646 41.4546C533.038 43.2808 532.235 44.5951 531.239 45.3975Z" fill="black"/>
</svg>
