<svg width="286" height="237" viewBox="0 0 286 237" fill="none" xmlns="http://www.w3.org/2000/svg">
<rect x="9" y="15" width="275" height="220" rx="38" fill="black" stroke="black" stroke-width="4"/>
<rect x="2" y="2" width="275" height="220" rx="38" fill="#C3FCF1" stroke="black" stroke-width="4"/>
<path d="M151.165 91.5391L185.048 53H177.023L147.589 86.454L124.101 53H97L132.53 103.595L97 144H105.025L136.086 108.663L160.899 144H188M107.923 58.9237H120.252L177.016 138.369H164.684" fill="black"/>
<path d="M94.6602 191.148C94.4805 190.812 94.1797 190.652 93.7578 190.668C93.3359 190.676 92.8711 190.758 92.3633 190.914C91.8555 191.062 91.3828 191.184 90.9453 191.277C90.5078 191.371 90.1836 191.328 89.9727 191.148C89.8242 190.992 89.6836 190.762 89.5508 190.457C89.418 190.145 89.3086 189.797 89.2227 189.414C89.1445 189.023 89.1055 188.641 89.1055 188.266C89.1055 187.844 89.1719 187.469 89.3047 187.141C89.4375 186.805 89.6602 186.578 89.9727 186.461C90.5977 186.266 91.5586 186.121 92.8555 186.027C94.1523 185.926 95.5352 185.875 97.0039 185.875C98.4648 185.875 99.8438 185.926 101.141 186.027C102.445 186.121 103.41 186.266 104.035 186.461C104.348 186.578 104.57 186.801 104.703 187.129C104.836 187.457 104.902 187.832 104.902 188.254C104.902 188.48 104.887 188.711 104.855 188.945C104.824 189.18 104.781 189.41 104.727 189.637C104.672 189.855 104.605 190.062 104.527 190.258C104.457 190.453 104.379 190.629 104.293 190.785C104.215 190.934 104.129 191.055 104.035 191.148C103.824 191.328 103.5 191.371 103.062 191.277C102.633 191.184 102.164 191.062 101.656 190.914C101.148 190.758 100.68 190.676 100.25 190.668C99.8281 190.652 99.5273 190.812 99.3477 191.148C99.1602 191.578 99.0859 192.242 99.125 193.141C99.1641 194.031 99.2383 195 99.3477 196.047C99.457 197.086 99.5312 198.055 99.5703 198.953C99.6094 199.844 99.5352 200.508 99.3477 200.945C99.168 201.297 98.8594 201.562 98.4219 201.742C97.9844 201.914 97.5117 202 97.0039 202C96.5039 202 96.0352 201.914 95.5977 201.742C95.1602 201.562 94.8477 201.297 94.6602 200.945C94.4727 200.508 94.3984 199.844 94.4375 198.953C94.4766 198.055 94.5508 197.086 94.6602 196.047C94.7695 195 94.8438 194.031 94.8828 193.141C94.9219 192.242 94.8477 191.578 94.6602 191.148ZM112.109 192.93C112.242 192.93 112.34 192.68 112.402 192.18C112.473 191.68 112.539 191.086 112.602 190.398C112.672 189.711 112.77 189.062 112.895 188.453C113.02 187.844 113.207 187.406 113.457 187.141C113.715 186.898 114.055 186.719 114.477 186.602C114.898 186.477 115.34 186.414 115.801 186.414C116.262 186.414 116.703 186.477 117.125 186.602C117.547 186.719 117.887 186.898 118.145 187.141C118.395 187.406 118.582 187.844 118.707 188.453C118.832 189.062 118.926 189.711 118.988 190.398C119.059 191.086 119.125 191.68 119.188 192.18C119.258 192.68 119.359 192.93 119.492 192.93C119.602 192.93 119.703 192.762 119.797 192.426C119.891 192.09 119.988 191.672 120.09 191.172C120.191 190.664 120.305 190.141 120.43 189.602C120.555 189.055 120.695 188.559 120.852 188.113C121.016 187.668 121.207 187.344 121.426 187.141C121.754 186.867 122.215 186.641 122.809 186.461C123.402 186.273 123.977 186.18 124.531 186.18C124.969 186.18 125.34 186.254 125.645 186.402C125.957 186.543 126.113 186.789 126.113 187.141C126.113 187.922 125.828 189.289 125.258 191.242C124.695 193.195 124.051 195.129 123.324 197.043C122.605 198.949 121.973 200.336 121.426 201.203C121.238 201.477 120.973 201.672 120.629 201.789C120.293 201.906 119.926 201.965 119.527 201.965C119.176 201.965 118.816 201.93 118.449 201.859C118.09 201.781 117.762 201.688 117.465 201.578C117.168 201.461 116.926 201.336 116.738 201.203C116.551 201.062 116.406 200.84 116.305 200.535C116.211 200.223 116.141 199.879 116.094 199.504C116.047 199.121 116.012 198.754 115.988 198.402C115.973 198.051 115.953 197.762 115.93 197.535C115.906 197.301 115.863 197.184 115.801 197.184C115.723 197.184 115.672 197.359 115.648 197.711C115.625 198.055 115.598 198.465 115.566 198.941C115.535 199.418 115.465 199.871 115.355 200.301C115.254 200.723 115.09 201.023 114.863 201.203C114.574 201.406 114.168 201.586 113.645 201.742C113.129 201.891 112.605 201.965 112.074 201.965C111.676 201.965 111.305 201.906 110.961 201.789C110.625 201.672 110.363 201.477 110.176 201.203C109.629 200.336 108.992 198.949 108.266 197.043C107.547 195.129 106.902 193.195 106.332 191.242C105.77 189.289 105.488 187.922 105.488 187.141C105.488 186.789 105.641 186.543 105.945 186.402C106.258 186.254 106.633 186.18 107.07 186.18C107.625 186.18 108.199 186.273 108.793 186.461C109.387 186.641 109.848 186.867 110.176 187.141C110.332 187.281 110.473 187.488 110.598 187.762C110.723 188.035 110.836 188.352 110.938 188.711C111.047 189.062 111.141 189.434 111.219 189.824C111.305 190.207 111.383 190.582 111.453 190.949C111.531 191.316 111.605 191.648 111.676 191.945C111.746 192.242 111.816 192.48 111.887 192.66C111.957 192.84 112.031 192.93 112.109 192.93ZM131.973 187.293C132.168 187.895 132.316 188.824 132.418 190.082C132.52 191.34 132.57 192.676 132.57 194.09C132.57 195.512 132.52 196.852 132.418 198.109C132.316 199.359 132.168 200.285 131.973 200.887C131.832 201.262 131.535 201.543 131.082 201.73C130.637 201.91 130.152 202 129.629 202C129.105 202 128.617 201.91 128.164 201.73C127.719 201.543 127.426 201.262 127.285 200.887C127.16 200.496 127.051 199.953 126.957 199.258C126.871 198.555 126.805 197.754 126.758 196.855C126.719 195.957 126.699 195.035 126.699 194.09C126.699 193.152 126.719 192.234 126.758 191.336C126.805 190.438 126.871 189.637 126.957 188.934C127.051 188.23 127.16 187.684 127.285 187.293C127.426 186.926 127.719 186.648 128.164 186.461C128.617 186.273 129.105 186.18 129.629 186.18C130.152 186.18 130.637 186.273 131.082 186.461C131.535 186.648 131.832 186.926 131.973 187.293ZM138.723 191.148C138.543 190.812 138.242 190.652 137.82 190.668C137.398 190.676 136.934 190.758 136.426 190.914C135.918 191.062 135.445 191.184 135.008 191.277C134.57 191.371 134.246 191.328 134.035 191.148C133.887 190.992 133.746 190.762 133.613 190.457C133.48 190.145 133.371 189.797 133.285 189.414C133.207 189.023 133.168 188.641 133.168 188.266C133.168 187.844 133.234 187.469 133.367 187.141C133.5 186.805 133.723 186.578 134.035 186.461C134.66 186.266 135.621 186.121 136.918 186.027C138.215 185.926 139.598 185.875 141.066 185.875C142.527 185.875 143.906 185.926 145.203 186.027C146.508 186.121 147.473 186.266 148.098 186.461C148.41 186.578 148.633 186.801 148.766 187.129C148.898 187.457 148.965 187.832 148.965 188.254C148.965 188.48 148.949 188.711 148.918 188.945C148.887 189.18 148.844 189.41 148.789 189.637C148.734 189.855 148.668 190.062 148.59 190.258C148.52 190.453 148.441 190.629 148.355 190.785C148.277 190.934 148.191 191.055 148.098 191.148C147.887 191.328 147.562 191.371 147.125 191.277C146.695 191.184 146.227 191.062 145.719 190.914C145.211 190.758 144.742 190.676 144.312 190.668C143.891 190.652 143.59 190.812 143.41 191.148C143.223 191.578 143.148 192.242 143.188 193.141C143.227 194.031 143.301 195 143.41 196.047C143.52 197.086 143.594 198.055 143.633 198.953C143.672 199.844 143.598 200.508 143.41 200.945C143.23 201.297 142.922 201.562 142.484 201.742C142.047 201.914 141.574 202 141.066 202C140.566 202 140.098 201.914 139.66 201.742C139.223 201.562 138.91 201.297 138.723 200.945C138.535 200.508 138.461 199.844 138.5 198.953C138.539 198.055 138.613 197.086 138.723 196.047C138.832 195 138.906 194.031 138.945 193.141C138.984 192.242 138.91 191.578 138.723 191.148ZM155.105 191.148C154.926 190.812 154.625 190.652 154.203 190.668C153.781 190.676 153.316 190.758 152.809 190.914C152.301 191.062 151.828 191.184 151.391 191.277C150.953 191.371 150.629 191.328 150.418 191.148C150.27 190.992 150.129 190.762 149.996 190.457C149.863 190.145 149.754 189.797 149.668 189.414C149.59 189.023 149.551 188.641 149.551 188.266C149.551 187.844 149.617 187.469 149.75 187.141C149.883 186.805 150.105 186.578 150.418 186.461C151.043 186.266 152.004 186.121 153.301 186.027C154.598 185.926 155.98 185.875 157.449 185.875C158.91 185.875 160.289 185.926 161.586 186.027C162.891 186.121 163.855 186.266 164.48 186.461C164.793 186.578 165.016 186.801 165.148 187.129C165.281 187.457 165.348 187.832 165.348 188.254C165.348 188.48 165.332 188.711 165.301 188.945C165.27 189.18 165.227 189.41 165.172 189.637C165.117 189.855 165.051 190.062 164.973 190.258C164.902 190.453 164.824 190.629 164.738 190.785C164.66 190.934 164.574 191.055 164.48 191.148C164.27 191.328 163.945 191.371 163.508 191.277C163.078 191.184 162.609 191.062 162.102 190.914C161.594 190.758 161.125 190.676 160.695 190.668C160.273 190.652 159.973 190.812 159.793 191.148C159.605 191.578 159.531 192.242 159.57 193.141C159.609 194.031 159.684 195 159.793 196.047C159.902 197.086 159.977 198.055 160.016 198.953C160.055 199.844 159.98 200.508 159.793 200.945C159.613 201.297 159.305 201.562 158.867 201.742C158.43 201.914 157.957 202 157.449 202C156.949 202 156.48 201.914 156.043 201.742C155.605 201.562 155.293 201.297 155.105 200.945C154.918 200.508 154.844 199.844 154.883 198.953C154.922 198.055 154.996 197.086 155.105 196.047C155.215 195 155.289 194.031 155.328 193.141C155.367 192.242 155.293 191.578 155.105 191.148ZM171.852 196.105C172.289 196.129 172.988 196.09 173.949 195.988C174.918 195.879 175.883 195.812 176.844 195.789C177.805 195.758 178.5 195.863 178.93 196.105C179.242 196.324 179.484 196.676 179.656 197.16C179.836 197.645 179.926 198.148 179.926 198.672C179.926 199.148 179.844 199.586 179.68 199.984C179.523 200.375 179.273 200.645 178.93 200.793C178.523 200.957 177.922 201.133 177.125 201.32C176.328 201.5 175.434 201.66 174.441 201.801C173.449 201.934 172.469 202 171.5 202C170.562 202 169.707 201.91 168.934 201.73C168.16 201.551 167.57 201.238 167.164 200.793C166.68 200.184 166.312 199.246 166.062 197.98C165.82 196.715 165.699 195.371 165.699 193.949C165.699 192.52 165.82 191.172 166.062 189.906C166.312 188.641 166.68 187.707 167.164 187.105C167.57 186.66 168.16 186.348 168.934 186.168C169.715 185.98 170.574 185.887 171.512 185.887C172.473 185.887 173.449 185.957 174.441 186.098C175.434 186.23 176.328 186.391 177.125 186.578C177.922 186.766 178.523 186.941 178.93 187.105C179.273 187.254 179.523 187.527 179.68 187.926C179.844 188.316 179.926 188.746 179.926 189.215C179.926 189.738 179.836 190.246 179.656 190.738C179.484 191.223 179.242 191.574 178.93 191.793C178.5 192.035 177.805 192.141 176.844 192.109C175.883 192.078 174.918 192.012 173.949 191.91C172.988 191.809 172.289 191.77 171.852 191.793C171.773 191.809 171.719 191.875 171.688 191.992C171.664 192.102 171.664 192.215 171.688 192.332C171.719 192.449 171.773 192.52 171.852 192.543C172.141 192.574 172.605 192.559 173.246 192.496C173.887 192.426 174.523 192.379 175.156 192.355C175.797 192.332 176.258 192.395 176.539 192.543C176.805 192.715 176.98 192.992 177.066 193.375C177.152 193.758 177.152 194.141 177.066 194.523C176.98 194.906 176.805 195.184 176.539 195.355C176.258 195.504 175.797 195.566 175.156 195.543C174.523 195.512 173.887 195.465 173.246 195.402C172.605 195.34 172.141 195.324 171.852 195.355C171.773 195.379 171.719 195.449 171.688 195.566C171.664 195.676 171.664 195.789 171.688 195.906C171.719 196.016 171.773 196.082 171.852 196.105ZM188.562 196.445C188.07 196.461 187.676 196.465 187.379 196.457C187.082 196.449 186.934 196.445 186.934 196.445C186.934 196.445 186.957 196.582 187.004 196.855C187.051 197.121 187.098 197.461 187.145 197.875C187.199 198.281 187.238 198.707 187.262 199.152C187.285 199.59 187.273 199.988 187.227 200.348C187.18 200.707 187.082 200.969 186.934 201.133C186.777 201.281 186.543 201.422 186.23 201.555C185.926 201.688 185.578 201.797 185.188 201.883C184.805 201.961 184.426 202 184.051 202C183.621 202 183.238 201.934 182.902 201.801C182.574 201.668 182.355 201.445 182.246 201.133C182.082 200.633 181.902 199.883 181.707 198.883C181.52 197.883 181.355 196.762 181.215 195.52C181.074 194.27 181.004 193.059 181.004 191.887C181.004 190.754 181.098 189.75 181.285 188.875C181.473 188 181.793 187.398 182.246 187.07C182.699 186.773 183.402 186.527 184.355 186.332C185.316 186.137 186.379 186.039 187.543 186.039C188.543 186.039 189.551 186.133 190.566 186.32C191.59 186.508 192.527 186.82 193.379 187.258C194.23 187.695 194.918 188.285 195.441 189.027C195.973 189.762 196.262 190.672 196.309 191.758V191.863C196.309 192.598 196.137 193.227 195.793 193.75C195.449 194.266 195 194.695 194.445 195.039C194.945 195.906 195.367 196.738 195.711 197.535C196.062 198.332 196.262 198.961 196.309 199.422V199.492C196.309 199.906 196.137 200.305 195.793 200.687C195.457 201.07 195.039 201.387 194.539 201.637C194.047 201.879 193.574 202 193.121 202C192.793 202 192.5 201.922 192.242 201.766C191.914 201.539 191.531 201.148 191.094 200.594C190.664 200.031 190.223 199.383 189.77 198.648C189.324 197.914 188.922 197.18 188.562 196.445ZM187.484 189.988C187.359 190.043 187.293 190.211 187.285 190.492C187.277 190.773 187.312 191.066 187.391 191.371C187.477 191.668 187.59 191.863 187.73 191.957C187.848 192.012 188.023 192.051 188.258 192.074C188.492 192.098 188.738 192.094 188.996 192.062C189.262 192.031 189.492 191.957 189.688 191.84C189.883 191.723 189.992 191.555 190.016 191.336C190.031 191.172 189.988 191.023 189.887 190.891C189.785 190.75 189.648 190.629 189.477 190.527C189.312 190.418 189.129 190.328 188.926 190.258C188.723 190.18 188.523 190.117 188.328 190.07C188.133 190.023 187.957 189.996 187.801 189.988C187.652 189.973 187.547 189.973 187.484 189.988Z" fill="black"/>
</svg>
