<svg width="286" height="237" viewBox="0 0 286 237" fill="none" xmlns="http://www.w3.org/2000/svg">
<rect x="9" y="15" width="275" height="220" rx="38" fill="black" stroke="black" stroke-width="4"/>
<rect x="2" y="2" width="275" height="220" rx="38" fill="#C3FCF1" stroke="black" stroke-width="4"/>
<g clip-path="url(#clip0_432_686)">
<path d="M128.097 62.4925C126.662 62.2851 126.594 62.216 127.277 62.1468C128.576 61.9394 131.582 62.216 133.7 62.7C138.62 63.8754 143.062 66.9177 147.777 72.2418L149.006 73.6938L150.783 73.4172C158.368 72.1726 166.157 73.1406 172.649 76.183C174.425 77.0127 177.227 78.6721 177.569 79.087C177.705 79.2253 177.91 80.1241 178.047 81.023C178.525 84.2727 178.32 86.6928 177.295 88.5596C176.749 89.5968 176.749 89.8734 177.09 90.7722C177.364 91.4637 178.184 91.9477 178.935 91.9477C180.575 91.9477 182.283 89.3202 183.103 85.6556L183.445 84.2036L184.06 84.895C187.545 88.8362 190.278 94.2985 190.688 98.1706L190.825 99.2077L190.21 98.3089C189.185 96.7186 188.228 95.6814 186.93 94.7825C184.607 93.1922 182.147 92.7082 175.655 92.3625C169.779 92.0168 166.431 91.5328 163.151 90.4265C157.548 88.5596 154.678 86.1396 148.05 77.2201C145.112 73.2789 143.267 71.1355 141.422 69.3377C137.39 65.3966 133.359 63.3223 128.097 62.4925Z" fill="black"/>
<path d="M179.004 71.2731C179.141 68.6457 179.482 66.9171 180.234 65.3268C180.507 64.7045 180.781 64.1514 180.849 64.1514C180.917 64.1514 180.781 64.6354 180.576 65.1885C180.029 66.7097 179.961 68.8531 180.302 71.2731C180.781 74.3846 180.986 74.7995 184.265 78.1875C185.769 79.7778 187.545 81.7829 188.229 82.6127L189.39 84.1338L188.229 83.0275C186.794 81.6447 183.514 79.0172 182.762 78.6715C182.284 78.3949 182.215 78.3949 181.874 78.7406C181.601 79.0172 181.532 79.4321 181.532 81.4372C181.464 84.5487 181.054 86.4847 180.029 88.4899C179.482 89.527 179.414 89.3196 179.892 88.1441C180.234 87.2453 180.302 86.8304 180.302 83.8572C180.302 77.8418 179.619 76.3898 175.451 73.9697C174.426 73.3474 172.649 72.4486 171.624 71.9646C170.531 71.4806 169.711 71.0657 169.779 71.0657C169.916 70.9274 173.948 72.1029 175.519 72.7943C177.911 73.7623 178.321 73.8315 178.594 73.7623C178.799 73.5549 178.936 73.0017 179.004 71.2731Z" fill="black"/>
<path d="M130.899 81.5757C128.029 77.5653 126.184 71.3424 126.594 66.7098L126.731 65.2578L127.414 65.3961C128.644 65.6035 130.762 66.4333 131.787 67.0555C134.52 68.715 135.75 70.9967 136.912 76.6665C137.254 78.3259 137.732 80.2619 137.937 80.8842C138.278 81.9214 139.577 84.3414 140.67 85.8626C141.422 86.9689 140.943 87.522 139.235 87.3837C136.639 87.1071 133.154 84.6871 130.899 81.5757Z" fill="black"/>
<path d="M175.52 111.653C161.99 106.121 157.207 101.35 157.207 93.2606C157.207 92.0852 157.275 91.1172 157.275 91.1172C157.344 91.1172 157.822 91.5321 158.437 92.0161C161.17 94.2286 164.245 95.1966 172.786 96.4412C177.774 97.2018 180.644 97.755 183.241 98.6538C191.509 101.42 196.634 107.089 197.864 114.764C198.205 116.977 198 121.195 197.454 123.407C196.975 125.136 195.609 128.316 195.267 128.385C195.199 128.385 195.062 128.04 195.062 127.487C194.925 124.583 193.49 121.817 191.099 119.673C188.229 117.184 184.539 115.317 175.52 111.653Z" fill="black"/>
<path d="M165.953 113.935C165.816 112.898 165.475 111.584 165.27 111.031L164.928 109.994L165.543 110.755C166.431 111.792 167.115 113.036 167.73 114.765C168.208 116.079 168.208 116.494 168.208 118.637C168.208 120.711 168.14 121.195 167.73 122.371C167.046 124.238 166.226 125.551 164.86 127.003C162.4 129.562 159.188 130.945 154.61 131.567C153.79 131.636 151.467 131.843 149.417 131.982C144.292 132.258 140.876 132.811 137.801 133.918C137.391 134.056 136.981 134.194 136.913 134.125C136.776 133.987 138.894 132.742 140.602 131.913C142.994 130.737 145.454 130.115 150.852 129.147C153.517 128.732 156.25 128.179 156.933 127.902C163.698 125.759 167.046 120.435 165.953 113.935Z" fill="black"/>
<path d="M172.172 125.067C170.395 121.126 169.985 117.393 170.942 113.866C171.078 113.521 171.215 113.175 171.352 113.175C171.488 113.175 171.898 113.382 172.308 113.659C173.128 114.212 174.837 115.18 179.21 117.6C184.744 120.642 187.888 122.993 190.074 125.69C191.987 128.041 193.149 130.737 193.696 134.056C194.037 135.923 193.832 140.417 193.354 142.284C191.851 148.161 188.434 152.863 183.446 155.56C182.695 155.975 182.08 156.251 182.011 156.251C181.943 156.251 182.216 155.56 182.626 154.73C184.266 151.204 184.471 147.816 183.241 144.013C182.49 141.662 180.918 138.827 177.775 134.056C174.017 128.525 173.128 127.073 172.172 125.067Z" fill="black"/>
<path d="M121.265 146.225C126.321 141.938 132.54 138.896 138.279 137.928C140.739 137.513 144.839 137.651 147.094 138.273C150.715 139.241 153.995 141.316 155.704 143.874C157.343 146.363 158.095 148.507 158.847 153.277C159.12 155.144 159.462 157.08 159.53 157.495C160.077 159.984 161.17 161.92 162.537 162.957C164.655 164.548 168.345 164.617 171.966 163.234C172.581 163.027 173.128 162.819 173.128 162.888C173.264 163.027 171.419 164.271 170.19 164.894C168.481 165.792 167.115 166.069 165.27 166.069C161.99 166.069 159.188 164.34 156.933 160.883C156.455 160.192 155.499 158.187 154.679 156.32C152.287 150.719 151.057 149.06 148.256 147.193C145.796 145.602 142.652 145.257 140.261 146.432C137.118 147.953 136.298 152.033 138.484 154.522C139.373 155.559 141.012 156.389 142.379 156.596C144.907 156.942 147.094 154.937 147.094 152.379C147.094 150.719 146.479 149.751 144.839 148.991C142.652 148.023 140.261 149.129 140.329 151.272C140.329 152.171 140.739 152.724 141.627 153.139C142.174 153.416 142.174 153.416 141.764 153.347C139.783 152.932 139.304 150.443 140.876 148.852C142.789 146.916 146.821 147.746 148.187 150.443C148.734 151.549 148.802 153.761 148.324 155.144C147.162 158.187 143.882 159.777 140.534 158.878C138.279 158.256 137.323 157.633 134.589 154.799C129.806 149.82 127.961 148.852 121.128 147.815L119.83 147.608L121.265 146.225Z" fill="black"/>
<path fill-rule="evenodd" clip-rule="evenodd" d="M85.3224 34.9732C101.243 54.5408 125.774 84.9639 127.004 86.6233C128.029 88.0062 127.619 89.3199 125.911 90.2879C124.954 90.8411 122.972 91.3942 122.016 91.3942C120.922 91.3942 119.624 90.8411 118.736 89.9422C118.121 89.3199 115.456 85.3787 109.443 75.9061C104.865 68.646 100.97 62.6305 100.902 62.5614C100.628 62.4231 100.628 62.4231 108.965 77.4964C114.226 86.969 115.934 90.3571 115.934 90.7719C115.934 91.6708 115.661 92.1548 114.568 93.3994C112.723 95.4737 111.903 97.8246 111.288 102.734C110.605 108.196 108.76 112.068 103.498 118.637C100.423 122.509 99.9451 123.2 99.1934 124.791C98.2368 126.727 97.9635 127.833 97.8268 130.322C97.6902 132.949 97.9635 134.609 98.7151 137.098C99.3984 139.311 100.15 140.763 101.995 143.598C103.567 146.087 104.523 147.954 104.523 148.645C104.523 149.198 104.66 149.198 107.12 148.645C112.996 147.262 117.848 144.911 120.513 142.007C122.152 140.209 122.562 139.241 122.562 136.752C122.562 135.162 122.494 134.816 122.084 133.848C121.401 132.327 120.103 131.083 117.301 129.147C113.611 126.588 112.04 124.514 111.63 121.748C111.288 119.397 111.698 117.807 113.748 113.451C115.866 108.957 116.413 107.09 116.754 102.526C116.959 99.6223 117.301 98.4469 118.121 97.548C119.009 96.58 119.761 96.2343 121.879 95.9577C125.364 95.4737 127.619 94.5748 129.395 92.8462C130.967 91.3942 131.65 89.9422 131.719 87.7988L131.787 86.2085L130.899 85.2405C127.687 81.5067 83.2041 32 82.9991 32C82.9308 32 84.0241 33.3137 85.3224 34.9732ZM106.3 133.295C107.051 131.981 106.641 130.322 105.411 129.492C104.25 128.732 102.473 129.077 102.473 130.115C102.473 130.391 102.61 130.668 103.02 130.806C103.635 131.152 103.703 131.497 103.225 132.258C102.747 133.019 102.747 133.71 103.362 134.194C104.318 134.955 105.616 134.54 106.3 133.295Z" fill="black"/>
<path fill-rule="evenodd" clip-rule="evenodd" d="M133.974 96.9259C132.334 97.4099 130.762 99.2076 130.284 101.005C130.011 102.112 130.147 104.117 130.625 104.739C131.377 105.707 132.06 105.984 133.974 105.984C137.732 105.984 140.943 104.324 141.285 102.319C141.627 100.66 140.192 98.3779 138.21 97.3407C137.185 96.7876 135.067 96.5801 133.974 96.9259ZM138.347 100.383C138.893 99.5533 138.688 98.6544 137.664 98.0321C135.819 96.8567 133.017 97.8247 133.017 99.6224C133.017 100.521 134.452 101.489 135.819 101.489C136.707 101.489 137.937 100.936 138.347 100.383Z" fill="black"/>
</g>
<path d="M99.5898 197.301C99.9023 197.301 100.164 197.227 100.375 197.078C100.594 196.922 100.773 196.707 100.914 196.434C101.055 196.152 101.164 195.828 101.242 195.461C101.32 195.086 101.375 194.684 101.406 194.254C101.438 193.824 101.457 193.379 101.465 192.918C101.473 192.449 101.473 191.98 101.465 191.512C101.457 191.043 101.453 190.59 101.453 190.152C101.453 189.715 101.465 189.309 101.488 188.934C101.512 188.551 101.551 188.215 101.605 187.926C101.668 187.637 101.758 187.406 101.875 187.234C102.125 186.898 102.508 186.637 103.023 186.449C103.547 186.262 104.074 186.168 104.605 186.168C105.098 186.168 105.527 186.254 105.895 186.426C106.27 186.598 106.492 186.867 106.562 187.234C106.625 187.625 106.695 188.215 106.773 189.004C106.859 189.793 106.902 190.688 106.902 191.688C106.902 192.57 106.844 193.492 106.727 194.453C106.617 195.414 106.41 196.344 106.105 197.242C105.809 198.133 105.387 198.938 104.84 199.656C104.293 200.367 103.594 200.938 102.742 201.367C101.891 201.789 100.852 202 99.625 202H99.5781C98.0234 201.969 96.7617 201.605 95.793 200.91C94.8242 200.207 94.082 199.305 93.5664 198.203C93.0586 197.094 92.7109 195.906 92.5234 194.641C92.3438 193.375 92.2539 192.184 92.2539 191.066C92.2539 190.199 92.2812 189.43 92.3359 188.758C92.3984 188.086 92.4531 187.578 92.5 187.234C92.5625 186.867 92.7773 186.598 93.1445 186.426C93.5195 186.254 93.9531 186.168 94.4453 186.168C94.9766 186.168 95.5039 186.262 96.0273 186.449C96.5508 186.637 96.9375 186.898 97.1875 187.234C97.4141 187.586 97.5469 188.148 97.5859 188.922C97.6328 189.688 97.6523 190.543 97.6445 191.488C97.6367 192.434 97.668 193.348 97.7383 194.23C97.8086 195.105 97.9805 195.832 98.2539 196.41C98.5352 196.98 98.9805 197.277 99.5898 197.301ZM113.477 194.688C113.375 194.688 113.32 194.816 113.312 195.074C113.312 195.332 113.336 195.668 113.383 196.082C113.43 196.496 113.48 196.945 113.535 197.43C113.598 197.914 113.648 198.391 113.688 198.859C113.727 199.328 113.734 199.75 113.711 200.125C113.688 200.492 113.609 200.766 113.477 200.945C113.25 201.234 112.879 201.465 112.363 201.637C111.848 201.809 111.316 201.895 110.77 201.895C110.309 201.895 109.895 201.82 109.527 201.672C109.16 201.523 108.914 201.281 108.789 200.945C108.586 200.289 108.426 199.273 108.309 197.898C108.199 196.516 108.145 195.059 108.145 193.527C108.145 192.598 108.168 191.695 108.215 190.82C108.262 189.945 108.332 189.168 108.426 188.488C108.52 187.801 108.641 187.266 108.789 186.883C108.953 186.5 109.223 186.227 109.598 186.062C109.973 185.898 110.402 185.816 110.887 185.816C111.496 185.816 112.121 185.922 112.762 186.133C113.41 186.336 113.961 186.586 114.414 186.883C114.609 187.016 114.805 187.207 115 187.457C115.195 187.699 115.387 187.98 115.574 188.301C115.762 188.621 115.945 188.961 116.125 189.32C116.305 189.68 116.477 190.039 116.641 190.398C116.812 190.758 116.973 191.102 117.121 191.43C117.27 191.758 117.406 192.051 117.531 192.309C117.664 192.559 117.781 192.758 117.883 192.906C117.992 193.055 118.086 193.129 118.164 193.129C118.32 193.129 118.375 192.859 118.328 192.32C118.281 191.781 118.207 191.141 118.105 190.398C118.004 189.656 117.941 188.957 117.918 188.301C117.902 187.637 117.984 187.164 118.164 186.883C118.398 186.594 118.773 186.363 119.289 186.191C119.805 186.012 120.336 185.922 120.883 185.922C121.336 185.922 121.746 186 122.113 186.156C122.48 186.305 122.727 186.547 122.852 186.883C123.062 187.539 123.223 188.559 123.332 189.941C123.441 191.316 123.496 192.77 123.496 194.301C123.496 195.23 123.473 196.133 123.426 197.008C123.387 197.883 123.316 198.664 123.215 199.352C123.121 200.031 123 200.562 122.852 200.945C122.695 201.32 122.43 201.59 122.055 201.754C121.68 201.918 121.25 202 120.766 202C120.156 202 119.527 201.898 118.879 201.695C118.23 201.492 117.68 201.242 117.227 200.945C116.836 200.656 116.449 200.184 116.066 199.527C115.691 198.871 115.336 198.172 115 197.43C114.664 196.688 114.363 196.047 114.098 195.508C113.84 194.961 113.633 194.688 113.477 194.688ZM129.988 187.293C130.184 187.895 130.332 188.824 130.434 190.082C130.535 191.34 130.586 192.676 130.586 194.09C130.586 195.512 130.535 196.852 130.434 198.109C130.332 199.359 130.184 200.285 129.988 200.887C129.848 201.262 129.551 201.543 129.098 201.73C128.652 201.91 128.168 202 127.645 202C127.121 202 126.633 201.91 126.18 201.73C125.734 201.543 125.441 201.262 125.301 200.887C125.176 200.496 125.066 199.953 124.973 199.258C124.887 198.555 124.82 197.754 124.773 196.855C124.734 195.957 124.715 195.035 124.715 194.09C124.715 193.152 124.734 192.234 124.773 191.336C124.82 190.438 124.887 189.637 124.973 188.934C125.066 188.23 125.176 187.684 125.301 187.293C125.441 186.926 125.734 186.648 126.18 186.461C126.633 186.273 127.121 186.18 127.645 186.18C128.168 186.18 128.652 186.273 129.098 186.461C129.551 186.648 129.848 186.926 129.988 187.293ZM144.32 191.383C144.039 191.57 143.582 191.66 142.949 191.652C142.324 191.645 141.656 191.598 140.945 191.512C140.234 191.418 139.617 191.348 139.094 191.301C138.57 191.254 138.281 191.281 138.227 191.383C138.211 191.43 138.23 191.484 138.285 191.547C138.348 191.602 138.438 191.664 138.555 191.734C138.68 191.805 138.824 191.883 138.988 191.969C139.16 192.047 139.348 192.129 139.551 192.215C139.762 192.301 139.98 192.395 140.207 192.496C140.434 192.59 140.664 192.691 140.898 192.801C141.141 192.902 141.379 193.008 141.613 193.117C141.848 193.227 142.074 193.34 142.293 193.457C142.512 193.566 142.715 193.68 142.902 193.797C143.098 193.914 143.273 194.031 143.43 194.148C143.992 194.586 144.449 195.09 144.801 195.66C145.152 196.223 145.328 196.871 145.328 197.605C145.328 198.027 145.254 198.488 145.105 198.988C144.965 199.48 144.734 200.008 144.414 200.57C144.07 201.102 143.379 201.473 142.34 201.684C141.309 201.895 140.16 202 138.895 202C137.52 202 136.191 201.918 134.91 201.754C133.637 201.59 132.711 201.414 132.133 201.227C131.797 201.109 131.555 200.867 131.406 200.5C131.258 200.133 131.184 199.723 131.184 199.27C131.184 198.723 131.27 198.191 131.441 197.676C131.621 197.152 131.852 196.773 132.133 196.539C132.227 196.469 132.348 196.414 132.496 196.375C132.652 196.336 132.828 196.312 133.023 196.305C133.219 196.289 133.43 196.285 133.656 196.293C133.891 196.301 134.133 196.316 134.383 196.34C134.633 196.355 134.883 196.379 135.133 196.41C135.391 196.434 135.645 196.461 135.895 196.492C136.145 196.523 136.383 196.555 136.609 196.586C136.836 196.609 137.043 196.629 137.23 196.645C137.426 196.66 137.594 196.672 137.734 196.68C137.883 196.68 138 196.668 138.086 196.645C138.172 196.621 138.219 196.586 138.227 196.539C138.211 196.359 137.836 196.105 137.102 195.777C136.375 195.449 135.574 195.074 134.699 194.652C133.824 194.23 133.156 193.789 132.695 193.328C132.32 192.914 132.02 192.398 131.793 191.781C131.574 191.156 131.465 190.512 131.465 189.848C131.465 189.324 131.547 188.82 131.711 188.336C131.875 187.852 132.141 187.43 132.508 187.07C132.945 186.695 133.688 186.43 134.734 186.273C135.789 186.117 136.93 186.039 138.156 186.039C139.43 186.039 140.641 186.102 141.789 186.227C142.938 186.352 143.781 186.508 144.32 186.695C144.648 186.828 144.887 187.078 145.035 187.445C145.184 187.812 145.258 188.223 145.258 188.676C145.258 189.223 145.172 189.754 145 190.27C144.828 190.785 144.602 191.156 144.32 191.383ZM152.547 192.93C152.68 192.93 152.777 192.68 152.84 192.18C152.91 191.68 152.977 191.086 153.039 190.398C153.109 189.711 153.207 189.062 153.332 188.453C153.457 187.844 153.645 187.406 153.895 187.141C154.152 186.898 154.492 186.719 154.914 186.602C155.336 186.477 155.777 186.414 156.238 186.414C156.699 186.414 157.141 186.477 157.562 186.602C157.984 186.719 158.324 186.898 158.582 187.141C158.832 187.406 159.02 187.844 159.145 188.453C159.27 189.062 159.363 189.711 159.426 190.398C159.496 191.086 159.562 191.68 159.625 192.18C159.695 192.68 159.797 192.93 159.93 192.93C160.039 192.93 160.141 192.762 160.234 192.426C160.328 192.09 160.426 191.672 160.527 191.172C160.629 190.664 160.742 190.141 160.867 189.602C160.992 189.055 161.133 188.559 161.289 188.113C161.453 187.668 161.645 187.344 161.863 187.141C162.191 186.867 162.652 186.641 163.246 186.461C163.84 186.273 164.414 186.18 164.969 186.18C165.406 186.18 165.777 186.254 166.082 186.402C166.395 186.543 166.551 186.789 166.551 187.141C166.551 187.922 166.266 189.289 165.695 191.242C165.133 193.195 164.488 195.129 163.762 197.043C163.043 198.949 162.41 200.336 161.863 201.203C161.676 201.477 161.41 201.672 161.066 201.789C160.73 201.906 160.363 201.965 159.965 201.965C159.613 201.965 159.254 201.93 158.887 201.859C158.527 201.781 158.199 201.688 157.902 201.578C157.605 201.461 157.363 201.336 157.176 201.203C156.988 201.062 156.844 200.84 156.742 200.535C156.648 200.223 156.578 199.879 156.531 199.504C156.484 199.121 156.449 198.754 156.426 198.402C156.41 198.051 156.391 197.762 156.367 197.535C156.344 197.301 156.301 197.184 156.238 197.184C156.16 197.184 156.109 197.359 156.086 197.711C156.062 198.055 156.035 198.465 156.004 198.941C155.973 199.418 155.902 199.871 155.793 200.301C155.691 200.723 155.527 201.023 155.301 201.203C155.012 201.406 154.605 201.586 154.082 201.742C153.566 201.891 153.043 201.965 152.512 201.965C152.113 201.965 151.742 201.906 151.398 201.789C151.062 201.672 150.801 201.477 150.613 201.203C150.066 200.336 149.43 198.949 148.703 197.043C147.984 195.129 147.34 193.195 146.77 191.242C146.207 189.289 145.926 187.922 145.926 187.141C145.926 186.789 146.078 186.543 146.383 186.402C146.695 186.254 147.07 186.18 147.508 186.18C148.062 186.18 148.637 186.273 149.23 186.461C149.824 186.641 150.285 186.867 150.613 187.141C150.77 187.281 150.91 187.488 151.035 187.762C151.16 188.035 151.273 188.352 151.375 188.711C151.484 189.062 151.578 189.434 151.656 189.824C151.742 190.207 151.82 190.582 151.891 190.949C151.969 191.316 152.043 191.648 152.113 191.945C152.184 192.242 152.254 192.48 152.324 192.66C152.395 192.84 152.469 192.93 152.547 192.93ZM169.633 198.766C169.43 198.938 169.332 199.223 169.34 199.621C169.355 200.02 169.355 200.41 169.34 200.793C169.324 201.176 169.176 201.438 168.895 201.578C168.652 201.672 168.277 201.766 167.77 201.859C167.27 201.953 166.754 202 166.223 202C165.871 202 165.539 201.969 165.227 201.906C164.922 201.844 164.676 201.738 164.488 201.59C164.301 201.441 164.207 201.234 164.207 200.969C164.207 200.148 164.488 198.766 165.051 196.82C165.621 194.867 166.266 192.945 166.984 191.055C167.711 189.156 168.348 187.773 168.895 186.906C169.121 186.578 169.449 186.336 169.879 186.18C170.309 186.016 170.762 185.934 171.238 185.934C171.715 185.934 172.168 186.016 172.598 186.18C173.027 186.336 173.355 186.578 173.582 186.906C174.129 187.773 174.762 189.156 175.48 191.055C176.207 192.945 176.852 194.867 177.414 196.82C177.984 198.766 178.27 200.148 178.27 200.969C178.27 201.234 178.176 201.441 177.988 201.59C177.801 201.738 177.551 201.844 177.238 201.906C176.934 201.969 176.605 202 176.254 202C175.723 202 175.203 201.953 174.695 201.859C174.195 201.766 173.824 201.672 173.582 201.578C173.301 201.438 173.152 201.176 173.137 200.793C173.121 200.41 173.117 200.02 173.125 199.621C173.141 199.223 173.047 198.938 172.844 198.766C172.609 198.609 172.281 198.508 171.859 198.461C171.445 198.406 171.027 198.406 170.605 198.461C170.191 198.508 169.867 198.609 169.633 198.766ZM171.238 193.938C171.145 193.938 171.023 194.164 170.875 194.617C170.727 195.07 170.664 195.391 170.688 195.578C170.734 195.664 170.836 195.723 170.992 195.754C171.156 195.785 171.316 195.785 171.473 195.754C171.637 195.723 171.742 195.664 171.789 195.578C171.805 195.5 171.793 195.375 171.754 195.203C171.723 195.031 171.676 194.848 171.613 194.652C171.551 194.457 171.484 194.289 171.414 194.148C171.344 194.008 171.285 193.938 171.238 193.938ZM180.098 201.133C179.934 200.633 179.754 199.883 179.559 198.883C179.371 197.883 179.207 196.762 179.066 195.52C178.926 194.27 178.855 193.059 178.855 191.887C178.855 190.754 178.949 189.75 179.137 188.875C179.324 188 179.645 187.398 180.098 187.07C180.551 186.773 181.254 186.527 182.207 186.332C183.168 186.137 184.23 186.039 185.395 186.039C186.395 186.039 187.402 186.133 188.418 186.32C189.441 186.508 190.379 186.82 191.23 187.258C192.082 187.695 192.77 188.285 193.293 189.027C193.824 189.762 194.113 190.672 194.16 191.758V191.863C194.16 192.605 193.988 193.234 193.645 193.75C193.301 194.266 192.852 194.695 192.297 195.039C191.742 195.375 191.133 195.641 190.469 195.836C189.805 196.031 189.137 196.176 188.465 196.27C187.801 196.363 187.191 196.422 186.637 196.445C186.082 196.469 185.633 196.477 185.289 196.469C184.953 196.453 184.785 196.445 184.785 196.445C184.785 196.445 184.809 196.582 184.855 196.855C184.902 197.121 184.949 197.461 184.996 197.875C185.051 198.281 185.09 198.707 185.113 199.152C185.137 199.59 185.125 199.988 185.078 200.348C185.031 200.707 184.934 200.969 184.785 201.133C184.629 201.281 184.395 201.422 184.082 201.555C183.777 201.688 183.43 201.797 183.039 201.883C182.656 201.961 182.277 202 181.902 202C181.473 202 181.09 201.934 180.754 201.801C180.426 201.668 180.207 201.445 180.098 201.133ZM185.336 189.988C185.211 190.043 185.145 190.211 185.137 190.492C185.129 190.773 185.164 191.066 185.242 191.371C185.328 191.668 185.441 191.863 185.582 191.957C185.699 192.012 185.875 192.051 186.109 192.074C186.344 192.098 186.59 192.094 186.848 192.062C187.113 192.031 187.344 191.957 187.539 191.84C187.734 191.723 187.844 191.555 187.867 191.336C187.883 191.172 187.84 191.023 187.738 190.891C187.637 190.75 187.5 190.629 187.328 190.527C187.164 190.418 186.98 190.328 186.777 190.258C186.574 190.18 186.375 190.117 186.18 190.07C185.984 190.023 185.809 189.996 185.652 189.988C185.504 189.973 185.398 189.973 185.336 189.988Z" fill="black"/>
<defs>
<clipPath id="clip0_432_686">
<rect width="115" height="134" fill="white" transform="translate(83 32)"/>
</clipPath>
</defs>
</svg>
